<svg height="52" viewBox="0 0 157 52" width="157" xmlns="http://www.w3.org/2000/svg" xmlns:xlink="http://www.w3.org/1999/xlink"><mask id="a" fill="#fff"><path d="m.1962.4206h22.208v29.5794h-22.208z" fill="#fff" fill-rule="evenodd"/></mask><mask id="b" fill="#fff"><path d="m1.4004.1348h4.8816v4.886h-4.8816z" fill="#fff" fill-rule="evenodd"/></mask><g fill="none" fill-rule="evenodd"><path d="m22.4042.7266c0 .394-.412.832-.958 1.506-1.846 2.274-5.968 6.312-5.968 16.324 0 5.186.854 7.338.854 9.766 0 1.104-.22 1.678-.792 1.678-1.304 0-3.512-5.47-3.512-12.028 0-13.73 8.66-17.552 9.996-17.552.266 0 .38.146.38.306m-21.83-.306c1.338 0 9.996 3.822 9.996 17.552 0 6.558-2.206 12.028-3.51 12.028-.572 0-.794-.574-.794-1.678 0-2.428.854-4.58.854-9.766 0-10.012-4.12-14.05-5.966-16.324-.546-.674-.958-1.112-.958-1.506 0-.16.114-.306.378-.306" fill="#0081c5" mask="url(#a)" transform="translate(16 21.1582)"/><path d="m24.1358 24.3262c0 1.792 1.416 3.244 3.164 3.244 1.746 0 3.164-1.452 3.164-3.244 0-1.794-1.418-3.246-3.164-3.246-1.748 0-3.164 1.452-3.164 3.246" fill="#f7971d"/><path d="m27.3008 9.3028c-1.288-.598-2.552-1.708-2.552-4.02 0-2.206 1.042-4.33 2.552-5.282 1.51.952 2.552 3.076 2.552 5.282 0 2.312-1.266 3.422-2.552 4.02m27.036 35.41c-4.498-2.766-11.342-5.64-21.266-6.552-.018.12-.104.854-.104 1.554 0 .332.06.764.07.85 9.68.628 16.578 2.686 21.252 4.36l.23.074.078-.072c0-.076-.078-.102-.26-.214m-21.9-37.008c-.76-.686-1.396-1.718-.904-3.312.47-1.518 1.638-2.76 2.882-3.096.838.978 1.102 2.66.634 4.182-.494 1.594-1.6 2.09-2.612 2.226m7.304 6.078c-.262-.944-.242-2.11.98-3.146 1.166-.988 2.752-1.388 3.932-1.016.174 1.224-.482 2.722-1.648 3.712-1.222 1.034-2.374.864-3.264.45m.232 9.172c.308-.91.966-1.844 2.526-2.016 1.488-.16 2.996.39 3.748 1.338-.53 1.088-1.888 1.944-3.376 2.106-1.562.168-2.404-.602-2.898-1.428m-2.644 3.32c.502-.692 1.306-1.314 2.676-1.048 1.308.252 2.446 1.116 2.838 2.12-.738.786-2.116 1.158-3.426.906-1.37-.268-1.884-1.144-2.088-1.978m-7.95-8.674c-.914-.82-1.676-2.06-1.084-3.972.564-1.822 1.964-3.312 3.458-3.714 1.004 1.174 1.322 3.192.758 5.018-.59 1.912-1.918 2.504-3.132 2.668m3.472 2.022c-.294-1.064-.272-2.374 1.104-3.54 1.31-1.11 3.094-1.56 4.42-1.142.196 1.378-.542 3.064-1.852 4.174-1.376 1.164-2.672.972-3.672.508m2.316-7.414c-.666-1.058-1.068-2.49.044-4.2 1.058-1.636 2.85-2.704 4.424-2.684.66 1.432.412 3.502-.65 5.134-1.11 1.714-2.58 1.926-3.818 1.75m4.684 6.44c.014-1.166.414-2.49 2.148-3.272 1.652-.748 3.594-.686 4.818.122-.202 1.452-1.438 2.95-3.092 3.698-1.73.782-2.992.214-3.874-.548m-39.85 26.278.08.072.23-.074c4.672-1.674 11.572-3.732 21.252-4.36.01-.086.07-.518.07-.85 0-.7-.086-1.434-.104-1.554-9.924.912-16.768 3.786-21.268 6.552-.18.112-.26.138-.26.214m19.55-39.448c-.47-1.522-.204-3.204.634-4.182 1.242.336 2.41 1.578 2.88 3.096.492 1.594-.142 2.626-.9 3.312-1.014-.136-2.122-.632-2.614-2.226m-7.958 7.854c-1.166-.99-1.82-2.488-1.648-3.712 1.182-.372 2.768.028 3.934 1.016 1.22 1.036 1.242 2.202.98 3.146-.892.414-2.044.584-3.266-.45m.136 11.05c-1.488-.162-2.844-1.018-3.378-2.106.752-.948 2.262-1.498 3.75-1.338 1.56.172 2.22 1.106 2.526 2.016-.496.826-1.338 1.596-2.898 1.428m3.452 3.87c-1.308.252-2.686-.12-3.426-.906.392-1.004 1.53-1.868 2.838-2.12 1.372-.266 2.176.356 2.678 1.048-.204.834-.72 1.71-2.09 1.978m6.908-13.32c-.566-1.826-.246-3.844.758-5.018 1.492.402 2.894 1.892 3.458 3.714.59 1.912-.17 3.152-1.082 3.972-1.214-.164-2.544-.756-3.134-2.668m-4.01 4.182c-1.312-1.11-2.048-2.796-1.854-4.174 1.326-.418 3.11.032 4.422 1.142 1.374 1.166 1.396 2.476 1.104 3.54-1.002.464-2.3.656-3.672-.508m-2.464-8.656c-1.062-1.632-1.312-3.702-.65-5.134 1.572-.02 3.364 1.048 4.426 2.684 1.11 1.71.708 3.142.044 4.2-1.24.176-2.712-.036-3.82-1.75m-4.74 8.738c-1.654-.748-2.89-2.246-3.092-3.698 1.226-.808 3.166-.87 4.818-.122 1.732.782 2.134 2.106 2.146 3.272-.882.762-2.14 1.33-3.872.548" fill="#54b847"/><g fill="#0081c5"><path d="m110.5126 38.168v-12.7c0-1.7-.158-4.966-.2-5.706h3.942l.188 2.58h.08c.458-.722 1.94-2.994 5.38-2.994 4.156 0 6.466 3.05 6.466 6.858v11.962h-4.388v-11.092c0-2.338-1.302-4.106-3.538-4.106-2.31 0-3.538 1.864-3.538 4.106v11.092zm-30.05 0h4.392v-18.352h-4.392zm67.002 0c-.14-1.028-.552-3.732-.552-6.06v-11.928c-.686-.176-3.18-.832-6.042-.832-7.444 0-10.644 4.986-10.644 10.382 0 4.964 2.492 8.852 7.278 8.852 3.494 0 5.058-2.262 5.652-3.464h.112c.046.568.204 2.514.254 3.05zm-4.944-9.108c0 4.214-1.65 5.97-4.03 5.97-2.404 0-3.756-2.038-3.756-5.614 0-3.648 2.096-6.668 5.962-6.668.788 0 1.348.078 1.824.19zm-66.448 4.622c-1.194.556-3.104.928-4.958.928-5.046 0-8.76-3.61-8.76-9.11 0-5.462 3.69-9.114 8.76-9.114 2.516 0 4.304.612 4.958.924v-3.932c-1.102-.41-2.894-.822-5.42-.822-7.834 0-13.094 5.412-13.094 12.944 0 7.118 4.842 12.94 13.094 12.94 2.416 0 4.238-.386 5.42-.824zm25.306 2.288v1.37c0 3.754-2.31 5.21-5.18 5.21-2.578 0-4.48-.77-5.082-.986v3.714c.49.134 2.584.79 5.572.79 5.306 0 8.852-2.19 8.852-9.694v-16.194c-.682-.176-3.172-.832-6.038-.832-7.444 0-10.642 4.986-10.642 10.382 0 4.964 2.494 8.852 7.276 8.852 3.154 0 4.668-1.906 5.162-2.612zm-.228-6.91c0 4.214-1.648 5.97-4.034 5.97-2.4 0-3.748-2.038-3.748-5.614 0-3.648 2.092-6.668 5.956-6.668.796 0 1.354.078 1.826.19zm-21.212-14.042c0 1.474 1.216 2.668 2.72 2.668 1.5 0 2.716-1.194 2.716-2.668 0-1.472-1.216-2.666-2.716-2.666-1.504 0-2.72 1.194-2.72 2.666z"/><path d="m5.5664 4.3028c-.476.48-1.052.718-1.73.718-.676 0-1.252-.238-1.726-.718-.474-.476-.71-1.052-.71-1.732 0-.672.24-1.246.716-1.724.476-.474 1.048-.712 1.72-.712.678 0 1.254.238 1.73.712.476.476.716 1.05.716 1.724 0 .676-.24 1.254-.716 1.732zm-3.214-3.216c-.408.41-.612.906-.612 1.488 0 .586.204 1.084.608 1.496.41.412.904.618 1.488.618.582 0 1.078-.206 1.488-.618.408-.412.612-.91.612-1.496 0-.582-.204-1.078-.612-1.488-.412-.412-.906-.62-1.488-.62-.58 0-1.074.208-1.484.62zm1.436.136c.334 0 .578.034.734.096.278.116.416.344.416.68 0 .24-.088.418-.262.528l-.388.132c.208.032.364.12.46.262l.146.418v.192l.006.2.024.14.016.034h-.442l-.006-.026-.008-.032-.008-.086v-.21c0-.31-.086-.514-.252-.614-.102-.058-.276-.088-.528-.088h-.374v1.056h-.47v-2.682zm.512.422c-.12-.066-.31-.1-.572-.1h-.406v.972h.428c.202 0 .352-.018.452-.06.184-.072.276-.212.276-.42 0-.192-.06-.324-.178-.392z" mask="url(#b)" transform="translate(150 33.1582)"/></g></g></svg>