<svg height="50" width="124" xmlns="http://www.w3.org/2000/svg"><path d="M121.594 2.898s-1.956.218-2.609.218c0 .29-1.232 2.391-1.376 2.681-.145.145-.508 1.16-3.624 1.16l-.217.724h2.971c0 .29-6.74 13.623-6.74 15.362 0 .435.146 1.377 1.812 1.377 2.61 0 6.016-2.246 6.16-2.391l-.435-.507c-.072.072-2.319 1.232-3.477 1.232-.146 0-.87.072-.87-.942 0-1.522 6.449-14.13 6.449-14.13h3.26l.435-.87h-3.26l1.521-3.914zM93.985 7.971l.146.797s.869-.362 1.593-.362c.219 0 .87.145.87.797 0 1.884-6.448 14.493-6.448 14.71l3.187-1.015c2.536-6.594 11.015-14.492 13.261-14.492.29 0 .507.145.507.435 0 1.304-5.58 8.333-6.666 15.072 2.174 0 6.232-2.101 6.594-2.609l-.435-.507s-1.231.58-1.956.58c-.145 0-.653.072-.653-.508 0-2.101 6.667-10.652 6.667-13.623 0-.652-.362-1.16-1.232-1.16-3.985 0-12.028 8.48-12.174 8.48.146-.073 3.044-5.943 3.044-8.044 0 0 .072-.435 0-.435-.362.217-5.725 1.884-6.305 1.884zm-31.16 12.246c0-1.232 10.798-5.797 10.798-9.637 0-1.232-1.231-1.812-1.231-1.812 0 1.304-2.392 6.957-6.305 6.957-1.232 0-1.957-.725-1.957-2.247 0-1.377 2.899-5.797 11.885-5.797 1.159 0 1.594.073 1.594.073 0 .217-1.015 2.101-1.015 3.405l.87.073c0-.435 2.68-5.363 2.899-5.507 0 0-.508-.073-1.885-.073-11.087 0-16.884 7.391-16.884 10.073 0 1.811 1.45 2.101 2.536 2.101-.145.217-5.797 3.84-5.797 3.84s6.594 1.957 6.377 2.102c-.072.145-11.304 2.754-11.304 7.319 0 1.956 2.174 4.348 10.072 4.348 4.275 0 14.058-1.522 14.058-7.247-.072-4.565-14.71-6.811-14.71-7.97zm2.03 14.203c-5.29 0-8.768-1.666-8.768-4.13 0-4.565 11.014-5.58 11.522-5.58.144 0 7.101 2.03 7.101 4.928 0 2.246-2.826 4.782-9.855 4.782zM90.508 5.652c-6.088 0-14.928 7.609-14.928 15.145 0 1.16.435 2.971 2.826 2.971 3.913 0 10.797-5.797 10.797-8.478 0-.507-.144-1.087-.363-1.232 0 .217-3.767 7.826-8.405 7.826-1.595 0-1.957-1.522-1.957-2.391 0-3.696 4.421-12.174 9.494-12.174 1.593 0 1.593.797 1.593 1.014 0 1.16-2.826 3.84-6.45 3.84-.724 0-1.303-.072-1.448-.217 0 .363.217 1.16 1.666 1.16 3.334 0 8.986-3.55 8.986-6.232 0-.87-.724-1.232-1.811-1.232zm-30.146.217c-6.087 0-14.927 7.537-14.927 15.145 0 1.16.434 2.971 2.826 2.971 3.913 0 10.797-5.87 10.797-8.478 0-.507-.145-1.087-.362-1.232 0 .218-3.769 7.899-8.479 7.899-1.594 0-1.956-1.522-1.956-2.391 0-3.696 4.492-12.174 9.565-12.174 1.594 0 1.594.797 1.594 1.014 0 1.16-2.826 3.768-6.45 3.768-.796 0-1.376 0-1.52-.145 0 .29.217 1.16 1.738 1.16 3.261 0 8.986-3.551 8.986-6.16 0-1.014-.652-1.377-1.812-1.377zm-8.768 19.566c0 .434-.145 2.68-3.188 2.68-4.855 0-8.696-5.434-15.58-12.318l.652-1.232h6.16c0-3.043 8.84-2.898 8.84-8.55C48.478 1.231 41.811 0 34.203 0 14.927 0 0 8.26 0 19.783c0 2.898 2.174 10.29 11.956 10.29 12.537 0 19.638-11.088 19.638-11.45 4.928 5 10.362 10.507 15.797 10.507 3.478 0 4.928-1.739 4.928-2.753 0-.652-.58-.942-.725-.942zm-20.362-11.16c-.073-.072-2.899-2.101-7.899-2.101-5.435 0-6.666 2.246-6.666 2.898 0 .508.58.797.58.797 0-.144 1.086-2.898 5.217-2.898 4.565 0 7.39 3.985 7.39 3.985s-4.13 11.377-16.014 11.377c-4.782 0-10.797-2.753-10.797-9.203 0-10.29 11.522-18.043 28.696-18.043 3.116 0 13.478.072 13.478 5.217 0 3.913-4.13 5.652-8.478 5.652h-2.174c.145-.144 2.03-6.376 2.03-7.101L29.71 6.377l.217.797c.145 0 .942-.145 1.305-.145.29 0 1.666-.073 1.666 1.377.145 1.304-1.304 5.507-1.666 5.87zm79.855 30.87c-.145-.507-.363-1.088-1.087-1.088-.652 0-.942.436-.942.87 0 .58.435.87 1.087 1.232.653.29 1.45.725 1.45 1.667 0 .87-.797 1.594-1.884 1.594-.363 0-.653-.072-.798-.145-.217-.072-.362-.145-.435-.145-.072-.217-.145-.87-.217-1.304l.29-.072c.145.507.507 1.376 1.376 1.376.653 0 1.015-.362 1.015-1.014s-.435-.942-1.087-1.232c-.58-.29-1.377-.725-1.377-1.667 0-.798.652-1.522 1.74-1.522.362 0 .724.073 1.086.218.073.29.073.652.145 1.16l-.362.071zm-5.073 0c-.072-.435-.145-.652-.289-.726-.145-.216-.29-.216-.87-.216h-.58v4.057c0 .653.073.725.87.798v.217h-2.464v-.29c.797-.072.87-.144.87-.797v-3.985h-.508c-.652 0-.797.072-.941.216-.073.146-.146.363-.29.798h-.29c.072-.507.072-1.087.072-1.522h.146c.144.218.216.218.434.218h3.333c.218 0 .29-.072.435-.218h.217c0 .435.073 1.015.073 1.522l-.218-.073zm-8.913 1.522c.435 0 .725-.074.87-.219.29-.217.435-.58.435-1.013 0-.87-.58-1.232-1.232-1.232-.29 0-.363.072-.435.072-.072.073-.072.144-.072.363v2.029zm3.116 2.68h-.289c-.58-.072-.943-.217-1.377-.796-.29-.435-.58-.942-.87-1.305-.145-.217-.29-.29-.725-.29h-.289v1.305c0 .724.072.797.797.797v.217h-2.246v-.29c.725-.072.796-.072.796-.797v-3.26c0-.725-.071-.725-.724-.798v-.29h2.102c.579 0 1.014.073 1.376.29.362.218.58.58.58 1.087 0 .725-.435 1.16-1.087 1.45.145.29.507.797.724 1.231.29.435.435.653.653.87.217.217.434.362.58.362v.218zm-9.71-5.29c-.942 0-1.81.798-1.81 2.32 0 1.521.868 2.68 2.027 2.68.943 0 1.74-.796 1.74-2.318.072-1.74-.87-2.682-1.956-2.682zm.145-.362c1.45 0 2.681 1.087 2.681 2.754 0 1.812-1.304 2.899-2.825 2.899-1.523 0-2.755-1.16-2.755-2.826.073-1.45 1.16-2.827 2.899-2.827zm-5.507 1.45c-.145-.507-.363-1.088-1.087-1.088-.652 0-.942.436-.942.87 0 .58.435.87 1.087 1.232.652.29 1.449.725 1.449 1.667 0 .87-.797 1.594-1.884 1.594-.362 0-.652-.072-.797-.145-.218-.072-.362-.145-.434-.145-.073-.217-.146-.87-.218-1.304l.29-.072c.144.507.507 1.376 1.377 1.376.652 0 1.014-.362 1.014-1.014s-.435-.942-1.087-1.232c-.58-.29-1.376-.725-1.376-1.667 0-.797.651-1.521 1.738-1.521.363 0 .725.072 1.087.217.073.29.073.652.145 1.16l-.362.071zm-5 2.826c-.073.29-.218 1.087-.29 1.377h-4.13v-.29c.797-.073.87-.145.87-.797v-3.334c0-.724-.073-.797-.726-.797v-.29h3.77c0 .145.071.798.071 1.232l-.29.073c-.072-.362-.144-.507-.29-.725-.072-.145-.362-.217-.87-.217h-.651c-.29 0-.29 0-.29.29v1.884h.797c.798 0 .798-.073.87-.652h.29v1.593h-.29c-.146-.579-.146-.651-.87-.651h-.797v1.521c0 .435.072.58.217.653.145.072.435.072.87.072.58 0 .87-.072 1.014-.29.145-.145.29-.435.435-.797zm-9.348-1.304c.435 0 .725-.074.87-.219.29-.217.434-.58.434-1.013 0-.87-.652-1.232-1.232-1.232-.217 0-.362.072-.434.072-.073.073-.073.144-.073.363v2.029zm3.116 2.68h-.29c-.58-.072-.942-.217-1.377-.796-.29-.435-.579-.942-.87-1.305-.144-.217-.29-.29-.724-.29h-.29v1.305c0 .724.073.797.797.797v.217h-2.246v-.29c.725-.072.797-.072.797-.797v-3.26c0-.725-.072-.725-.725-.798v-.29h2.102c.58 0 1.014.073 1.377.29.362.218.58.58.58 1.087 0 .725-.435 1.16-1.088 1.45.145.29.508.797.725 1.231.29.435.436.653.652.87.218.217.435.362.58.362v.218zM60.942 44.13c-.435 0-.652.363-.652.797 0 .435.29.725.797 1.087.362-.29.652-.652.652-1.014-.072-.507-.362-.87-.797-.87zm-.073 4.71c.58 0 1.087-.362 1.305-.724a9.632 9.632 0 0 0-1.74-1.594c-.507.362-.796.796-.796 1.158.072.725.724 1.16 1.231 1.16zm3.769-2.898c-.58.072-.725.217-1.015.58-.217.29-.435.652-.725 1.087.363.362 1.087 1.159 1.377 1.666l-.072.073c-.435-.073-.942-.218-1.015-.363-.145-.144-.435-.507-.724-.797-.58.797-1.16 1.087-1.812 1.087-1.087 0-1.667-.797-1.667-1.521 0-.798.508-1.087 1.232-1.595-.362-.362-.58-.652-.58-1.16 0-.796.653-1.303 1.377-1.303.653 0 1.233.507 1.233 1.159 0 .362-.146.58-.363.725-.145.145-.362.29-.652.507.29.217.87.725 1.377 1.232.217-.29.29-.58.507-.942.145-.363.072-.435-.507-.508v-.29h1.956zm-11.16-.798c-.145-.506-.362-1.087-1.087-1.087-.652 0-.942.436-.942.87 0 .58.435.87 1.087 1.232.652.29 1.45.725 1.45 1.667 0 .87-.798 1.594-1.885 1.594-.362 0-.652-.072-.797-.145-.217-.072-.362-.145-.435-.145-.072-.217-.145-.87-.217-1.304l.29-.072c.145.507.507 1.376 1.377 1.376.652 0 1.014-.362 1.014-1.014s-.435-.942-1.087-1.232c-.58-.29-1.377-.725-1.377-1.667 0-.797.653-1.521 1.74-1.521.362 0 .724.072 1.087.217.072.29.072.652.144 1.16zm-4.71 2.827c-.072.29-.217 1.087-.29 1.377h-3.84v-.29c.724-.073.797-.073.797-.797v-3.334c0-.724-.073-.724-.797-.797v-.29h2.246v.29c-.652.073-.797.073-.797.797v3.261c0 .435.072.58.217.653.145.072.435.072.797.072.435 0 .725-.072.87-.29.145-.145.29-.435.435-.797zm-6.594 0c-.073.29-.218 1.087-.29 1.377h-4.13v-.29c.797-.073.869-.145.869-.797v-3.334c0-.724-.072-.797-.725-.797v-.29h3.769c0 .145.072.798.072 1.232l-.29.073c-.072-.362-.145-.507-.29-.725-.072-.145-.362-.217-.87-.217h-.651c-.29 0-.29 0-.29.29v1.884h.797c.797 0 .797-.073.87-.652h.29v1.593h-.29c-.146-.579-.146-.651-.87-.651h-.797v1.521c0 .435.072.58.217.653.145.072.435.072.87.072.58 0 .87-.072 1.014-.29.145-.145.29-.435.435-.797zm-6.884-2.827c-.073-.434-.145-.651-.29-.725-.073-.216-.218-.216-.797-.216h-.58v4.058c0 .652.073.724.87.797v.217h-2.464v-.29c.797-.072.87-.144.87-.797v-3.985h-.508c-.652 0-.797.072-.942.217-.072.145-.145.363-.29.797h-.29c.073-.507.073-1.087.073-1.521h.217c.145.217.218.217.435.217h3.333c.218 0 .29-.072.435-.217h.145c0 .434.073 1.014.073 1.521zm-9.276-1.087c-.942 0-1.811.798-1.811 2.32 0 1.521.87 2.68 2.029 2.68.942 0 1.739-.796 1.739-2.318.072-1.74-.87-2.682-1.957-2.682zm.218-.362c1.449 0 2.68 1.087 2.68 2.754 0 1.812-1.303 2.899-2.825 2.899s-2.754-1.16-2.754-2.826c0-1.45 1.087-2.827 2.899-2.827zm-4.855.435c-.725.073-.797.073-.797.797v3.334c0 .724.072.724.797.797v.217h-2.32v-.29c.725-.072.798-.072.798-.797v-1.594h-2.899v1.594c0 .653.073.725.797.797v.29h-2.246v-.29c.652-.072.725-.072.725-.797v-3.26c0-.725-.073-.725-.797-.798v-.29h2.246v.29c-.652.073-.725.073-.725.797v1.305h2.826v-1.305c0-.652-.072-.724-.724-.797v-.29h2.246z" fill-rule="evenodd"/></svg>