<svg width="67" height="72" xmlns="http://www.w3.org/2000/svg"><path d="M35.433 72H31.11v-.538c0-6.952.006-13.904-.012-20.855-.002-.506.138-.64.622-.625 1.07.033 2.142.023 3.212.003.387-.008.535.092.534.515-.011 7.017-.008 14.034-.008 21.051 0 .13-.013.259-.024.449zm-12.384-.573c-1.088-.35-2.133-.683-3.178-1.02-1.048-.337-1.04-.337-.86-1.43.229-1.381.434-2.766.67-4.145.05-.298-.05-.4-.314-.482-2.825-.882-5.356-2.305-7.606-4.23-.258-.22-.413-.196-.652.017-1.164 1.039-2.344 2.061-3.519 3.089-.12.105-.246.204-.4.33l-3.376-2.89c.893-.757 1.739-1.486 2.598-2.198a5645.04 5645.04 0 0 1 11.42-9.455c.799-.659 1.68-1.198 2.74-1.269.49-.032 1.017-.005 1.477.149 1.406.47 2.634 1.198 3.213 2.686.38.975.329 1.995.212 2.996a469.106 469.106 0 0 1-1.037 8.137c-.321 2.387-.674 4.77-1.014 7.155-.119.835-.243 1.67-.374 2.56zM62.581 60.71l-3.376 2.892-1.318-1.16c-.879-.774-1.761-1.543-2.63-2.328-.221-.2-.364-.225-.607-.011-2.23 1.957-4.788 3.333-7.591 4.256-.295.097-.38.205-.329.512.26 1.573.5 3.15.749 4.725.035.225.128.46-.19.562l-3.962 1.27c-.183-1.277-.36-2.497-.53-3.717-.348-2.482-.713-4.962-1.029-7.448-.332-2.616-.708-5.231-.893-7.859-.18-2.572 1.524-4.021 3.842-4.615 1.392-.356 2.599.214 3.65 1.062a687.304 687.304 0 0 1 7.984 6.566c1.9 1.58 3.771 3.194 5.655 4.793.173.147.341.296.575.5zm-10.675-3.629c-.19-.116-.327-.177-.435-.271-1.466-1.284-2.926-2.575-4.393-3.857-.366-.32-.732-.65-1.14-.907-.572-.36-1.036-.09-1.047.58-.005.324.02.652.067.972.165 1.125.343 2.25.52 3.373.172 1.104.35 2.208.537 3.389 2.26-.522 4.139-1.604 5.89-3.279zm-37.347.046c1.67 1.616 3.565 2.679 5.781 3.232.057-.218.105-.356.128-.498.272-1.704.543-3.407.806-5.113.104-.675.234-1.351.267-2.031.037-.758-.47-1.036-1.11-.655a4.402 4.402 0 0 0-.623.466c-1.203 1.046-2.402 2.096-3.602 3.147-.535.469-1.067.941-1.647 1.452zM2.274 40.29c1.702-.773 3.507-1.195 5.039-2.257.933-.647 1.988-.899 3.129-.89.774.007 1.574-.008 2.318-.192.902-.223 1.774-.596 2.628-.974.824-.365 1.585-.88 2.644-.996-.213.292-.35.522-.526.714-.86.934-1.74 1.849-2.59 2.792a5.82 5.82 0 0 0-.72 1.037c-.2.354-.085.657.326.738.295.058.611.058.912.027.563-.058 1.12-.199 1.682-.23.807-.046 1.28.552 1.851 1.01-.083.059-.108.09-.132.09-2.38.061-4.553.964-6.714 1.798-1.67.643-3.314.749-5.003.402-1.281-.263-2.53-.68-3.795-1.027-.199-.055-.399-.106-.703-.185.976 4.153 2.715 7.84 5.176 11.255l-.799.698C-1.528 43.726-3.657 24.91 8.57 11.145 20.994-2.843 42.612-3.801 56.235 9.05c13.736 12.959 13.307 33.056 3.538 45.21l-.84-.681c2.505-3.427 4.278-7.164 5.3-11.424-.41.24-.714.423-1.024.597-.592.332-1.179.677-1.787.977-.164.08-.463.096-.58-.003-.103-.088-.055-.376-.046-.574.008-.144.096-.289.086-.428-.018-.23-.016-.573-.15-.655-.196-.119-.572-.153-.754-.037-.46.292-.898.647-1.265 1.05-1.018 1.122-2.224 1.653-3.76 1.555a8.067 8.067 0 0 0-3.534.575c.103-.299.155-.63.32-.887a3.75 3.75 0 0 1 .8-.914c1.584-1.244 1.686-2.838 1.19-4.628-.306-1.106-1.054-1.675-2.083-1.968a1.58 1.58 0 0 0-.48-.051c-.446.015-.623.247-.485.678.118.371.3.72.433 1.088.045.123.023.271.031.408-.135.002-.29.05-.404 0-.659-.289-1.305-.547-2.059-.34-.19.053-.485-.084-.668-.22-1.472-1.095-2.768-2.379-3.695-3.972-.314-.54-.413-1.23-.517-1.867a6.704 6.704 0 0 0-.913-2.452c-.625-1.022-1.11-2.094-1.196-3.32-.079-1.134-.74-1.953-1.526-2.696-.52-.491-1.03-.994-1.516-1.519-.137-.147-.172-.39-.253-.589.21-.03.418-.07.629-.085.127-.01.258.04.386.033a2.706 2.706 0 0 1 1.734.512c.351.247.765.404 1.2.553-.122-.556-.357-1.052-.816-1.359-.727-.486-1.5-.903-2.247-1.36-.401-.246-.83-.47-1.166-.79-.263-.25-.408-.63-.593-.957-.16-.28-.256-.61-.46-.847a16.129 16.129 0 0 0-1.268-1.283c-.403-.374-.877-.32-1.227.116-.193.241-.393.484-.541.753-.615 1.113-1.497 1.93-2.56 2.617a37.883 37.883 0 0 0-3.582 2.605c-.587.485-.99 1.193-1.484 1.795-.243.297-.448.675-.76.86-2.506 1.475-4.435 3.653-6.661 5.467a132.838 132.838 0 0 1-4.03 3.145c-.343.257-.771.414-1.18.561-1.262.457-2.534.888-3.803 1.326-.337.116-.672.24-1.017.32-.386.09-.525-.09-.373-.462.067-.164.157-.323.261-.467.287-.395.537-.835.889-1.162 1.001-.93 1.105-2.115 1.018-3.357-.013-.185-.175-.46-.332-.516-.614-.222-.73-.714-.832-1.263-.07-.38-.113-.896-.364-1.079-.414-.301-.828.126-1.146.4-2.812 2.427-5.095 5.211-5.778 9.014-.19 1.051-.38 2.12-.02 3.237zm42.1 1.808c-.383.065-.7.1-1.01.174-.69.166-1.38.336-2.06.534-1.28.372-2.551.533-3.875.187-.815-.212-1.596-.001-2.175.65-.474.533-1.072.704-1.731.757-1.79.146-3.558-.102-5.324-.343-.463-.063-.935-.117-1.378-.255-.225-.069-.396-.315-.59-.48.195-.149.371-.381.59-.432.976-.228 1.963-.406 2.948-.598.413-.08.832-.132 1.24-.231.793-.194 1.441-.62 2.008-1.218.508-.537 1.089-1.005 1.64-1.5.095-.088.205-.16.306-.241.326-.262.538-.576.402-1.017-.137-.444-.62-.873-1.048-.807-.94.144-1.17-.11-1.4-1.136-.221-.994-.757-1.735-1.472-2.41-.98-.924-1.99-1.831-2.872-2.846-1.02-1.17-2.226-1.847-3.765-1.968-.368-.03-.727-.184-1.09-.281l-.02-.168c.186-.135.356-.308.561-.397.415-.179.852-.308 1.277-.464.576-.21 1.197-.348 1.716-.658a79.826 79.826 0 0 0 3.963-2.553c.562-.383 1.113-.646 1.805-.532.431.07.481.182.243.57-.16.262-.338.529-.424.819-.241.814-.744 1.406-1.458 1.82-1.648.957-1.51 2.265-.744 3.578.638 1.094 1.62 1.858 2.618 2.59a79.402 79.402 0 0 0 2.195 1.539c1.145.78 1.887 1.85 2.344 3.154.17.486.418.956.7 1.388.735 1.13 1.778 1.709 3.145 1.708.546 0 1.095.097 1.638.182.478.075.812.37 1.098.885zM1.802 32.853c.197-.062.25-.064.283-.091.125-.105.247-.212.362-.327 1.696-1.688 3.439-3.311 5.436-4.657.727-.492 1.278-.595 1.953-.07.153.12.322.219.482.33 1.582 1.094 3.061 2.364 5.045 2.735.414.077.675.045 1.003-.199 2.524-1.878 4.78-4.13 7.622-5.566a4.41 4.41 0 0 0 .66-.414c.152-.114.279-.267.408-.41.586-.648 1.083-1.416 1.772-1.92 1.188-.869 2.472-1.614 3.758-2.335 1.49-.835 2.797-1.831 3.592-3.395.088-.173.184-.375.335-.474.206-.136.486-.29.703-.254a5.383 5.383 0 0 1 2.454 1.107c.61.48 1.248.96 1.946 1.285 1.835.855 3.696 1.659 5.573 2.418 1.86.752 3.314 1.895 4.058 3.825.344.89.901 1.63 1.665 2.186.825.602 1.67 1.181 2.539 1.718 1.297.8 2.67 1.486 3.918 2.355.898.626 1.621 1.5 2.464 2.213 1.237 1.045 2.816 1.149 4.212.356.65-.37.965-.83.86-1.654-.474-3.686-1.451-7.212-3.136-10.526-3.071-6.041-7.597-10.657-13.576-13.784C42.07 4.102 35.564 3.03 28.73 4.029c-5.336.78-10.178 2.785-14.47 6.06C7.971 14.885 3.992 21.18 2.385 28.962c-.259 1.252-.384 2.533-.585 3.891z" fill="#C22E49" fill-rule="evenodd"/></svg>