<svg height="34" width="183" xmlns="http://www.w3.org/2000/svg"><path d="M148.145 33.976V0h33.975v33.976zm4.747-4.75h24.478V4.682h-24.478v24.546zm-27.956-9.228h2.675v7.357l3.076-3.61h3.212l-3.278 3.811 3.613 6.22h-3.145l-2.274-4.28-1.203 1.27v3.01h-2.675V20zm-11.102 3.745h2.675v1.135c.348-.42.781-.76 1.27-1.001.603-.202 1.137-.335 1.605-.335.937 0 1.673.268 2.34.67.67.534 1.07 1.203 1.07 2.006v7.558h-2.674v-6.62c0-.404-.134-.737-.401-.938-.335-.266-.67-.335-1.071-.335-.535 0-.936.068-1.27.268a3.248 3.248 0 0 0-.87 1.003v6.62h-2.675v-10.03h.001zm-5.017 6.62v-1.537c-.87.133-1.538.335-2.073.467-1.003.268-1.471.736-1.471 1.338 0 .468.066.736.334.936.266.201.601.268 1.071.268.468 0 .936-.134 1.337-.401.4-.199.669-.602.802-1.07zm-3.21-3.612h-2.677c0-1.069.47-1.873 1.339-2.473.802-.467 1.74-.736 2.877-.736 1.538 0 2.674.268 3.41.736.603.467.936 1.003.936 1.74v6.151c0 .603.201 1.138.602 1.605h-2.743c-.133-.2-.265-.335-.333-.535a3.013 3.013 0 0 1-.201-.602 2.86 2.86 0 0 1-1.339 1.003c-.467.202-1.068.335-1.804.335-.938 0-1.674-.335-2.208-.871-.603-.6-.938-1.337-.938-2.139 0-.804.268-1.538.738-2.074.468-.535 1.135-.87 2.007-1.002 1.538-.267 2.274-.403 2.34-.403.802-.2 1.203-.467 1.203-.736 0-.4-.133-.734-.467-.869-.268-.2-.67-.266-1.203-.266-.468 0-.803.134-1.138.266-.267.204-.4.47-.4.87zm-13.109 1.14v3.41h3.61c.537 0 .938-.135 1.339-.536.335-.335.536-.736.536-1.203 0-.468-.201-.87-.536-1.204-.401-.334-.802-.467-1.339-.467zm0-5.419v2.943h3.411c.467 0 .87-.134 1.203-.401.334-.268.467-.603.467-1.004 0-.467-.133-.802-.467-1.137a1.698 1.698 0 0 0-1.137-.401zm-2.81 11.303V19.999h7.023c1.004 0 1.873.334 2.542 1.068.736.736 1.137 1.607 1.137 2.677 0 .6-.136 1.135-.401 1.672a3.29 3.29 0 0 1-1.339 1.203c.67.268 1.203.736 1.674 1.272.4.6.6 1.203.6 1.873 0 1.135-.4 2.073-1.137 2.809-.736.802-1.538 1.203-2.609 1.203h-7.49zm-13.576-6.086h4.213c0-.468-.268-.938-.669-1.27-.4-.402-.869-.603-1.404-.603a2.08 2.08 0 0 0-1.472.602c-.4.333-.668.803-.668 1.27zm4.214 2.876h2.609c-.2 1.137-.802 1.94-1.74 2.61-.802.534-1.805.801-2.942.801-1.404 0-2.542-.536-3.479-1.538-.936-1.003-1.337-2.276-1.337-3.88 0-1.403.401-2.607 1.337-3.544.87-.938 2.074-1.472 3.479-1.472 1.94 0 3.277.736 4.013 2.14.334.468.535 1.07.669 1.672.133.67.133 1.338.133 2.074h-6.955c0 .535.2 1.002.602 1.47.4.537.936.804 1.538.804.468 0 .869-.135 1.27-.267.335-.2.602-.469.803-.87zM62.602 20h2.676v4.813a2.841 2.841 0 0 1 1.338-1.001c.534-.136 1.137-.268 1.739-.268.87 0 1.672.268 2.34.802.67.467 1.003 1.203 1.003 2.006v7.425H69.09v-6.288c0-.534-.201-.935-.468-1.203-.266-.266-.669-.401-1.136-.401a2.62 2.62 0 0 0-1.539.467c-.4.337-.669.736-.669 1.273v6.152h-2.676V19.999zm-6.287 13.977c-1.405 0-2.542-.536-3.477-1.538-.87-1.003-1.338-2.276-1.338-3.88 0-1.337.468-2.54 1.404-3.544.936-.938 2.073-1.472 3.411-1.472 1.204 0 2.274.4 3.143 1.137.936.67 1.405 1.604 1.405 2.675h-2.676c0-.467-.2-.802-.536-1.07-.4-.334-.802-.468-1.337-.468-.669 0-1.137.267-1.538.802-.335.467-.535 1.137-.535 1.939 0 .937.2 1.673.535 2.274.401.536.87.871 1.538.871.468 0 .936-.201 1.27-.536.402-.335.603-.668.603-1.137h2.676c0 1.137-.468 2.14-1.405 2.876-.935.67-1.939 1.071-3.143 1.071zM41.2 30.364h2.675c0 .467.135.871.535 1.137.335.267.803.4 1.338.4.468 0 .87-.065 1.137-.199.335-.135.536-.467.536-.871 0-.534-.469-.935-1.54-1.203-1.738-.467-2.742-.736-2.875-.87-1.07-.467-1.605-1.136-1.605-2.072 0-.937.4-1.673 1.137-2.276.736-.6 1.74-.87 2.942-.87 1.205 0 2.14.269 2.943.803.87.603 1.338 1.405 1.338 2.542h-2.475c-.067-.401-.268-.736-.602-.936a2.304 2.304 0 0 0-1.205-.335c-.4 0-.734.134-1.003.266-.267.202-.401.401-.401.736 0 .401.535.736 1.539.937 1.538.266 2.542.468 2.875.668 1.071.47 1.606 1.273 1.606 2.41 0 1.136-.469 2.006-1.404 2.541-.803.535-1.74.802-2.943.802-1.338 0-2.408-.335-3.277-1.003-.87-.601-1.27-1.47-1.27-2.607zm-2.676-9.497v2.876h1.54v1.873h-1.54v5.149c0 .201.134.4.268.536.134.134.334.2.601.2h.402c.134-.066.201-.066.268-.066v2.34c-.335.068-.67.135-.87.135-.267.066-.602.066-1.07.066-.67 0-1.137-.201-1.605-.67-.401-.4-.602-.869-.602-1.471v-6.22h-1.338v-1.873h1.338v-1.338zm-14.178 2.876h2.675v6.62c0 .336.2.67.468.938.334.266.736.401 1.137.401.535 0 1.004-.135 1.404-.467.402-.403.602-.804.602-1.272v-6.22h2.61v10.032h-2.61v-1.27c-.802 1.001-1.805 1.471-3.008 1.471a3.917 3.917 0 0 1-2.208-.67c-.67-.467-1.07-1.137-1.07-1.939zm-8.629 3.946h4.147c0-.468-.2-.938-.601-1.27-.469-.402-.937-.603-1.471-.603-.536 0-1.004.201-1.405.602a1.53 1.53 0 0 0-.67 1.27zm4.147 2.876h2.675c-.2 1.137-.802 1.94-1.738 2.61-.803.534-1.806.801-3.01.801-1.404 0-2.541-.536-3.41-1.538-.938-1.003-1.405-2.276-1.405-3.88 0-1.403.467-2.607 1.338-3.544.936-.938 2.073-1.472 3.478-1.472 2.006 0 3.343.736 4.08 2.14.267.468.468 1.07.601 1.672.133.67.2 1.338.2 2.074h-6.956c0 .535.202 1.002.536 1.47.468.537.936.804 1.539.804.467 0 .935-.135 1.27-.267.401-.2.669-.469.802-.87zM2.877 22.472v8.83h2.675c1.07 0 1.806-.47 2.34-1.34.47-.801.67-1.805.67-3.075 0-1.071-.2-2.075-.67-2.877-.534-1.07-1.337-1.538-2.34-1.538zM0 33.775V19.999h5.885c1.873 0 3.277.735 4.347 2.205.87 1.273 1.338 2.81 1.338 4.684 0 1.805-.468 3.41-1.471 4.747-1.07 1.405-2.475 2.14-4.214 2.14zm155.77-8.092l12.237-18.059 6.623-.133-12.642 18.192h-6.219z" fill="#393b8f" fill-rule="evenodd"/></svg>