<svg width="103" height="28" xmlns="http://www.w3.org/2000/svg"><path d="M31.815 14.525c.39-.008.778.004 1.168-.027.715-.056 1.413-.174 2.063-.497.483-.24.873-.583 1.129-1.072.286-.547.347-1.135.327-1.74a2.11 2.11 0 0 0-1.559-1.997 4.126 4.126 0 0 0-1.683-.09 3.024 3.024 0 0 0-1.823.91c-.492.51-.773 1.142-.96 1.82-.221.803-.272 1.628-.3 2.458-.005.164.055.199.196.202.48.01.96.045 1.442.033m-29.58-3.486c-.063-.273-.044-.537-.06-.796-.055-.874-.09-1.75-.135-2.624-.023-.45-.05-.9-.081-1.35-.007-.096.017-.143.112-.18.918-.359 1.87-.585 2.835-.762.866-.159 1.74-.26 2.616-.33a30.353 30.353 0 0 1 3.551-.06c.9.034 1.794.131 2.677.326.95.209 1.857.527 2.67 1.082.887.606 1.523 1.42 1.939 2.418.355.852.534 1.743.636 2.657.1.894.093 1.79.084 2.686-.002.146.043.173.176.172 1.073-.012 2.145.028 3.218.066.126.004.253.011.378.027.105.013.145-.03.154-.13.05-.526.137-1.045.246-1.56.292-1.386.75-2.704 1.546-3.884a7.64 7.64 0 0 1 1.781-1.87c1.06-.79 2.253-1.268 3.524-1.568 1.247-.294 2.514-.399 3.792-.413 1.17-.013 2.334.058 3.485.286 1.073.213 2.1.554 3.038 1.138 1.505.937 2.405 2.285 2.67 4.058.172 1.14.104 2.267-.255 3.365a5.19 5.19 0 0 1-1.771 2.51c-.927.728-1.991 1.151-3.114 1.442-1.011.261-2.041.396-3.082.467-1.507.103-3.015.055-4.523.014-.08-.003-.12-.003-.12.095-.004.887.14 1.743.545 2.537a4.317 4.317 0 0 0 1.86 1.875c.837.449 1.738.645 2.674.714 1.73.127 3.391-.188 5.002-.812.48-.186.946-.41 1.392-.672.1-.06.143-.075.15.08.055 1.146.119 2.29.18 3.436.022.41.041.819.074 1.227.009.114-.063.125-.129.154-.496.22-1.011.38-1.536.512-.973.243-1.96.395-2.957.5a27.347 27.347 0 0 1-3.821.106c-1.24-.045-2.47-.185-3.679-.483-1.14-.281-2.224-.703-3.204-1.369a7.504 7.504 0 0 1-2.187-2.288c-.698-1.13-1.104-2.369-1.365-3.664-.125-.622-.21-1.25-.268-1.88-.01-.105-.045-.123-.136-.127a73.86 73.86 0 0 0-3.217-.089c-.167-.001-.335-.001-.5-.016-.113-.01-.136.034-.138.135-.022.845-.045 1.69-.073 2.535-.034 1.055-.005 2.11.018 3.166.024 1.094.087 2.189.237 3.275.045.326.043.32-.29.327-1.26.026-2.519.055-3.777.141-.888.061-1.777.105-2.666.167a60.427 60.427 0 0 1-3.79.16c-1.591.011-3.162-.112-4.676-.656-.969-.348-1.824-.877-2.503-1.668-.633-.739-1.011-1.609-1.22-2.557a9.796 9.796 0 0 1-.212-2.549c.071-1.615.658-2.987 1.904-4.04.807-.681 1.736-1.126 2.727-1.453.909-.301 1.842-.489 2.788-.617 1.14-.154 2.286-.212 3.435-.226.405-.005.81.015 1.214.011.062 0 .116.01.118-.088.008-.82-.004-1.638-.219-2.437-.151-.563-.403-1.068-.848-1.459-.38-.333-.829-.52-1.31-.634-.752-.178-1.514-.183-2.279-.134-.83.054-1.642.211-2.442.438a14.13 14.13 0 0 0-2.674 1.047c-.057.03-.116.057-.19.093zm66.32 5.906c-.018 1.165.015 2.677.042 4.19.016.962.044 1.925.084 2.887.04.966.073 1.933.167 2.896.009.09-.017.116-.104.115-.238-.004-.475-.001-.713-.001h-6.29c-.189 0-.192 0-.18-.19.094-1.444.12-2.89.16-4.336.055-2.046.057-4.093.057-6.14.001-1.623.004-3.246-.014-4.869a158.293 158.293 0 0 0-.091-3.583c-.025-.75-.072-1.5-.117-2.249-.008-.142.034-.177.174-.175.92.013 1.838-.032 2.755-.095 1.066-.074 2.13-.184 3.195-.288.949-.093 1.898-.18 2.852-.225a31.112 31.112 0 0 1 2.286-.048c1.43.037 2.85.157 4.225.592.88.278 1.69.682 2.388 1.29a5.228 5.228 0 0 1 1.337 1.828c.4.896.59 1.843.678 2.816.093 1.033.056 2.066.04 3.099-.014.928-.006 1.855-.016 2.783-.015 1.321.015 2.642.038 3.963.021 1.234.07 2.469.12 3.702.026.66.074 1.318.124 1.976.01.127-.022.151-.14.15-1.527-.002-3.053-.001-4.579-.001-.798 0-1.596-.003-2.395.002-.127.001-.177-.02-.167-.162.087-1.283.112-2.568.145-3.852.025-.988.027-1.976.05-2.964.037-1.634.031-3.268.012-4.901-.01-.826.007-1.654-.057-2.479-.052-.678-.147-1.35-.437-1.977-.355-.766-.973-1.187-1.786-1.337-1.108-.205-2.2-.09-3.282.187-.107.027-.21.074-.318.092-.121.02-.15.082-.152.196-.032 2.253-.09 4.506-.09 7.108zm34.21-2.348c.012.552-.02 1.248-.042 1.945-.039 1.233-.104 2.466-.133 3.7a65.312 65.312 0 0 0 .009 3.49c.017.568.034 1.136.07 1.704.04.648.093 1.295.203 1.935.018.11-.016.13-.114.13-1.072.01-2.144.036-3.215.093-.889.046-1.777.119-2.666.17-.994.057-1.988.13-2.984.17-.578.024-1.157.033-1.736.038a15.995 15.995 0 0 1-1.913-.1c-.796-.088-1.578-.24-2.34-.494-.863-.288-1.65-.717-2.317-1.353-.858-.82-1.348-1.848-1.586-3.005-.205-.999-.274-2.008-.152-3.024.165-1.37.74-2.523 1.772-3.432.864-.76 1.876-1.23 2.952-1.575.888-.285 1.8-.462 2.723-.579.548-.07 1.1-.124 1.652-.154.683-.038 1.368-.047 2.052-.06.271-.006.543.01.815.017.067.002.114.001.114-.092.003-.836-.017-1.668-.237-2.482-.303-1.123-1.025-1.792-2.135-2.046-.745-.17-1.496-.182-2.252-.134-.82.053-1.622.21-2.413.433-.94.266-1.849.614-2.717 1.069-.179.093-.174.092-.185-.11-.044-.839-.093-1.677-.138-2.516-.025-.455-.047-.91-.07-1.365-.01-.22-.014-.44-.034-.66-.012-.134.033-.197.158-.244.799-.302 1.62-.517 2.455-.679a26.382 26.382 0 0 1 3.214-.406 29.933 29.933 0 0 1 3.185-.045c1.163.044 2.316.179 3.438.515 1.033.309 1.973.788 2.738 1.575.573.591.975 1.295 1.252 2.075.287.807.438 1.643.516 2.496.086.95.094 1.902.06 3zM95.816 20.4V18.28c0-.305.002-.302-.308-.31a14.042 14.042 0 0 0-1.689.057c-.672.064-1.332.195-1.94.518-.636.339-1.076.842-1.251 1.564a3.908 3.908 0 0 0-.027 1.643c.081.447.251.849.576 1.173.414.413.937.578 1.488.672.609.105 1.222.106 1.836.059.42-.033.84-.085 1.251-.185.063-.015.121-.02.114-.122-.072-.981-.055-1.965-.05-2.948zm-83.747.438c.004-1.048.006-1.791.023-2.534.009-.373.089-.31-.313-.331-.536-.028-1.072.005-1.606.047-.648.05-1.283.17-1.878.442-.606.276-1.084.694-1.327 1.338-.245.65-.243 1.32-.115 1.994.15.787.588 1.33 1.334 1.61.45.168.918.234 1.395.261a9.158 9.158 0 0 0 2.41-.186c.113-.024.148-.065.141-.182a38.627 38.627 0 0 1-.064-2.459zm34.59-4.799l.065-4.667c.003-.228.006-.457.022-.685.008-.124-.023-.163-.155-.162-.725.007-1.451 0-2.177.006-.133.001-.17-.031-.17-.169.006-1.119.005-2.237-.001-3.356 0-.129.037-.174.162-.195.893-.157 1.749-.422 2.524-.913a4.751 4.751 0 0 0 1.606-1.713c.543-.96.817-2.012 1.012-3.087.06-.329.107-.66.154-.991.012-.084.048-.108.129-.108 1.31.002 2.619.003 3.928 0 .097 0 .103.038.096.12a83.358 83.358 0 0 0-.255 4.61c-.01.324-.003.65-.013.975-.004.132.08.102.15.102h3.593c.163 0 .326.008.487-.002.12-.008.143.037.142.147-.005.681-.002 1.362-.002 2.042 0 .792-.005 1.584.004 2.376.001.148-.05.162-.173.162-1.366-.004-2.731 0-4.096-.006-.144 0-.183.028-.182.181.007 1.811.005 3.623.004 5.434 0 1.233-.02 2.467.02 3.7.02.579.082 1.153.247 1.712.257.869.823 1.383 1.723 1.52.874.134 1.728.08 2.55-.269a1.84 1.84 0 0 0 .215-.11c.074-.044.102-.038.108.058.025.446.058.892.086 1.338.05.77.098 1.541.146 2.312.02.329.037.659.061.988.007.086-.03.117-.105.136-.65.161-1.31.261-1.974.336a22.58 22.58 0 0 1-2.368.137c-1.386.01-2.756-.102-4.06-.625-1.602-.643-2.64-1.81-3.144-3.46a8.716 8.716 0 0 1-.337-1.806c-.1-1.152-.039-2.306-.046-3.46-.006-.87-.001-1.738-.001-2.608h.026z" fill="#744593" fill-rule="evenodd"/></svg>