<svg width="133" height="28" xmlns="http://www.w3.org/2000/svg"><path d="M43.986 23.641c2.68-.478 3.748-3.567 2.997-7.77-.743-4.15-2.823-6.728-5.504-6.25-2.625.468-3.738 3.619-2.996 7.77.751 4.205 2.821 6.729 5.503 6.25zM42.76 7.546c5.289 0 9.174 3.86 9.176 9.117 0 5.254-3.887 9.114-9.176 9.114-5.29 0-9.176-3.86-9.176-9.114 0-5.257 3.887-9.117 9.176-9.117zm82.145 16.095c2.68-.478 3.747-3.567 2.997-7.77-.743-4.15-2.823-6.728-5.504-6.25-2.624.468-3.737 3.619-2.996 7.77.753 4.205 2.822 6.729 5.503 6.25zM123.68 7.546c5.289 0 9.175 3.86 9.175 9.117 0 5.254-3.887 9.114-9.175 9.114-5.291 0-9.177-3.86-9.177-9.114 0-5.257 3.887-9.117 9.177-9.117zm-27.926 4.578c-.47-1.29-1.457-1.853-2.713-1.853-1.044 0-2.288.628-2.971 1.928-.406.766-.594 1.769-.594 3.012v6.323c0 2.184 1.208 2.652 2.164 2.652v1.23h-8.85v-1.23c.927 0 2.164-.478 2.164-2.64V11.78c0-2.164-1.233-2.63-2.164-2.63V7.938h6.436c0 .423.064 2.687.064 2.687.581-1.189 2.324-3.093 5.539-3.093 2 0 5.742 1.056 5.742 5.634v8.368c0 2.184 1.21 2.652 2.165 2.652v1.23h-6.686V14.25c0-.857-.091-1.56-.296-2.125zm16.74 13.292h-2.686c-2.965 0-4-1.087-4-3.803V9.786l-2.323-.01V8.552c2.008 0 4.492-1.925 4.492-4.57h2.356V7.96h2.521v1.833h-2.521l-.003 11.74c0 2.186 1.208 2.654 2.164 2.654v1.229zM65.843 2.915v18.422c0 2.189 1.212 2.655 2.164 2.655v1.424h-9.079v-1.424c.932 0 2.165-.466 2.165-2.656V2.909h-2.216c-2.637 0-3.604.68-3.604 2.671H53.71L53.713.43h19.314l-.004 5.151h-1.485c0-2.023-.937-2.667-3.574-2.667l-2.121.002zM6.914 2.907v18.436c0 2.182 1.211 2.651 2.164 2.651v1.423H0v-1.423c.933 0 2.164-.466 2.164-2.657V4.505C2.164 2.32.954 1.853 0 1.853V.428h11.293c6.897 0 8.515 3.646 8.515 6.497 0 3.238-2.318 5.399-5.551 5.995 3.431.218 5.434 8.97 7.934 12.18.336.431 1.209 1.215 2.153 1.215.02.002.09.002.109.002v1.441h-2.68c-1.97 0-3.966-.867-4.85-2.067-2.939-3.99-4.07-12.208-7.652-12.467a7.842 7.842 0 0 0-.318-.007v-1.493l.308-.001c4.452-.063 5.253-2.438 5.253-4.425 0-2.297-.823-4.397-4.884-4.397-.645 0-2.716.006-2.716.006zm72.324 1.25c0 1.153-1.095 2.084-2.447 2.084-1.351 0-2.45-.931-2.45-2.084 0-1.152 1.099-2.086 2.45-2.086 1.352 0 2.447.934 2.447 2.086zm2.199 21.259h-8.85v-1.229c.931 0 2.163-.467 2.163-2.658v-9.75c0-2.164-1.23-2.63-2.163-2.63v-1.21h6.686v13.594c0 2.186 1.21 2.654 2.164 2.654v1.229zm-56.447 0V11.779c0-2.164-1.232-2.63-2.165-2.63v-1.21h6.686v13.594c0 2.187 1.211 2.654 2.164 2.654v1.229H24.99zm4.57-21.26c0 1.154-1.098 2.085-2.45 2.085-1.35 0-2.447-.931-2.447-2.084 0-1.152 1.098-2.086 2.448-2.086 1.351 0 2.448.934 2.448 2.086z" fill="#EE333E" fill-rule="evenodd"/></svg>