<?xml version="1.0" encoding="UTF-8"?>
<svg width="67px" height="72px" viewBox="0 0 67 72" version="1.1" xmlns="http://www.w3.org/2000/svg" xmlns:xlink="http://www.w3.org/1999/xlink">
    <!-- Generator: Sketch 52.5 (67469) - http://www.bohemiancoding.com/sketch -->
    <title>logo-aia</title>
    <desc>Created with Sketch.</desc>
    <g id="V2" stroke="none" stroke-width="1" fill="none" fill-rule="evenodd">
        <g id="home" transform="translate(-969.000000, -874.000000)" fill="#C22E49">
            <g id="logos" transform="translate(0.000000, 720.000000)">
                <g transform="translate(405.000000, 154.000000)" id="logo-aia">
                    <path d="M599.433394,72 L595.108772,72 C595.108772,71.8081492 595.108772,71.6350752 595.108772,71.4615931 C595.108772,64.510062 595.114858,57.5581227 595.097004,50.6065916 C595.095381,50.1012483 595.23537,49.9669528 595.719445,49.9820559 C596.789036,50.0147114 597.860657,50.0053229 598.931059,49.9845051 C599.318157,49.9771576 599.466261,50.0771649 599.465449,50.5000532 C599.453682,57.5168952 599.457334,64.5341454 599.456523,71.5509874 C599.456523,71.6803847 599.443538,71.8097819 599.433394,72 Z M587.049344,71.4268967 C585.961493,71.0778914 584.915841,70.7435812 583.870596,70.4068217 C582.822916,70.0696541 582.831031,70.0700623 583.011595,68.9761044 C583.239634,67.5955948 583.44495,66.2110033 583.680293,64.8317183 C583.731013,64.5341454 583.631601,64.4320971 583.366638,64.349642 C580.541716,63.4683528 578.010972,62.0445747 575.76061,60.1195354 C575.503356,59.8995192 575.347543,59.924419 575.10936,60.1366795 C573.94482,61.1759395 572.765267,62.1984636 571.590177,63.225886 C571.470071,63.3311999 571.343879,63.4295745 571.189283,63.5569307 C570.067754,62.596452 568.96205,61.6498519 567.814146,60.6665143 C568.707231,59.9093158 569.552841,59.1802827 570.411841,58.4675773 C574.215464,55.3126516 578.020304,52.1581341 581.832448,49.0130051 C582.63099,48.3541812 583.511495,47.8149579 584.571754,47.7443405 C585.061105,47.7120932 585.589408,47.739034 586.049138,47.8925147 C587.454701,48.3623451 588.683351,49.09097 589.262375,50.5788345 C589.642169,51.5540081 589.591043,52.5740831 589.473778,53.5749729 C589.156877,56.2906826 588.801023,59.0023104 588.436647,61.7123054 C588.115689,64.0994196 587.763486,66.4824518 587.423051,68.8671168 C587.304163,69.701872 587.179593,70.536219 587.049344,71.4268967 Z M626.581214,60.7105992 C625.436557,61.6914876 624.340591,62.6303321 623.205266,63.6030566 C622.75568,63.2075173 622.320702,62.8258566 621.886942,62.4429714 C621.008465,61.6686288 620.125524,60.9000009 619.256786,60.1150452 C619.035645,59.9150305 618.893222,59.8901308 618.649764,60.1036158 C616.41969,62.0609025 613.86176,63.4369219 611.058749,64.3602551 C610.764165,64.4569969 610.679361,64.5647599 610.730081,64.8721294 C610.990581,66.4453062 611.229169,68.0217486 611.478714,69.5965581 C611.514421,69.822289 611.606935,70.0570001 611.289222,70.1586402 C609.983883,70.5770383 608.678137,70.9958446 607.326946,71.4289376 C607.144353,70.1517009 606.967034,68.9320195 606.796208,67.7115217 C606.449281,65.2297067 606.083688,62.7499327 605.768005,60.2640358 C605.435685,57.6483334 605.059542,55.0330392 604.875326,52.4050911 C604.694761,49.8330654 606.399372,48.3839793 608.71709,47.7904663 C610.109263,47.4341136 611.315597,48.0043596 612.366118,48.852177 C615.0474,51.0164176 617.701902,53.2137219 620.350723,55.4183737 C622.2501,56.9988979 624.12229,58.6124859 626.006248,60.2113788 C626.178698,60.3579202 626.347495,60.507319 626.581214,60.7105992 Z M615.905507,57.0820877 C615.716828,56.9657526 615.579274,56.90534 615.470935,56.8106392 C614.004913,55.5272796 612.545384,54.2357562 611.077739,52.9540294 C610.71174,52.634414 610.345742,52.3041857 609.937545,52.0470239 C609.36623,51.6861811 608.902443,51.956405 608.891487,52.6278829 C608.886212,52.951172 608.911776,53.278543 608.958438,53.5985665 C609.123178,54.7243635 609.301308,55.8481195 609.477409,56.9722837 C609.650264,58.0764465 609.827177,59.1797929 610.014639,60.3606959 C612.27474,59.8386168 614.153828,58.7569046 615.905507,57.0820877 Z M578.559482,57.1280503 C580.228386,58.7436792 582.12411,59.8066144 584.339982,60.3601245 C584.397195,60.1417411 584.445481,60.0041799 584.468204,59.8621287 C584.739659,58.1583301 585.011115,56.4545314 585.274049,54.7491 C585.37833,54.0739484 585.508174,53.3979803 585.541041,52.7179304 C585.57756,51.9603237 585.071573,51.6815277 584.430873,52.0627802 C584.209327,52.1946266 584.003605,52.3595367 583.808027,52.5293451 C582.60494,53.574728 581.40591,54.6254174 580.206474,55.6756987 C579.670867,56.1447127 579.138506,56.6174005 578.559482,57.1280503 Z M566.274275,40.2899153 C567.976451,39.5167973 569.781285,39.0947255 571.313041,38.0330148 C572.24589,37.3864367 573.30128,37.1341733 574.44188,37.1435617 C575.216076,37.1496846 576.015835,37.1353978 576.76041,36.9513027 C577.662015,36.7284292 578.533594,36.3549323 579.388131,35.9769454 C580.21183,35.6124288 580.973448,35.0976971 582.032083,34.9805457 C581.819058,35.2732202 581.682721,35.503033 581.506214,35.695292 C580.646808,36.6292382 579.765897,37.5435911 578.916635,38.4865175 C578.636658,38.7971526 578.401721,39.1584036 578.195188,39.5241448 C577.996364,39.8776401 578.111195,40.1809277 578.522233,40.2621582 C578.817223,40.3201216 579.133312,40.3201216 579.433983,40.2890989 C579.996776,40.2311355 580.553077,40.0903088 581.116276,40.0588779 C581.922933,40.0131603 582.395647,40.6107552 582.967367,41.068748 C582.88378,41.1275279 582.859434,41.1593669 582.834683,41.1597751 C580.455694,41.2201877 578.282427,42.1231112 576.120927,42.9566418 C574.451618,43.6003626 572.806655,43.7056765 571.117869,43.3587122 C569.836875,43.0958357 568.587125,42.6790704 567.323173,42.331698 C567.124349,42.2770001 566.924308,42.2263841 566.620391,42.1467864 C567.595846,46.2997446 569.334946,49.9873624 571.796305,53.4023072 C571.524038,53.6398757 571.261103,53.8696885 570.996951,54.0999095 C562.47187,43.7264943 560.342831,24.9108263 572.570095,11.1445088 C584.993748,-2.84345758 606.611992,-3.80148715 620.23508,9.05047743 C633.970565,22.0085723 633.542485,42.1059671 623.772928,54.2603294 C623.501879,54.0403132 623.230423,53.8202971 622.932593,53.5786467 C625.437774,50.1522725 627.210553,46.4152633 628.23267,42.1545421 C627.823255,42.3941515 627.518933,42.5778385 627.209336,42.7517288 C626.616922,43.0844063 626.030188,43.4289214 625.421949,43.7285353 C625.258021,43.8093575 624.958974,43.8248689 624.842114,43.7260861 C624.738644,43.6383246 624.786524,43.3501401 624.796263,43.1521664 C624.803567,43.007666 624.892429,42.8631656 624.881879,42.7239717 C624.864431,42.4941589 624.86646,42.1508683 624.732152,42.0692297 C624.535763,41.9504455 624.160026,41.915749 623.977839,42.0316759 C623.518515,42.3239423 623.080291,42.6790704 622.713481,43.0827735 C621.69461,44.2040804 620.489088,44.7347316 618.952869,44.6371735 C617.788735,44.5636987 616.625412,44.7351398 615.419079,45.2115014 C615.521737,44.9131121 615.57408,44.5820674 615.739632,44.3253138 C615.957526,43.9873298 616.226141,43.658326 616.539796,43.4113691 C618.122678,42.1667879 618.225336,40.5727932 617.729088,38.7828658 C617.422737,37.6766621 616.675321,37.1084571 615.646306,36.8145579 C615.493739,36.7708813 615.325753,36.7586355 615.166288,36.763942 C614.720355,36.7794533 614.543442,37.0108989 614.68059,37.4423592 C614.798667,37.8134068 614.98126,38.1628203 615.113945,38.529786 C615.158579,38.6534686 615.136668,38.8012345 615.145189,38.9379793 C615.009664,38.9404284 614.854662,38.9873706 614.741454,38.9379793 C614.082089,38.6493866 613.436115,38.3914085 612.682207,38.5987707 C612.491093,38.6514276 612.196914,38.5142747 612.013915,38.3779381 C610.541807,37.2827556 609.2458,35.9989878 608.319037,34.4062178 C608.00457,33.8657699 607.90597,33.1759233 607.801689,32.5391418 C607.656832,31.6529543 607.353321,30.8463644 606.888722,30.0867167 C606.263847,29.0646008 605.77896,27.9926854 605.693344,26.7664728 C605.61422,25.632512 604.953232,24.8144927 604.166864,24.0711728 C603.647081,23.5797081 603.136631,23.076814 602.650933,22.5522857 C602.514191,22.4049279 602.479295,22.1620529 602.397737,21.9632628 C602.60711,21.9334647 602.816078,21.8922372 603.026669,21.8775422 C603.154079,21.868562 603.284735,21.917137 603.41255,21.9114223 C604.050004,21.8832569 604.616043,22.050208 605.146781,22.4228884 C605.498172,22.6698453 605.91205,22.8274079 606.34784,22.9763985 C606.2253,22.4204393 605.989957,21.9240763 605.531039,21.6171149 C604.803912,21.1305486 604.030527,20.7141915 603.283923,20.2566068 C602.883029,20.0108745 602.453732,19.7863682 602.118166,19.4667529 C601.855231,19.2165304 601.710374,18.8377271 601.524535,18.5095397 C601.365881,18.2295191 601.26931,17.9005154 601.065211,17.6629469 C600.673649,17.2078114 600.237454,16.7885969 599.796796,16.3795873 C599.393873,16.0060905 598.919942,16.0603802 598.570174,16.4963306 C598.376625,16.7371646 598.177395,16.9804478 598.028886,17.2494471 C597.414155,18.3621819 596.532026,19.1789766 595.468115,19.8659659 C594.229321,20.6656165 593.023393,21.5322107 591.886851,22.4710552 C591.299711,22.9559888 590.896383,23.6642041 590.403381,24.2662891 C590.159923,24.5634538 589.955418,24.9406244 589.642169,25.1251278 C587.136988,26.6011546 585.207991,28.7792738 582.981569,30.5928764 C581.660404,31.669282 580.312865,32.7134403 578.95153,33.7380054 C578.609472,33.9951671 578.180986,34.1519134 577.772383,34.2992711 C576.509648,34.7556312 575.237987,35.1870914 573.96876,35.6246746 C573.632383,35.7406015 573.296816,35.8659168 572.951512,35.9459227 C572.566443,36.035317 572.427266,35.8544874 572.578616,35.4834397 C572.645567,35.3193461 572.736458,35.1601507 572.840333,35.0164667 C573.126802,34.6209274 573.376752,34.1813033 573.728954,33.8543405 C574.729972,32.9236599 574.833847,31.739083 574.747014,30.4965428 C574.734435,30.3116312 574.571724,30.0369172 574.415099,29.9805865 C573.80118,29.7589376 573.685537,29.2670647 573.583285,28.7176366 C573.512682,28.3388332 573.470077,27.8220606 573.21891,27.63919 C572.805032,27.3375352 572.390748,27.7649135 572.073441,28.0388112 C569.261097,30.4655201 566.978274,33.2502145 566.294564,37.053351 C566.105478,38.1040404 565.914364,39.1730986 566.274275,40.2899153 Z M608.374626,42.0982114 C607.99118,42.162706 607.673062,42.1978106 607.364682,42.2721017 C606.674479,42.4382364 605.984682,42.6076366 605.303406,42.8060185 C604.024441,43.1782908 602.752779,43.3391189 601.428774,42.9933792 C600.614408,42.7807105 599.832908,42.9917465 599.253885,43.6432229 C598.780359,44.1759151 598.182264,44.3465399 597.522899,44.4000132 C595.732267,44.5457382 593.965169,44.2983731 592.198882,44.0571308 C591.735501,43.9938609 591.264004,43.9395712 590.820505,43.8024183 C590.596118,43.7330254 590.425292,43.4872931 590.230526,43.3215666 C590.426104,43.1729843 590.602205,42.9407223 590.820505,42.8896981 C591.796771,42.6619263 592.784398,42.4843622 593.76878,42.2921032 C594.181846,42.2116891 594.601,42.1598486 595.009197,42.0606576 C595.801653,41.867174 596.450062,41.4410203 597.016913,40.842609 C597.525334,40.3058348 598.105575,39.8376372 598.656196,39.3420906 C598.752361,39.2551454 598.861512,39.1828952 598.962952,39.1016647 C599.289186,38.8400129 599.5014,38.5261123 599.365469,38.0852635 C599.228321,37.6407411 598.745058,37.2121382 598.316978,37.2778573 C597.376825,37.4219495 597.146351,37.1684615 596.917501,36.1422637 C596.695954,35.1483131 596.159536,34.4070341 595.444987,33.7326989 C594.464663,32.807733 593.455936,31.9007276 592.57259,30.8863673 C591.552502,29.7152609 590.347386,29.0392929 588.808326,28.9176513 C588.439893,28.8882614 588.080793,28.7339643 587.71723,28.6368143 C587.710737,28.5808918 587.704245,28.5253776 587.698159,28.4694551 C587.883998,28.3343431 588.053607,28.160861 588.259329,28.072283 C588.674425,27.8934944 589.11062,27.7640971 589.535859,27.6081673 C590.112043,27.3971314 590.733266,27.2599785 591.251831,26.9501598 C592.599371,26.1435699 593.916477,25.2826903 595.214919,24.3973192 C595.776901,24.0140257 596.327521,23.7511493 597.019753,23.864627 C597.451079,23.9352444 597.500988,24.0470894 597.262805,24.4352812 C597.102529,24.696933 596.924805,24.9638914 596.839189,25.2537086 C596.59776,26.0684624 596.094613,26.6595262 595.381282,27.0738423 C593.733072,28.0310555 593.871438,29.3389067 594.637113,30.6520644 C595.274972,31.7460223 596.256513,32.5097519 597.255096,33.2416424 C597.976137,33.7698445 598.711785,34.2776369 599.449868,34.7809392 C600.594931,35.5618129 601.336666,36.6316874 601.794367,37.9354566 C601.964787,38.4212066 602.211897,38.8914452 602.493091,39.3233137 C603.229145,40.4536008 604.271956,41.0316024 605.639378,41.0311943 C606.185129,41.0307861 606.733721,41.1283442 607.276632,41.2128403 C607.75462,41.2875396 608.089375,41.5826633 608.374626,42.0982114 Z M565.801156,32.8530016 C565.997951,32.7913644 566.051511,32.7889153 566.084378,32.7615663 C566.208948,32.657477 566.331082,32.549714 566.446319,32.4354199 C568.142408,30.7467244 569.884755,29.123748 571.881515,27.7775267 C572.609454,27.2864702 573.16048,27.1827891 573.834858,27.7081338 C573.988237,27.8273263 574.157034,27.9269254 574.316905,28.0375458 C575.898975,29.1319119 577.378387,30.4018011 579.361757,30.7728488 C579.776041,30.8504055 580.036541,30.8181582 580.364803,30.5740587 C582.888649,28.6955533 585.144286,26.4447757 587.987062,25.0079355 C588.217941,24.8911922 588.439893,24.7503655 588.646833,24.5944357 C588.7994,24.4797334 588.925592,24.3270691 589.05503,24.1837933 C589.640952,23.5363988 590.138012,22.7677709 590.826998,22.2640604 C592.015072,21.3954252 593.298906,20.6496561 594.585175,19.9287868 C596.074325,19.0940316 597.381694,18.0980401 598.176989,16.5338435 C598.26504,16.3607696 598.361206,16.1587139 598.511744,16.0599312 C598.717872,15.924411 598.997848,15.7692976 599.214931,15.8064432 C600.119377,15.960332 600.932526,16.3350534 601.66858,16.9130551 C602.279254,17.3926821 602.917113,17.873942 603.61462,18.1984556 C605.450292,19.0528041 607.311121,19.8569448 609.187776,20.6157761 C611.047793,21.367668 612.501642,22.5110173 613.246218,24.4405468 C613.589899,25.3308163 614.147417,26.0708707 614.910658,26.6272381 C615.736385,27.228915 616.58159,27.8081412 617.449923,28.3445071 C618.746741,29.1457905 620.120249,29.8307388 621.368377,30.6997822 C622.26633,31.3255425 622.988994,32.1998924 623.83217,32.9125978 C625.069341,33.9579807 626.64776,34.0616618 628.044396,33.2689505 C628.694834,32.8999438 629.009301,32.4386855 628.903802,31.6153597 C628.430277,27.9293746 627.452793,24.4029931 625.768065,21.088872 C622.696845,15.0476119 618.170964,10.4321708 612.192451,7.30459407 C606.069081,4.10150161 599.564293,3.0312189 592.729215,4.02925141 C587.392619,4.80849233 582.55146,6.81394578 578.258487,10.0892884 C571.972,14.885151 567.992682,21.1798991 566.38586,28.9616953 C566.127389,30.2140322 566.001603,31.4945345 565.801156,32.8530016 Z"></path>
                </g>
            </g>
        </g>
    </g>
</svg>