<svg height="31" width="140" xmlns="http://www.w3.org/2000/svg"><g fill="none" fill-rule="evenodd"><path d="M135.884 17.708v-.74c-.246.125-.37.125-.862.248l-.492.122c-.615.124-.983.246-.983.74 0 .49.368.861.983.861.863-.124 1.354-.492 1.354-1.23zm1.355.739c0 .368 0 .492.368.492h.123v.86h-.615c-.491 0-.985-.122-.985-.615-.246.246-.737.615-1.723.615-1.108 0-2.091-.615-2.091-1.846 0-.491.122-.737.368-.985.369-.49.984-.615 1.723-.86l1.354-.246c.369 0 .369-.124.369-.246v-.123c0-.493-.37-.739-1.108-.739s-1.23.368-1.23.984l-1.354-.122c0-1.477 1.109-1.97 2.584-1.97 1.354 0 2.339.493 2.339 1.724-.122.368-.122 3.077-.122 3.077zm-5.909 1.23h-1.354v-2.953c0-.493 0-.862-.122-1.108-.124-.37-.493-.739-.986-.739-.86 0-1.353.739-1.353 1.6v3.2h-1.353V13.77h1.353v.737c.246-.491.984-.86 1.846-.86.615 0 1.23.245 1.6.738.246.37.369.862.369 1.968zm-8.985-.984c.862 0 1.6-.74 1.6-1.846 0-1.231-.615-1.847-1.6-1.847-.984 0-1.6.738-1.6 1.847 0 1.106.739 1.846 1.6 1.846zm0-4.923c1.847 0 2.954 1.23 2.954 3.077 0 1.846-1.107 3.077-2.954 3.077-1.846 0-2.952-1.231-2.952-3.077 0-1.847 1.23-3.077 2.952-3.077zm-4.923 5.907h1.355V13.77h-1.355zm0-6.892h1.355v-1.477h-1.355zm-1.477 7.014c-.245 0-.615.125-1.107.125-.616 0-1.108-.125-1.477-.494-.246-.246-.246-.615-.246-1.23V15h-1.231v-1.108h1.23V11.8l1.356-.246v2.338h1.352V15h-1.352v2.953c0 .37 0 .494.122.615.123.125.369.125.615.125h.615v1.106zm-5.907-2.09v-.74c-.246.124-.37.124-.862.247l-.492.122c-.616.124-.984.246-.984.74 0 .49.368.861.984.861.863-.124 1.354-.492 1.354-1.23zm1.355.738c0 .368 0 .492.368.492h.123v.86h-.616c-.49 0-.984-.122-.984-.615-.246.246-.737.615-1.723.615-1.108 0-2.091-.615-2.091-1.846 0-.491.122-.737.368-.985.369-.49.984-.615 1.723-.86l1.354-.246c.369 0 .369-.124.369-.246v-.123c0-.493-.37-.739-1.108-.739s-1.23.368-1.23.984l-1.354-.122c0-1.477 1.108-1.97 2.584-1.97 1.354 0 2.339.493 2.339 1.724-.122.368-.122 3.077-.122 3.077zm-5.91 1.23h-1.353v-2.953c0-.493 0-.862-.122-1.108-.124-.37-.493-.739-.986-.739-.86 0-1.354.739-1.354 1.6v3.2h-1.352V13.77h1.352v.737c.247-.491.985-.86 1.847-.86.615 0 1.23.245 1.6.738.246.37.369.862.369 1.968v3.324zm-8-5.785v.862c.124-.247.616-.984 1.724-.984h.246v1.477h-.368c-.74 0-1.23.246-1.355.861-.123.245-.123.616-.123 1.108v2.583h-1.354v-5.907zm-6.645 2.216h2.83c0-.738-.615-1.23-1.352-1.23-.863 0-1.478.615-1.478 1.23zm4.184 2.339c-.245.368-1.107 1.477-2.706 1.477-1.724 0-2.955-1.231-2.955-3.077 0-1.847 1.23-3.077 2.83-3.077 1.847 0 2.831 1.352 2.831 3.077v.369h-4.307c.123.861.615 1.477 1.6 1.477 1.107 0 1.477-.74 1.723-.985zm-6.398 1.352c-.248 0-.616.125-1.11.125-.615 0-1.107-.125-1.476-.494-.246-.246-.246-.615-.246-1.23V15H84.56v-1.108h1.23V11.8l1.354-.246v2.338H88.5V15h-1.354v2.953c0 .37 0 .494.123.615.125.125.37.125.616.125h.615v1.106h.125zm-4.432-.122h-1.354v-2.953c0-.493 0-.862-.123-1.108-.123-.37-.493-.739-.985-.739-.862 0-1.354.739-1.354 1.6v3.2h-1.354V13.77h1.354v.737c.248-.491.985-.86 1.846-.86.616 0 1.231.245 1.6.738.246.37.37.862.37 1.968zm-8.247 0h1.477v-8.369h-1.477v8.37zm32.247 10.954h1.355v-8.37h-1.355zm-3.816-1.107c.863 0 1.6-.739 1.6-1.847 0-1.23-.615-1.846-1.6-1.846-.983 0-1.477.737-1.477 1.846 0 1.108.616 1.847 1.477 1.847zm0-4.924c1.846 0 2.954 1.231 2.954 3.077 0 1.847-1.108 3.077-2.954 3.077s-2.954-1.23-2.954-3.077c0-1.846 1.231-3.077 2.954-3.077zm-6.522 4.924c.86 0 1.599-.739 1.599-1.847 0-1.23-.615-1.846-1.599-1.846-.986 0-1.601.737-1.601 1.846 0 1.108.739 1.847 1.601 1.847zm0-4.924c1.846 0 2.953 1.231 2.953 3.077 0 1.847-1.107 3.077-2.953 3.077s-2.955-1.23-2.955-3.077c.123-1.846 1.231-3.077 2.955-3.077zm-3.57 6.031H92.93v-2.954c0-.493 0-.862-.124-1.109-.123-.369-.491-.737-.985-.737-.861 0-1.352.737-1.352 1.599v3.201h-1.355v-8.37h1.355v3.323c.245-.491.983-.862 1.846-.862.615 0 1.23.246 1.599.74.247.37.369.862.369 1.968v3.201zm-7.262-3.692c-.245-.615-.615-1.108-1.354-1.108-.984 0-1.476.737-1.476 1.846 0 1.108.615 1.847 1.476 1.847.862 0 1.231-.494 1.354-.985l1.108.615c-.246.616-1.108 1.6-2.583 1.6-1.725 0-2.832-1.109-2.832-3.077 0-1.969 1.23-3.077 2.832-3.077 1.352 0 2.214.738 2.583 1.6zm-6.277-2.586c-.492-.615-1.23-.983-2.215-.983-.983 0-1.599.492-1.599 1.107 0 .616.368.86 1.353 1.107l.984.247c1.6.368 2.708.862 2.708 2.339 0 1.6-1.23 2.584-3.323 2.584-1.846 0-3.077-.862-3.692-1.724l1.23-.86c.37.615 1.356 1.23 2.462 1.23 1.108 0 1.723-.492 1.723-1.107 0-.616-.615-.863-1.477-1.11l-1.107-.244c-1.354-.246-2.462-.862-2.462-2.462 0-1.477 1.354-2.461 3.2-2.461 1.723 0 2.709.86 3.2 1.354zM122.47 8.847h-1.355V5.892c0-.492 0-.86-.123-1.107-.124-.37-.493-.74-.984-.74-.863 0-1.355.74-1.355 1.602v3.2h-1.354V2.939h1.354v.738c.246-.492.985-.862 1.846-.862.616 0 1.231.247 1.6.74.246.369.37.86.37 1.969v3.323zm-8-2.093v-.738c-.248.123-.37.123-.863.246l-.492.123c-.616.122-.985.246-.985.737 0 .494.37.863.985.863.74 0 1.355-.492 1.355-1.23zm1.352.739c0 .369 0 .492.37.492h.124v.983h-.616c-.493 0-.985-.121-.985-.615-.245.247-.739.615-1.723.615-1.108 0-2.093-.615-2.093-1.846 0-.49.123-.737.37-.983.369-.492.984-.615 1.723-.863l1.107-.245c.246 0 .37-.123.37-.246v-.124c0-.491-.37-.737-1.108-.737-.737 0-1.231.369-1.231.984l-1.353-.123c0-1.477 1.107-1.97 2.584-1.97 1.354 0 2.34.493 2.34 1.724.121.246.121 2.954.121 2.954zm-7.384 1.354h1.354V2.939h-1.354zm0-7.016h1.354V.477h-1.354zm-3.939 2.214c-.861 0-1.477.74-1.477 1.847 0 1.108.616 1.846 1.477 1.846.862 0 1.477-.738 1.477-1.846 0-1.107-.615-1.847-1.477-1.847zm-2.952 1.847c0-1.847.983-3.077 2.583-3.077.738 0 1.354.37 1.724.74V.476h1.353v8.37h-1.353V8.23c-.37.493-.986.737-1.724.737-1.477 0-2.583-1.23-2.583-3.076zm-2.217.862v-.738c-.123.123-.37.123-.738.246l-.616.123c-.615.122-.984.246-.984.737 0 .494.369.863.984.863.862 0 1.354-.492 1.354-1.23zm1.354.739c0 .369 0 .492.369.492h.123v.983h-.615c-.493 0-.985-.121-.985-.615-.246.247-.738.615-1.722.615-1.109 0-2.093-.615-2.093-1.846 0-.49.123-.737.369-.983.37-.492.985-.615 1.724-.863l1.107-.245c.246 0 .369-.123.369-.246v-.124c0-.491-.37-.737-1.108-.737s-1.23.369-1.23.984l-1.354-.123c0-1.477 1.107-1.97 2.584-1.97 1.354 0 2.339.493 2.339 1.724.123.246.123 2.954.123 2.954zm-5.907 1.354h-1.355V5.892c0-.492 0-.86-.123-1.107-.123-.37-.492-.74-.983-.74-.863 0-1.355.74-1.355 1.602v3.2h-1.354V2.939h1.354v.738c.246-.492.984-.862 1.846-.862.615 0 1.23.247 1.6.74.246.369.37.86.37 1.969zm-8-2.093v-.738c-.247.123-.37.123-.862.246l-.493.123c-.615.122-.984.246-.984.737 0 .494.369.863.984.863.74 0 1.355-.492 1.355-1.23zm1.353.739c0 .369 0 .492.37.492h.124v.983h-.616c-.493 0-.986-.121-.986-.615-.245.247-.738.615-1.723.615-1.107 0-2.092-.615-2.092-1.846 0-.49.123-.737.37-.983.368-.492.984-.615 1.722-.863l1.108-.245c.37 0 .37-.123.37-.246v-.124c0-.491-.37-.737-1.109-.737-.737 0-1.23.369-1.23.984h-1.231c0-1.478 1.109-1.969 2.585-1.969 1.353 0 2.338.491 2.338 1.722zm-5.66-.616c-.37.739-1.355 2.091-3.448 2.091-2.584 0-3.937-1.846-3.937-4.307 0-2.584 1.599-4.308 3.937-4.308 1.97 0 2.954 1.23 3.323 1.97l-1.353.862c-.368-.861-1.108-1.354-2.093-1.354-1.477 0-2.338 1.231-2.338 2.954 0 1.846.861 2.953 2.338 2.953.985 0 1.6-.491 1.97-1.353l1.6.492zm55.999 12.8v-8.369h1.354v8.37h-1.354z" fill="#0f0b09"/><path d="M19.084 29.892c-1.477.616-3.2.985-4.8.985-3.815.123-7.63-1.476-10.215-4.308C1.36 23.492-.116 19.555.007 15.37c0-4.43 1.108-7.63 4.062-10.708 3.2-3.2 7.63-4.8 12.184-4.307v.369h-.123c-4.061 0-6.892 3.446-6.523 14.77.123 6.03.985 9.722 2.708 11.938 1.23 1.6 3.077 2.461 5.046 2.461.615 0 1.23 0 1.846-.246l-.123.246zm20.554.74h-9.846v-.371l1.477-.37c.246-.121.246-.246.246-.246V1.708c0-.246 0-.369-.246-.369l-1.477-.37V.6h9.846v.368l-1.477.371c-.246.123-.246.123-.246.245v27.94c0 .246 0 .246.246.368l1.477.369v.37zM62.9 1.583a3.573 3.573 0 0 1 3.569 3.57c0 1.968-1.6 3.57-3.57 3.57a3.573 3.573 0 0 1-3.569-3.57c0-1.846 1.6-3.57 3.57-3.57zm-1.847 28.923c1.723-.983 3.2-2.337 3.2-4.43 0-8.74-16.492-6.278-16.492-16.738 0-8.492 8.123-8.986 9.97-9.108V.6c-1.6.246-5.17.738-5.17 4.553 0 7.754 16.862 6.4 16.246 17.968-.246 4.062-3.692 6.154-7.63 7.632zm-8.492-9.23c1.97 0 3.57 1.6 3.57 3.57 0 1.968-1.6 3.568-3.57 3.568s-3.57-1.6-3.57-3.568c0-1.97 1.6-3.57 3.57-3.57zm-29.415-16c0 1.97-1.477 3.57-3.446 3.691h-.739c-1.354-.244-2.585-1.23-2.83-2.583-.493-1.97.615-4.061 2.584-4.554.246-.123.615-.123.861-.123 1.97-.124 3.57 1.477 3.57 3.568z" fill="#ec2227"/></g></svg>