<?xml version="1.0" encoding="UTF-8"?>
<svg width="134px" height="32px" viewBox="0 0 134 32" version="1.1" xmlns="http://www.w3.org/2000/svg" xmlns:xlink="http://www.w3.org/1999/xlink">
    <!-- Generator: Sketch 52.5 (67469) - http://www.bohemiancoding.com/sketch -->
    <title>logo-human</title>
    <desc>Created with Sketch.</desc>
    <g id="V2" stroke="none" stroke-width="1" fill="none" fill-rule="evenodd">
        <g id="employers" transform="translate(-436.000000, -4224.000000)" fill="#0B9EA1">
            <g id="guardian" transform="translate(0.000000, 3952.000000)">
                <g id="Group-14" transform="translate(168.000000, 81.000000)">
                    <g id="Group-28" transform="translate(19.000000, 179.000000)">
                        <g id="logo-human" transform="translate(249.000000, 12.000000)">
                            <path d="M70.6390643,4.37942049 L73.4736961,4.37942049 C73.6120989,3.91706007 73.5661908,3.49857244 73.5157597,3.05373852 C72.850318,2.91273498 72.1884947,3.05238163 71.5231661,2.95773852 C71.4228693,2.52500353 71.4444664,2.12426855 71.4990813,1.69741343 C72.1532155,1.59372438 72.7932155,1.70057951 73.4638587,1.62911661 C73.6422898,1.18654417 73.5049046,0.707674912 73.5831519,0.232310954 C73.997682,0.13404947 74.4066714,0.213088339 74.825159,0.179392226 C75.0057385,0.654869258 74.8303604,1.13532155 74.9609611,1.64042403 L77.7076466,1.64042403 L77.7076466,4.25243816 C78.0665442,4.46965371 78.4271378,4.27912367 78.7774417,4.42600707 C78.7970035,4.82685512 78.8181484,5.23098233 78.7591237,5.63194346 C78.4422898,5.78900353 78.102841,5.61430389 77.7745866,5.77385159 C77.6781343,6.59635336 77.7877032,7.44067845 77.7087774,8.33102473 L74.9588127,8.33102473 C74.8656396,8.75188693 74.9285088,9.12096113 74.9136961,9.56059364 L78.048,9.56059364 C78.0874629,10.0179788 78.0883675,10.402318 78.0409894,10.8433074 L74.9570035,10.8433074 C74.8857668,11.3037456 74.8958304,11.7075336 74.9412862,12.1946572 L78.7033781,12.1946572 C78.840311,12.6747703 78.7791378,13.0776537 78.7747279,13.5370742 L74.921159,13.5370742 L74.921159,15.5609894 C74.4539364,15.7069682 74.0370318,15.6788127 73.5981908,15.6063322 C73.5008339,14.9351237 73.6066714,14.2764664 73.5271802,13.5625159 L70.7300636,13.5625159 C70.5657668,13.0853428 70.649894,12.6654982 70.6497809,12.1862898 L73.5289894,12.1862898 C73.5656254,11.7229117 73.5763675,11.3198021 73.5211873,10.8870671 C72.7973993,10.7696961 72.0825442,10.8996184 71.3482403,10.809159 C71.2713498,10.4111378 71.3201979,10.0251025 71.3161272,9.60921555 C72.0547279,9.51265018 72.7677739,9.6085371 73.4984594,9.54645936 C73.6127774,9.16245936 73.5462898,8.7800424 73.5452721,8.34843816 L71.5380919,8.34843816 C71.3860071,7.88132862 71.4950106,7.45662191 71.4610883,7.00726502 C72.1533286,6.89113781 72.8120989,7.01088339 73.4788975,6.92879152 C73.6247633,6.540947 73.546742,6.15785159 73.5310247,5.70815548 L70.7591237,5.70815548 C70.5825018,5.23041696 70.7140071,4.79112367 70.6435618,4.37071378 C70.6420396,4.37363086 70.6405517,4.37652556 70.6390643,4.37942049 Z M70.6390643,4.37942049 C70.0592315,5.50790562 69.543711,6.67237621 68.6839519,7.77992367 L70.727429,7.77992367 C70.9435138,10.0355279 70.4036975,12.1074996 69.781224,14.1521074 C70.6409272,15.3531816 71.7889696,15.9170827 73.2244466,15.8928848 C75.143429,15.8605456 77.0627505,15.8273018 78.9786799,15.701224 C79.0708353,15.695118 79.1648,15.6658318 79.2933654,15.7534643 C79.2892947,16.2180862 79.0424537,16.6438106 78.9490544,17.1445032 C78.5058035,17.1763901 78.0797399,17.2296481 77.653111,17.2331534 C76.258906,17.2446869 74.8643618,17.2323618 73.4699307,17.2400509 C71.9108636,17.2486445 70.4998106,16.8507364 69.3253088,15.7756269 C69.285959,15.7396693 69.2291958,15.7228212 69.1374926,15.6740862 C68.6190473,16.5583265 68.1121357,17.4499166 67.3692382,18.2178035 C66.9985809,17.8861569 66.7604466,17.4833866 66.4637399,17.0993866 C67.1992876,16.2621852 67.7938318,15.3361074 68.2701004,14.302383 C67.7262134,13.0013512 67.2525456,11.6667364 66.963641,10.270383 C67.352164,10.0618742 67.7221428,10.0154007 68.0894078,9.87281413 C68.3647435,10.7307081 68.5505244,11.5659873 68.9026375,12.4434431 C69.2812099,11.3391604 69.4059307,10.2856481 69.4983124,9.15332297 L67.0456198,9.15332297 C66.9662417,8.44626996 66.9938318,7.865747 67.4292806,7.29800141 C68.1609837,6.34410742 68.7750898,5.30597314 69.261535,4.20010742 C69.3046163,4.10218516 69.3910049,4.00788127 69.3274572,3.84211449 L67.3357682,3.84211449 C67.1796127,3.62139364 67.2862417,3.32604382 66.9897611,3.14048905 C66.7585244,4.12853145 66.2141852,4.9712735 66.2294502,6.04740071 C66.2838389,9.87168339 66.2513866,13.697323 66.2479943,17.5225102 C66.2477682,17.7238954 66.2877965,17.9329696 66.1962064,18.1539166 L64.9924184,18.1539166 L64.9924184,7.85263039 C64.4579166,8.38860212 64.2250968,9.02634064 63.7069908,9.44041837 C63.3373512,9.17525936 63.0468636,8.8603477 62.7235845,8.5298318 C64.6457329,6.04604382 65.7442488,3.19555618 66.4899731,0.162340636 C66.9435138,0.223853004 67.305012,0.44344311 67.7017894,0.637139223 C67.5509484,1.23484947 67.4058742,1.81005795 67.245535,2.44542191 L70.751853,2.44542191 C70.7646304,3.12918163 70.8553159,3.76024876 70.6352735,4.37944311 Z M8.780947,29.5589541 L8.780947,28.7061484 C8.78060777,25.371477 8.78264311,22.0368057 8.7769894,18.7020212 C8.77631095,18.2675901 8.80514488,17.8402827 8.88961131,17.4134276 C9.26151237,15.5337951 10.2341767,14.139364 12.0648481,13.4168198 C13.398106,12.8904594 14.7946855,12.8215972 16.1765654,13.0013852 C17.9330601,13.229682 19.0472933,14.304 19.5134982,16.0114205 C19.6814134,16.6264311 19.7657668,17.261682 19.7649753,17.9062049 C19.7606784,21.5612155 19.761583,25.2162261 19.7659929,28.8711237 C19.7662191,29.08947 19.706742,29.3199152 19.8267138,29.5262756 L23.9953074,29.5262756 C24.0103463,29.3902473 24.0294558,29.2987703 24.0294558,29.2072933 C24.0306996,24.7233357 24.0469823,20.2393781 24.0184876,15.7556466 C24.011477,14.648424 23.6552933,13.6162827 22.9542332,12.7261625 C21.6989965,11.1320424 19.9515477,10.4682968 18.0359576,10.157682 C16.8249329,9.96127208 15.604636,9.99338516 14.3823039,10.1386855 C12.9945442,10.3036608 11.7151095,10.7292721 10.5571166,11.5192085 C9.90456537,11.9642686 9.38419788,12.5503322 8.76726502,13.2008481 L8.76726502,2.3934417 L4.52189399,2.3934417 L4.52189399,29.5589541 L8.780947,29.5589541 Z M11.5961555,8.18476325 L16.168424,8.18476325 L16.168424,0.0046360424 L27.7572862,0.0046360424 L27.7572862,30.5413428 L16.1848198,30.5413428 L16.1848198,21.1983604 L11.6676184,21.1983604 L11.6676184,30.535576 L5.65371026e-05,30.535576 L5.65371026e-05,-7.81597009e-14 L11.5961555,-7.81597009e-14 L11.5961555,8.18476325 Z M102.659754,5.86295406 C102.021902,5.86736396 101.497917,5.80732155 100.931415,5.90886219 C101.170793,6.25147703 101.420122,6.49289046 101.695796,6.70546996 C102.087825,6.51912367 102.306623,6.19584452 102.659754,5.86295406 Z M94.984277,3.96500353 C94.6516127,3.91208481 94.356376,3.92667138 94.0535633,3.95019081 C93.849012,4.18323675 93.64627,4.41413428 93.416164,4.67624028 L94.915641,4.67624028 C95.0587929,4.45212721 95.0202346,4.23185866 94.984277,3.96500353 Z M97.0712876,11.1252014 C97.6440085,11.1317597 98.1956975,11.1665866 98.7433159,11.1057527 C98.7986092,10.8941908 98.8128565,10.7166643 98.7355138,10.5341625 L97.0310332,10.5341625 C97.0054784,10.7409753 96.9786799,10.9062898 97.0712876,11.1252014 Z M93.5042488,7.49077032 L97.367542,7.49077032 C96.7345527,7.05656537 95.9256198,6.78168198 95.1636127,6.73272085 C94.6974078,7.12146996 94.1162064,7.31448763 93.5042488,7.49077032 Z M99.3734784,9.09710247 L104.12463,9.09710247 C103.286524,8.84686926 102.4621,8.58035336 101.703599,8.17339929 C100.959683,8.57763958 100.202878,8.88565371 99.3734784,9.09710247 Z M92.4155703,6.32599293 C93.1928424,6.25385159 93.9870756,6.19471378 94.6526304,5.72636042 C94.6456198,5.68429682 94.6384961,5.64223322 94.6312594,5.60005654 L92.5787364,5.60005654 C92.5302276,5.2749682 92.4122912,5.00245936 92.6129979,4.71231095 C92.7529837,4.70009894 92.9066516,4.68675618 93.0801074,4.67149117 C92.8952311,4.34843816 92.5809979,4.19454417 92.4665668,3.88788693 C93.4489555,2.96135689 93.4489555,2.96135689 93.6421993,2.40684099 C93.1749767,2.37472792 92.7200792,2.3664735 92.2678954,2.48237456 L92.2678954,7.45311661 C92.3642346,7.51462898 92.4335491,7.51790813 92.5406304,7.4645371 C92.666482,7.08980919 92.343542,6.73724382 92.4155703,6.32599293 Z M97.8141852,7.44938516 C97.9628777,7.58530035 98.1572523,7.45458657 98.3191746,7.58111661 C98.4071463,7.67553357 98.2877399,7.87081272 98.4831322,7.98965371 C99.1844184,7.83564664 99.9302558,7.7214417 100.640023,7.30725088 C100.157987,6.88865018 99.8845739,6.39666431 99.6294784,5.93453004 C99.4686869,5.79296113 99.2598389,5.92367491 99.1373795,5.77328622 C99.0708919,5.59248057 99.1602205,5.39527915 99.05133,5.18891873 C98.7387929,5.37322968 98.335118,5.33048763 98.0198671,5.66428269 L96.021959,5.66428269 C96.7318389,5.97783746 97.4784678,6.15423322 98.0717682,6.66973852 C98.0608,6.95660777 97.8368,7.17461484 97.8141852,7.44938516 Z M93.3660721,14.557682 C93.1482912,14.1105866 92.9410261,13.7063463 92.9156975,13.2338092 C94.4274996,13.0635194 94.6979731,12.9736254 95.2862982,12.4504311 L92.8375633,12.4504311 L92.8375633,15.9371873 L103.056984,15.9371873 L103.056984,12.4730459 C102.335457,12.3562403 100.156065,12.374106 100.082906,12.5022191 C100.086864,12.6736396 100.157987,12.8164523 100.381761,12.9635618 L102.634991,12.9635618 C102.666991,13.3577385 102.675584,13.704311 102.631486,14.1109258 C101.77721,14.1109258 100.953577,14.1160141 100.130171,14.1092297 C99.517535,14.1041413 98.9381428,13.6182615 98.8008707,13.0159152 C98.7595986,12.8346572 98.8327576,12.640735 98.7255633,12.4378799 L96.9187505,12.4378799 C96.4514148,13.1525088 96.4494926,13.5065442 94.5648848,14.4893852 L101.718977,14.4893852 C101.743627,14.8876325 101.777888,15.2193922 101.703825,15.5529611 L94.0857894,15.5529611 C93.9764466,15.211364 94.1137187,14.8809611 93.9772382,14.557682 L93.3660721,14.557682 Z M95.6753866,11.1515477 C95.8617329,10.9119435 95.8004466,10.7312509 95.7891392,10.5003534 L89.871853,10.5003534 C89.7637541,10.0338092 89.8234572,9.612947 89.8381569,9.1434629 L98.7012523,9.1434629 C98.6710615,8.8835053 98.5596834,8.71932155 98.4680933,8.56554064 L91.0215915,8.56554064 L91.0215915,1.23471378 L98.4241074,1.23471378 C98.5386516,1.59519435 98.4625527,1.96415548 98.4626657,2.40446643 L94.7877541,2.40446643 C94.6136198,2.54942756 94.629111,2.64192226 94.6544396,2.803053 L97.512164,2.803053 C97.6176622,3.19440283 97.5632735,3.52367491 97.5466516,3.87827562 C97.0777329,3.99858657 96.6044042,3.8840424 96.1218035,3.95810601 C96.0743124,4.19522261 96.0682064,4.4109682 96.1225951,4.65679152 C96.725959,4.74521555 97.3234431,4.66753357 97.8671039,4.69761131 C98.109535,4.56248763 97.8988777,4.3864311 98.041012,4.21795053 C98.1808848,4.15044523 98.3919943,4.07276325 98.5772099,3.95448763 C99.1022134,3.61899647 99.2840367,3.10021201 99.3049555,2.50623322 C99.3202205,2.07677739 99.270694,1.64426855 99.3404608,1.16958304 L103.631853,1.16958304 C103.828828,1.79465724 103.60822,2.44811307 103.773648,3.08811307 C104.321606,3.19926502 104.868998,3.08370318 105.444206,3.1625159 C105.526298,3.52706714 105.492037,3.89342756 105.461054,4.36472085 C104.745295,4.21693286 104.043782,4.40780212 103.338652,4.29642403 C102.789224,4.20958304 102.558779,3.95324382 102.516828,3.4040424 C102.4941,3.10654417 102.557309,2.80497527 102.476348,2.47050177 C101.848107,2.37597173 101.215796,2.45320141 100.533959,2.42617668 C100.519033,3.25308834 100.369097,4.01486926 99.7142841,4.67838869 L104.03745,4.67838869 C104.415683,5.92650177 103.546708,6.57939223 102.848023,7.32918728 C103.772857,7.74846643 104.713521,7.75638163 105.676235,7.8739788 C105.612008,8.31903887 105.371613,8.66380212 105.124885,9.05153357 C105.373648,9.16619081 105.624673,9.0759576 105.879542,9.15205654 C106.00562,9.55742756 105.927146,9.98326502 105.92398,10.475477 L100.136164,10.475477 C100.036433,10.7199435 100.039599,10.8965654 100.128927,11.1311943 L104.41851,11.1311943 L104.41851,18.0374276 C103.991655,18.0904594 103.569888,18.0620777 103.141337,18.0576678 C103.026114,17.7783746 103.136023,17.5038304 103.03516,17.2283816 L92.8744254,17.2283816 C92.7353442,17.5168339 92.87533,17.830841 92.7568283,18.153894 C92.3516834,18.2410742 91.9294643,18.1775265 91.4693654,18.1829541 L91.4693654,11.1515477 L95.6753866,11.1515477 Z M124.283432,6.00445512 L122.254428,6.00445512 C122.661948,6.37375548 123.025255,6.70302756 123.390146,7.03376961 C123.72722,6.74610883 123.947149,6.3986318 124.283432,6.00445512 Z M130.898838,6.00671661 L128.905227,6.00671661 C129.216746,6.48038445 129.531545,6.85330318 129.938386,7.15170601 C130.32657,6.82480848 130.663531,6.48931731 130.898838,6.00671661 Z M125.969934,5.99631378 C125.606174,6.49587562 125.246824,6.9895576 124.863616,7.51591802 L128.505057,7.51591802 C128.162782,6.98639152 127.842442,6.49090035 127.522669,5.99631378 L125.969934,5.99631378 Z M124.316449,9.75196042 L129.08117,9.75196042 C129.07122,9.45299223 129.147997,9.19179081 129.034584,8.96179788 L124.353199,8.96179788 C124.249849,9.23803816 124.278117,9.47673781 124.316449,9.75196042 Z M129.065453,11.1408509 L124.321764,11.1408509 C124.2797,11.4892325 124.25211,11.7823208 124.352407,12.1034516 L129.063418,12.1034516 C129.106273,11.7644551 129.099036,11.4663915 129.065453,11.1408509 Z M124.453269,18.0661936 C124.320068,17.6189852 124.209594,17.2477625 124.091658,16.8514375 C124.777566,16.678547 125.470033,16.9340947 126.12575,16.6759463 L126.12575,13.5448085 L122.996534,13.5448085 L122.996534,9.25861767 C122.417029,9.59897102 121.965524,10.0028721 121.42763,10.2546883 C121.199446,10.2085541 121.126965,9.96714064 120.867234,9.86548693 C120.895389,12.847706 120.336237,15.6358898 118.366146,18.0189286 C117.932958,17.7518473 117.559248,17.4844269 117.21358,17.112865 C117.981467,16.1627025 118.536548,15.106024 118.905849,13.9566247 C119.274471,12.8097131 119.495418,11.6367943 119.473707,10.3304481 C118.820025,10.7853456 118.227177,11.1979534 117.625057,11.6168933 C117.29081,11.2821936 117.049962,10.9027166 116.760718,10.5160028 C117.657962,9.90178375 118.59105,9.37892862 119.459121,8.72784735 L119.459121,7.3766106 C119.087672,7.43834912 118.937849,7.84372014 118.542541,7.87877314 C118.144181,6.93234205 117.594075,6.0751265 116.712548,5.40878021 C117.096096,5.11015124 117.381043,4.76550106 117.824294,4.53087208 C118.52264,5.06073781 118.984888,5.77672367 119.481736,6.64162827 L119.481736,1.65980495 L125.348591,1.65980495 C124.996025,1.20445512 124.518852,1.09816537 124.098555,0.833684806 C124.53129,0.562080565 124.92411,0.315465724 125.330499,0.0604833922 C126.062315,0.375168905 126.528407,0.942122968 126.877241,1.65324664 L132.661665,1.65324664 C132.776209,2.10203816 132.71481,2.52572721 132.707912,3.01748693 L120.884421,3.01748693 L120.884421,8.81932438 C121.457934,8.6101371 121.918259,8.24535972 122.421891,7.89143746 C122.055305,7.39198869 121.510513,7.20394629 121.038881,6.9040735 C121.195941,6.56405936 121.509608,6.38924664 121.694033,6.12046926 C121.720944,5.89545159 121.46551,6.0365682 121.422881,5.85135265 L121.422881,4.60290035 L125.118937,4.60290035 C125.433283,4.1226742 125.574626,3.63509823 125.770131,3.14853993 C126.186245,3.09381201 126.501835,3.39843392 126.898386,3.40623604 C126.91987,3.83523958 126.711927,4.16485088 126.655616,4.57022191 L131.98322,4.57022191 C132.084534,5.04954346 132.047672,5.48928905 132.01669,5.91670954 C131.784775,6.04504876 131.549806,5.92451166 131.314273,6.02333852 C131.502767,6.31812297 131.796534,6.49259647 132.054909,6.74610883 C131.757863,7.21830671 131.291884,7.52225018 130.940902,7.94413004 C131.57163,8.45929611 132.335898,8.66893569 133.079927,8.96191095 C132.928294,9.42133145 132.64199,9.76846926 132.395036,10.1689781 C131.676336,10.062236 131.110739,9.64533145 130.434669,9.30249046 C130.383333,10.7329922 130.503531,12.1109145 130.345566,13.5304481 L127.55105,13.5304481 C127.459234,14.2777555 127.565184,14.9781371 127.52199,15.6750134 C127.49293,16.1441583 127.524025,16.6169216 127.51498,17.0877625 C127.504577,17.6296141 127.161396,18.0323845 126.619884,18.0579392 C125.908195,18.0917484 125.193679,18.0661936 124.453269,18.0661936 Z M44.4650742,9.65551943 C43.3370459,10.4374276 42.1313357,10.9728339 40.7860919,11.2068975 C40.4396325,10.8337527 40.3229399,10.3586148 40.0062191,9.89489753 C41.1127633,9.68457951 42.0960565,9.41048763 43.0540212,8.8420636 C42.36653,8.54886219 41.7334276,8.29817668 41.019364,8.19019081 C41.2065018,7.7575689 41.5226572,7.45860071 41.7884947,7.07663604 C42.680311,7.10671378 43.4800848,7.484947 44.2904876,7.79488339 C44.7093145,7.46289753 44.9394205,7.04271378 45.1700919,6.5429258 L41.6340353,6.5429258 C41.5051307,6.0835053 41.5729753,5.65913781 41.5747845,5.1765371 L46.0212014,5.1765371 C46.3750106,4.31219788 46.6995336,3.50009894 46.8655265,2.60002827 L41.6033922,2.60002827 C41.6097244,6.36732155 40.4621343,9.5815689 37.2640565,11.8438445 C36.8874064,11.492523 36.5234205,11.1747845 36.2229823,10.7109541 C37.8463887,9.63403534 39.1275194,8.29534982 39.6900636,6.39796466 C40.0535972,5.17178799 40.2701343,3.92457951 40.1992367,2.58860777 L37.6245371,2.58860777 C37.4681555,2.10906007 37.5415406,1.66852297 37.5690177,1.17563251 L48.4100071,1.17563251 C48.3942898,2.03974558 48.1753781,2.83024735 47.902417,3.70928622 L50.7252014,3.70928622 C50.9000141,3.93351237 50.8638304,4.09045936 50.857159,4.2349682 C50.7815124,5.86572438 50.7480424,7.50021201 50.4149258,9.10778799 C50.2606926,9.85170318 49.8208339,10.3130459 49.072735,10.4413852 C48.5356325,10.5335406 47.9916325,10.5694982 47.480424,10.33453 C47.2789258,9.88359011 47.259364,9.40969611 47.1380353,8.92019788 C47.692212,8.8455689 48.1865724,9.27038869 48.7348693,9.08189399 C48.935576,8.99810601 49.0567915,8.82408481 49.1049611,8.6215689 C49.3695548,7.50756184 49.4411307,6.37331449 49.4934841,5.20265724 L46.8242544,5.20265724 C46.7366219,6.435053 46.3492297,7.55019081 45.5651731,8.54716608 C46.0425724,8.99674912 46.611788,9.34332155 47.0212297,9.90224735 C46.8352226,10.3073922 46.4822049,10.5901908 46.1864028,10.9384594 C45.5762544,10.5391943 45.1086926,9.9804947 44.4650742,9.65551943 Z M74.9527067,6.92517314 L76.3685088,6.92517314 C76.3791378,6.51019081 76.4369187,6.12664311 76.3188693,5.7124523 C75.8630671,5.71256537 75.419364,5.67231095 74.9428693,5.73812014 C74.8880283,6.14066431 74.8901767,6.50781625 74.9527067,6.92517314 Z M74.9709117,3.02626148 C74.8729894,3.667053 74.8819223,3.92870671 75.0073216,4.33724382 L76.3735972,4.33724382 C76.3777809,3.89093993 76.4261767,3.47233922 76.3441979,3.01642403 C75.8816113,2.97571731 75.4420919,2.97221201 74.9709117,3.02626148 Z M41.6489837,13.0602742 C40.9101569,13.0694332 40.2049131,13.0226205 39.4755845,13.0909173 L39.4755845,16.107624 C40.2146375,16.1378148 40.9199943,16.1443731 41.6489837,16.104571 L41.6489837,13.0602742 Z M43.1010827,16.1071717 L45.2429343,16.1071717 L45.2429343,13.1023378 L43.1010827,13.1023378 L43.1010827,16.1071717 Z M46.6060438,16.1154261 L48.7752594,16.1154261 L48.7752594,13.0807406 L46.6060438,13.0807406 L46.6060438,16.1154261 Z M36.0514714,17.4778572 C36.0282912,17.0236382 36.0071463,16.6169102 36.0668495,16.1830445 C36.7138601,16.0613767 37.353747,16.1779562 38.0541286,16.0998219 L38.0541286,11.6845004 L50.0603477,11.6845004 L50.0603477,16.0802601 C50.7426375,16.1902813 51.3985809,16.0796947 52.0748777,16.1510445 C52.1492806,16.5938431 52.1254219,17.0150445 52.0925173,17.4778572 L36.0514714,17.4778572 Z M56.5060975,25.8217611 L56.5060975,31.633323 C55.9362035,31.7302276 55.3840622,31.6342276 54.7939279,31.6892947 L54.7939279,23.4340862 L57.2563449,23.4340862 C57.7382671,25.3838247 58.2166841,27.3188636 58.6951011,29.2540155 L58.8288678,29.2543548 C59.3080763,27.3376339 59.7873979,25.4209131 60.2792707,23.4538742 L62.7678078,23.4538742 L62.7678078,31.6032452 C62.2245993,31.686694 61.6865922,31.6319661 61.0816452,31.6430473 L61.0816452,25.9349484 C61.0379986,25.9301993 60.994465,25.9253371 60.9508184,25.9204749 C60.517518,27.8097187 60.0842177,29.6990756 59.645829,31.6105951 C59.077518,31.6874855 58.5159915,31.6179449 57.8947618,31.6569555 C57.4571647,29.6957965 57.023412,27.7517117 56.5896594,25.8077399 C56.5618431,25.812376 56.5339138,25.817012 56.5060975,25.8217611 Z M88.4318417,31.6260862 L86.4972551,31.6260862 L86.4972551,22.2762064 L88.3874035,22.2762064 L88.3874035,25.7403477 C89.6224,25.797111 90.7932834,25.7784537 92.0347251,25.7532382 L92.0347251,22.2668212 L94.0230219,22.2668212 L94.0230219,31.612065 L92.0461456,31.612065 L92.0461456,27.4814643 L88.4318417,27.4814643 L88.4318417,31.6260862 Z M41.9005286,31.6123929 L41.9005286,27.4987534 L38.2314968,27.4987534 L38.2314968,31.6051562 L36.2940834,31.6051562 L36.2940834,22.2774389 L38.1840057,22.2774389 L38.1840057,25.725976 L41.8886558,25.725976 L41.8886558,22.2694106 C42.5618996,22.2145696 43.1720481,22.2272339 43.8162318,22.2553894 L43.8162318,31.6123929 L41.9005286,31.6123929 Z M80.1517004,31.667053 C79.6038558,31.7540071 79.0987534,31.6904594 78.546612,31.7163534 C77.4535237,29.9028693 76.3617922,28.0920989 75.2701739,26.2812155 C75.2437145,26.2874346 75.217029,26.2936537 75.1904565,26.2996466 L75.1904565,31.5589541 C74.6478134,31.8963675 74.100082,31.6760989 73.5955449,31.7475618 C73.4106686,31.3109823 73.338188,25.2223887 73.4817922,23.5200565 C74.0090572,23.4236042 74.549665,23.5228834 75.1322233,23.4527774 C76.2028099,25.2370883 77.2729442,27.0206078 78.3430784,28.8043534 L78.4249442,28.8000565 L78.4249442,23.4401131 C79.0332834,23.3741908 79.570612,23.3931873 80.1517004,23.418629 L80.1517004,31.667053 Z M133.549117,31.6832905 C132.960905,31.7235449 132.423689,31.7233187 131.82858,31.6784283 L131.82858,28.0261314 L128.666233,28.0261314 L128.666233,31.697877 C128.066375,31.709976 127.515929,31.7337216 126.930318,31.6809159 L126.930318,23.4569159 C127.499194,23.3446332 128.036523,23.4335095 128.633894,23.3924636 L128.633894,26.4926191 L131.78188,26.4926191 L131.78188,23.4467392 L133.549117,23.4467392 L133.549117,31.6832905 Z M96.4268664,31.6631972 L96.4268664,23.4493739 L102.371856,23.4493739 C102.483799,23.8935293 102.381919,24.3579251 102.433368,24.8855293 L98.2409159,24.8855293 C98.1593894,25.4987307 98.2239548,26.0506459 98.1964777,26.6620382 L102.035799,26.6620382 C102.144237,27.1762996 102.095276,27.6367378 102.076393,28.159706 L98.2503011,28.159706 L98.2503011,30.2293032 L102.576746,30.2293032 C102.691743,30.7270558 102.633962,31.1708721 102.627064,31.6631972 L96.4268664,31.6631972 Z M108.738273,28.5482403 C108.411601,27.6032792 108.103474,26.7118021 107.755545,25.7055548 C107.400944,26.7144028 107.059799,27.6053145 106.794301,28.5482403 L108.738273,28.5482403 Z M106.217283,30.0999576 C106.019856,30.6447491 105.835206,31.1544876 105.647276,31.6730459 L103.808577,31.6730459 C104.789948,28.8740071 105.747347,26.1433781 106.702146,23.4198728 L108.762471,23.4198728 C109.699177,26.1440565 110.64052,28.8816961 111.60052,31.6738375 C110.963008,31.7505018 110.390287,31.6983746 109.833057,31.7019929 C109.552068,31.1787986 109.476987,30.6267703 109.224831,30.0999576 L106.217283,30.0999576 Z M46.2002205,23.4361668 C46.7856057,23.3799689 47.3051816,23.3950078 47.8081357,23.4214671 C47.9646304,23.5874601 47.9035703,23.7658912 47.9040226,23.9266827 C47.9089979,25.6406615 47.9054926,27.3547534 47.9083194,29.0687322 C47.9095633,29.7918417 48.3204749,30.2615519 49.0375915,30.3732693 C49.2804749,30.411036 49.524489,30.4232481 49.7692947,30.3958841 C50.5612664,30.3074601 50.9901569,29.8525625 50.9941145,29.0523364 C51.0023689,27.4137781 50.9928707,25.7751067 50.9947929,24.1363223 C50.9951322,23.9157145 50.95533,23.6874177 51.060489,23.4513187 C51.5863972,23.3498912 52.1063124,23.4297216 52.5894784,23.4049583 C52.7578459,23.5877993 52.7073018,23.7645343 52.7075279,23.9291703 C52.7108071,25.530188 52.6601498,27.1331279 52.7230191,28.731771 C52.8269343,31.377142 50.7201357,32.0753753 49.050482,31.9123223 C47.9901852,31.8088594 47.1056057,31.3657216 46.5186375,30.4317286 C46.3458601,30.1567322 46.2074572,29.8592339 46.2056481,29.5375378 C46.194906,27.5242516 46.2002205,25.5109654 46.2002205,23.4361668 Z M68.1204466,25.4910417 C67.7569131,26.5798332 67.4365739,27.5391548 67.1053795,28.5310417 L69.1244325,28.5310417 C68.7966304,27.5384763 68.4814926,26.5845823 68.1204466,25.4910417 Z M65.99533,31.6154799 L64.2145244,31.6154799 C65.1972523,28.854547 66.1632452,26.1408792 67.1277682,23.4315081 L69.1141428,23.4315081 C70.0450827,26.1525258 70.970482,28.8569216 71.910694,31.6046247 C71.3074431,31.6829852 70.7527011,31.6233951 70.199542,31.6470276 C69.9329131,31.1142219 69.8634855,30.5415011 69.5763901,30.0373032 L66.6299025,30.0373032 C66.3344396,30.526236 66.2794855,31.106759 65.99533,31.6154799 Z M125.503943,24.8807237 C124.733117,24.9792113 123.981625,24.8699816 123.175519,24.9553527 L123.175519,31.6635929 C122.541625,31.7342643 121.974558,31.7252184 121.33829,31.6718473 L121.33829,24.978759 C120.499958,24.8414869 119.710473,24.9943633 118.9133,24.8821936 C118.771505,24.4321583 118.854841,23.9868721 118.850092,23.4688792 C121.072792,23.4257979 123.275025,23.4116636 125.468438,23.4735152 C125.585357,23.9109993 125.595647,24.2952254 125.503943,24.8807237 Z M113.227997,23.4332947 C113.816435,23.3836551 114.353312,23.3818459 114.96493,23.4373654 L114.96493,30.2384396 L118.841114,30.2384396 C118.933722,30.7380014 118.908167,31.1919943 118.85898,31.6795703 L113.227997,31.6795703 L113.227997,23.4332947 Z M125.057504,14.6367435 C123.999355,15.8675562 122.641787,16.6939025 121.136882,17.0416057 C120.92826,16.9067081 120.850804,16.6656339 120.736712,16.4575774 C120.622281,16.2488424 120.453235,16.0636269 120.409928,15.7643194 C121.11031,15.5879237 121.813179,15.414694 122.44696,15.0470898 C123.081532,14.6791463 123.671666,14.2546657 124.229914,13.7211816 C124.57185,13.9659873 124.828189,14.2701569 125.057504,14.6367435 Z M128.249532,14.8423011 C128.534366,14.4345555 128.76809,14.0996297 128.993787,13.7763505 C130.572755,14.103135 132.218776,15.0019618 133.071469,16.0031208 C132.931935,16.4224 132.591242,16.6784 132.231327,16.9863011 C131.098211,15.9396862 129.781914,15.2547958 128.249532,14.8423011 Z" id="Combined-Shape"></path>
                        </g>
                    </g>
                </g>
            </g>
        </g>
    </g>
</svg>