<svg height="48" width="178" xmlns="http://www.w3.org/2000/svg"><g fill="none" fill-rule="evenodd"><path d="M167.383 16.987h-5.212c.189-5.167.6-10.278 1.738-15.365h-2.205c-.333 2.518-.484 5.07-.674 7.619-.19 2.557-.285 5.12-.43 7.73h-5.17c-.076-5.136-.119-10.267-.908-15.395h-2.252c.632 2.577.996 5.128 1.231 7.698.234 2.548.338 5.103.355 7.707h-5.144c.131-5.467-.798-10.643-3.628-15.372-2.018-.18-4.236.455-5.912-1.609h34.957c-.661 1.295-1.718 1.648-3.014 1.578-1.632 2.225-2.484 4.765-3.085 7.393-.597 2.606-.776 5.264-.647 8.016zm-38.328 8.027c-.084.061-.142.125-.214.152-1.418.535-2.838 1.065-4.25 1.594-.25-.07-.47-.16-.64-.4.14-.261.538-.282.625-.656-.036-.589-.526-.82-1.002-1.04-1.001-.462-2.077-.692-3.16-.774-1.735-.133-3.478-.197-5.18.317-.951.286-1.419.637-1.725 1.36.269.88 1.022 1.219 1.832 1.442 1.234.34 2.517.362 3.782.5 2.405.263 4.831.417 7.116 1.326.169.066.335.144.493.232 1.627.9 1.867 2.354.635 3.76-1.309 1.492-3.061 2.123-4.918 2.562-2.025.48-4.08.59-6.147.482-1.965-.103-3.863-.622-5.782-1.007-.909-.183-1.808-.267-2.59.42-.25.22-.553.14-.911.065.457-.714 1.104-1.142 1.68-1.625.82-.69 1.718-1.274 2.648-1.818.605-.355 1.147-.337 1.71-.005a15.893 15.893 0 0 0 4.658 1.848c1.87.415 3.745.67 5.647.208.06-.015.121-.02.178-.041.603-.227 1.363-.377 1.37-1.173.008-.75-.615-1.163-1.253-1.414-1.099-.434-2.275-.528-3.435-.681-2.681-.353-5.395-.498-8.02-1.216-.506-.138-1.003-.315-1.438-.624-.849-.605-1.078-1.447-.624-2.384.474-.976 1.31-1.586 2.239-2.063 1.875-.961 3.891-1.473 5.974-1.694 2.239-.239 4.485-.3 6.716.105 1.283.232 2.516.607 3.56 1.44.242.194.462.399.426.802zm25.568 6.133h-.01v.547c0 .93.118 1.13.982 1.431.513.179 1.046.307 1.577.426.426.095.685-.071.768-.538.13-.725.04-1.453.085-2.179.034-.568-.254-.925-.78-1.079a17.237 17.237 0 0 0-1.64-.416c-.59-.111-.927.167-.977.775-.029.342-.005.688-.005 1.033zm3.437-3.403c-.088-1.215-.772-1.917-1.699-2.42-1.446-.785-3.048-1.026-4.649-1.24-3.563-.474-7.146-.473-10.725-.335a66.3 66.3 0 0 0-9.306 1.037c-.194-.118-.444-.136-.54-.442.935-.325 1.896-.522 2.85-.737a61.154 61.154 0 0 1 9.826-1.364c1.897-.112 3.796-.264 5.695-.188 2.6.103 5.22.12 7.736.932.968.312 1.891.73 2.64 1.44 1.279 1.21 1.556 2.738 1.294 4.396-.352 2.23-1.137 4.243-2.96 5.729-1.41 1.149-3.35 1.432-4.625.624-2.536-1.607-2.49-4.927.092-6.494 1.026-.622 2.143-.92 3.338-.937.322-.004.644 0 1.033 0zm-14.51 3.315c.943-.889 1.797-1.685 2.792-2.31.604-.38 1.242-.677 1.936-.84.842-.2 1.46.253 1.477 1.123.022 1.113-.014 2.227-.02 3.341 0 .278-.052.571.184.822.503.07.763-.372 1.17-.58.173.323.17.644-.05.906-.6.712-1.225 1.407-2.09 1.818-.932.443-1.65.117-1.877-.89-.26-1.16-.052-2.34-.109-3.51-.015-.319.049-.668-.415-.84-.964.333-1.622 1.106-2.255 1.886-.725.894-1.404 1.826-1.98 2.828-.323.563-.858.671-1.412.675-.225-.23-.147-.465-.148-.678a457.602 457.602 0 0 1-.002-4.194c.002-.332-.027-.645-.235-.875-.32-.206-.572.05-.84.051-.19-.175-.114-.378-.09-.632a10.85 10.85 0 0 1 2.638-1.51c.545-.216.964.086 1.17.739.155.487.171.992.158 1.5-.01.343-.002.687-.002 1.17zm-11.774 2.033a1.848 1.848 0 0 0 1.456-.473 10.932 10.932 0 0 0 1.837-2.08c.396-.587.292-.97-.37-1.22-1.575-.596-3.062-.781-3.386 1.788a5.352 5.352 0 0 0-.036 1.085c.027.337.098.686.499.9zm6.202-5.274v4.13c.012 1.316.422 1.547 1.57.888.083-.048.176-.078.269-.118.152.234.082.453.073.681-.605.786-1.277 1.514-2.217 1.91-1.356.57-2.323-.06-2.386-1.541-.028-.64-.005-1.283-.005-2.08-.424.481-.734.864-1.075 1.217-.857.886-1.686 1.81-2.84 2.338-.353.16-.705.293-1.102.297-.78.009-1.198-.288-1.424-1.037-.532-1.768.175-3.974 1.669-5.201.98-.806 2.025-1.469 3.333-1.606.478-.05.926.057 1.367.18.89.245 1.771.396 2.768-.058zm32.464.933c-.768.36-1.515.823-2.317.977-.26-.252-.058-.425-.16-.57-.438-.813-3.064-.879-3.846-.09-.097.427.174.611.506.772.837.404 1.768.363 2.646.572.688.164 1.38.3 2.012.635 1.187.628 1.376 1.694.454 2.686-1.043 1.122-2.374 1.662-3.874 1.777-1.316.101-2.624.029-3.912-.31-.487-.13-.993-.198-1.459.124-.198.137-.418.097-.777.017.744-.914 1.45-1.722 2.499-2.117.376-.141.748.107 1.096.265.886.403 1.79.742 2.757.902.499.083.97.018 1.416-.194.686-.325.715-.73.083-1.14-.678-.438-1.456-.575-2.234-.712-.913-.16-1.844-.257-2.7-.65-1.106-.508-1.282-1.39-.48-2.328.878-1.027 2.061-1.483 3.332-1.707 1.476-.26 2.938-.126 4.338.45.255.105.547.188.62.64z" fill="#a78c4f"/><path d="M5.692 32.165l2.992-5.328c.505-.898 1.017-1.792 1.516-2.693.138-.25.267-.464.65-.251l.432 11.618c-.524.055-.982.06-1.566-.014V28.07l-.17-.026-3.913 6.614c-1.38-2.33-2.649-4.468-3.917-6.607l-.164.019v7.445H0c.068-3.85.27-7.718.429-11.605.324-.258.47-.047.628.23 1.095 1.911 2.198 3.818 3.3 5.725.433.75.87 1.498 1.335 2.3zM51.88 35.84l-7.227-8.618v8.294h-1.448v-11.61c.304-.243.482-.04.657.17 2.177 2.61 4.352 5.22 6.53 7.829.058.07.109.174.272.148v-8.01c.489-.112.943-.073 1.402-.034v11.736zm22.686-10.507v3.592c.639.215 1.904.155 2.584-.113.84-.33 1.31-1.099 1.198-1.96-.108-.826-.73-1.416-1.616-1.558-.706-.113-1.406-.07-2.166.039zm-.001 8.825c.764.278 2.351.209 2.986-.119 1.264-.652 1.45-2.274.336-3.162-.991-.79-2.16-.606-3.322-.575zm-1.489 1.31V24.115c1.47-.188 2.917-.362 4.35-.005 1.922.478 2.896 2.208 2.275 3.933-.228.633-.571.998-1.376 1.46-.017.179.142.169.239.218.998.514 1.567 1.313 1.611 2.448.048 1.225-.517 2.133-1.518 2.782-1.29.835-2.739.738-4.177.663-.442-.023-.882-.09-1.404-.146zM28.531 25.366v4.406c.864.064 1.686.113 2.5-.094.892-.227 1.535-.945 1.604-1.768.099-1.17-.324-1.97-1.275-2.364-.913-.377-1.854-.277-2.829-.18zm1.848 5.784h-1.89v4.321c-.5.148-.95.049-1.432.069V24.1c1.793-.154 3.563-.462 5.267.32 1.211.555 1.84 1.52 1.891 2.86.057 1.475-.538 2.575-1.851 3.273-.157.083-.311.172-.487.268l3.226 4.646c-.61.154-1.163.046-1.74.085-1-1.477-1.995-2.944-2.984-4.402zm58.86-.022l-1.882-4.402-1.888 4.402zm3.508 4.405h-1.609l-1.306-3.043h-4.95l-1.317 3.03h-1.558c1.737-3.922 3.44-7.767 5.148-11.609.055-.123.206-.1.428-.08zm-71.815-4.394l-1.881-4.412-1.903 4.412zm-4.358 1.343l-1.306 3.019c-.481.094-.96.036-1.57.041l5.138-11.664c.399-.161.496.072.598.303l3.22 7.304 1.608 3.654c.048.108.13.208.05.374h-1.491l-1.307-3.031zm43.497-5.763l-1.89 4.413h3.778zm5.326 8.81h-1.532l-1.323-3.035h-4.937l-1.32 3.014h-1.546l5.13-11.641c.402-.126.499.091.59.297 1.62 3.668 3.238 7.336 4.853 11.006.04.089.046.191.085.358zm33.379-.01h-1.477c0-1.32-.037-2.612.014-3.9.031-.786-.164-1.438-.601-2.093-1.064-1.595-2.067-3.232-3.09-4.854-.117-.184-.214-.38-.346-.619.535-.144 1.03-.047 1.596-.075l3.19 5.128 3.134-5.11c.523-.015 1.037-.062 1.63.039-.853 1.352-1.666 2.643-2.482 3.931-.465.734-.932 1.466-1.407 2.194-.14.215-.165.444-.164.692.005 1.337.003 2.673.003 4.01v.658zm-59.512-.012a5.587 5.587 0 0 1-1.383.005V24.03c.458-.093.894-.053 1.383-.026v11.504zm109.264 9.344c.002 1.41.956 2.468 2.212 2.45 1.241-.015 2.192-1.099 2.186-2.49-.006-1.39-.985-2.467-2.225-2.449-1.258.02-2.176 1.07-2.173 2.489zm2.219-3.14c1.725 0 3.013 1.337 3.012 3.126-.001 1.72-1.38 3.145-3.04 3.14-1.74-.006-3.055-1.382-3.04-3.18.015-1.76 1.334-3.088 3.068-3.086zm-35.729.175c.318-.099.53-.126.76.011v5.983l-.133.1c-1.243-1.48-2.487-2.958-3.812-4.534v4.33c-.28.168-.486.134-.71.05v-6.062l.146-.095 3.75 4.439v-4.222zm10.87.627l-.372.488c-.87-.442-1.739-.847-2.753-.471-.504.187-.864.511-1.152.933-.567.83-.448 2.216.24 2.995.802.904 2.035 1.071 3.284.429a4.74 4.74 0 0 0-.007-1.346h-1.498l-.05-.714h2.292v2.378c-1.3 1.125-3.404 1.012-4.601-.252-1.1-1.159-1.136-3.076-.08-4.19 1.241-1.307 3.325-1.439 4.697-.25zm33.267 2.27c.925.217 1.757.025 2.043-.512.242-.455.235-.942-.087-1.369-.343-.455-1.211-.588-1.956-.33v2.212zm3.417 2.972c-.29.202-.53.135-.831.11l-1.55-2.265c-.337-.102-.67-.083-1.047-.012v2.156c-.252.206-.473.19-.726.054v-5.9c.823-.177 1.638-.222 2.445.003.69.193 1.188.623 1.281 1.372.103.828-.142 1.515-.925 1.933-.07.037-.142.074-.211.115-.013.008-.015.035-.042.11zm7.798-5.316h-2.693v1.96h2.37c.18.253.133.45.082.71h-2.472v2.056h2.632c.206.243.157.437.098.68h-3.481v-6.004h3.443c.137.175.108.363.021.598zm-38.64 3.1c.702-.05 1.329.057 1.991-.07l-.964-2.273-1.026 2.342zm3.804 2.223c-.254.196-.478.125-.727.116-.35-.481-.463-1.093-.774-1.636h-2.584l-.69 1.562a.826.826 0 0 1-.793-.004l2.697-6.114.181.007 2.69 6.07zm5.008-2.707c.767.146 1.47.113 1.956-.518.346-.447.341-1.008.026-1.48-.48-.72-1.217-.656-1.982-.565zm-.72-3.186c.701-.095 1.362-.169 2.03-.046 1.034.19 1.71.944 1.694 1.903-.017 1.03-.73 1.857-1.754 2.004-.4.057-.806.06-1.26.09v1.918c-.241.208-.452.18-.71.088zM97.306 47.37c-.004-.238.111-.414.323-.57.368.122.702.368 1.108.42.717.093 1.16-.113 1.344-.643.166-.477-.065-.949-.652-1.29-.208-.122-.438-.206-.655-.313-1.072-.524-1.456-1.215-1.173-2.104.26-.815 1.134-1.283 2.17-1.139.336.047.675.122.946.373.032.25-.116.411-.273.607-.427-.134-.829-.377-1.32-.288-.432.078-.716.277-.811.695-.096.423.076.76.441.977.295.175.61.316.916.473 1.265.649 1.373 1.251 1.113 2.234-.225.852-1.243 1.303-2.291 1.124-.43-.074-.773-.234-1.186-.556zm78.017-12.193c.933-.003 1.667-.71 1.675-1.615.009-.933-.76-1.707-1.677-1.692s-1.618.738-1.617 1.667c.001.97.666 1.642 1.62 1.64zm2.039-1.602c-.015 1.15-.897 1.995-2.066 1.98-1.112-.015-2.009-.91-2-1.997a2.071 2.071 0 0 1 2.09-2.055c1.144.016 1.99.904 1.976 2.072zm-71.183 14.23c-.248.118-.439.117-.714-.014v-5.91c.262-.102.472-.108.714.004zm68.826-14.401c.764.072.82.03.7-.516a1.004 1.004 0 0 0-.693-.002c-.083.165-.065.32-.007.518zm1.235-.675c.016.164.031.264.033.363.001.1-.01.201-.017.309l-.359.386.406.692c-.718.313-.651-.802-1.257-.642-.175.192-.017.443-.14.65-.287.145-.393.02-.391-.278.002-.563 0-1.127 0-1.732.616-.046 1.19-.173 1.725.252z" fill="#262324"/></g></svg>