<?xml version="1.0" encoding="UTF-8"?>
<svg width="145px" height="32px" viewBox="0 0 145 32" version="1.1" xmlns="http://www.w3.org/2000/svg" xmlns:xlink="http://www.w3.org/1999/xlink">
    <!-- Generator: Sketch 52.5 (67469) - http://www.bohemiancoding.com/sketch -->
    <title>logo-enterprise-innovation</title>
    <desc>Created with Sketch.</desc>
    <g id="logos" stroke="none" stroke-width="1" fill="none" fill-rule="evenodd">
        <g id="logo-enterprise-innovation" fill="#891B1C">
            <path d="M35.3742128,17.3611064 C34.6245957,16.623234 34.2402553,15.6242553 33.569617,14.8377021 L27.7148085,14.8377021 C27.676,15.0725957 27.6273191,15.2664681 27.7748936,15.5095319 L30.2283404,15.5095319 L30.2283404,30.454383 L27.7493617,30.454383 C27.6603404,30.7268936 27.6024681,30.9355745 27.7648511,31.0928511 L33.5323404,31.0928511 C33.6002553,30.8433191 33.6441702,30.6531915 33.3971915,30.4038298 L31.0182979,30.4038298 L31.0182979,15.7117447 C34.5590638,21.1323404 37.9978723,26.3968511 41.4366809,31.6613617 C41.5008511,31.6377021 41.5648511,31.6140426 41.6290213,31.590383 L41.6290213,15.5182128 L44.1483404,15.5182128 C44.2584681,15.2540426 44.294383,15.0445106 44.1379574,14.8308936 L38.3801702,14.8308936 C38.2547234,15.072766 38.2240851,15.276 38.4046809,15.4870638 C39.2262979,15.6099574 40.078383,15.3978723 40.9129362,15.6065532 L40.9129362,25.8795745 C40.6972766,25.5891915 40.5621277,25.4240851 40.4453617,25.2470638 C39.3219574,23.5449362 38.1828936,21.8530213 37.0882553,20.1326809 C36.4994894,19.2075745 35.7874894,18.3571915 35.3510638,17.3369362" id="Fill-1"></path>
            <path d="M131.425753,30.4455489 L131.425753,15.6773787 C134.977753,21.1148255 138.422009,26.3868255 141.866094,31.6588255 L142.057072,31.569634 L142.057072,15.5158468 L144.577923,15.5158468 C144.684647,15.2368681 144.686009,15.0482723 144.588647,14.8423149 L138.748987,14.8423149 C138.720562,15.0801021 138.652647,15.2732936 138.841072,15.5253787 L141.320221,15.5253787 L141.320221,25.9281021 C138.8152,22.1132936 136.409243,18.4492936 134.03086,14.8273362 L128.182349,14.8273362 C128.083796,15.0698894 128.049072,15.2785702 128.250604,15.5434213 L130.67154,15.5434213 L130.67154,30.4569532 L128.128391,30.4569532 C128.124306,30.7328681 128.034434,30.9321872 128.185753,31.091166 L134.070689,31.091166 C134.00754,30.8484426 134.148306,30.640783 133.883115,30.4455489 L131.425753,30.4455489 Z" id="Fill-3"></path>
            <path d="M12.8010723,30.4478809 L12.8010723,15.6696681 C16.3586894,21.1163064 19.812817,26.4041362 23.2667745,31.6923064 L23.4419234,31.618434 L23.4419234,15.5212426 L25.922434,15.5212426 C26.0931574,15.2616681 26.0800511,15.0557106 25.962434,14.8521362 L20.0953702,14.8521362 C20.1195404,15.0946894 19.995966,15.2940085 20.2638809,15.5270298 L22.6931574,15.5270298 L22.6931574,25.9195404 C20.1951149,22.1156255 17.787966,18.4497532 15.4099234,14.827966 L9.51732766,14.827966 C9.48754043,15.0666043 9.39000851,15.2747745 9.62439149,15.5340085 L12.0613277,15.5340085 L12.0613277,30.4380085 L9.55562553,30.4380085 C9.45639149,30.7280511 9.40022128,30.9362213 9.57843404,31.1047319 L15.3484766,31.1047319 C15.4451574,30.8752851 15.4650723,30.6931574 15.3123915,30.4478809 L12.8010723,30.4478809 Z" id="Fill-5"></path>
            <path d="M88.7206298,20.4761362 C89.0898213,16.3610723 91.493566,15.059966 93.7413957,15.6300085 L93.7413957,30.442434 L90.9388426,30.442434 C90.8065872,30.7096681 90.7844596,30.9112 90.9366298,31.1037106 L99.3284596,31.1037106 C99.3909277,30.8700085 99.4336511,30.6837957 99.2527149,30.4192851 L96.4874383,30.4192851 L96.4874383,15.5598809 C99.6035234,15.3404766 100.590417,16.3137532 101.543438,20.4997957 C101.7288,20.5578383 101.915183,20.6180936 102.145311,20.3995404 C102.051013,18.5881362 101.954672,16.7316255 101.856119,14.8383489 L88.3730553,14.8383489 C88.2758638,16.7387745 88.1796936,18.618434 88.085566,20.4611574 C88.3453106,20.5780936 88.5061617,20.5678809 88.7206298,20.4761362" id="Fill-7"></path>
            <path d="M67.6841362,14.8340085 L59.8926468,14.8340085 C59.8351149,15.0845617 59.7515404,15.3027745 60.0245617,15.5417532 L61.8534979,15.5417532 C63.9866043,20.9637106 66.1045617,26.3470298 68.2831149,31.8840511 C70.1586894,26.3277957 71.9743489,20.9487319 73.8029447,15.5308596 L76.4436255,15.5308596 C76.5915404,15.2612426 76.6005617,15.0554553 76.460817,14.8350298 L70.7072851,14.8350298 C70.6051574,15.0825191 70.5547745,15.2889872 70.7457532,15.4814979 C71.5438809,15.6094979 72.3637957,15.3943489 73.2315404,15.6265191 C71.9229447,19.391966 70.6352851,23.0966468 69.2774979,27.0030298 C67.7946043,23.0733277 66.3908596,19.3536681 64.9498383,15.5349447 L67.6841362,15.5349447 L67.6841362,14.8340085 Z" id="Fill-9"></path>
            <path d="M103.856936,14.8294468 C103.704426,15.059234 103.695574,15.2595745 103.883149,15.5307234 L106.296766,15.5307234 L106.296766,30.4682553 L103.742894,30.4682553 C103.797702,30.7295319 103.618468,30.96 103.869532,31.1150638 L111.352255,31.1150638 C111.46834,30.8774468 111.493872,30.6764255 111.271915,30.4045957 L108.858128,30.4045957 L108.858128,15.5114894 L111.342894,15.5114894 C111.469021,15.2311489 111.491149,15.0279149 111.312255,14.8294468 L103.856936,14.8294468 Z" id="Fill-11"></path>
            <path d="M5.28670638,30.4360681 L5.28670638,15.5564085 C6.16125957,15.4292596 7.01351489,15.6284085 7.82015319,15.4404936 C7.88194043,15.192834 7.9003234,15.0013447 7.75155745,14.8461106 L0.213004255,14.8461106 C0.126876596,15.0769191 0.0851744681,15.2604085 0.282961702,15.5511319 L2.78270638,15.5511319 L2.78270638,30.4549617 L0.165344681,30.4549617 C0.152748936,30.7400681 0.062706383,30.9405787 0.253855319,31.1082383 L7.78508936,31.1082383 C7.88840851,30.8556426 7.93249362,30.647983 7.69657872,30.4360681 L5.28670638,30.4360681 Z" id="Fill-13"></path>
            <path d="M10.3413957,0.438314894 L0.0351829787,0.438314894 C0.422587234,0.862485106 0.815778723,0.769548936 1.1608,0.824357447 C2.36165106,1.01499574 2.71075745,1.40937872 2.71160851,2.62095319 C2.71331064,4.80495319 2.71382128,6.98878298 2.7114383,9.17278298 C2.71024681,10.3092936 2.40794894,10.6405277 1.27960851,10.9041872 C0.908204255,10.991166 0.457991489,10.8839319 -5.10638298e-05,11.325634 L10.5505872,11.325634 C10.7197787,10.4132936 11.1347574,9.5411234 11.1087149,8.47678298 C10.2562894,9.31491064 9.71773617,10.535166 8.32199149,10.6301447 C7.0821617,10.7147404 5.8501617,10.7983149 4.57765106,10.5649532 L4.57765106,5.9624 C5.3075234,5.9624 6.01067234,5.98810213 6.7114383,5.95661277 C7.8874383,5.90384681 8.86054468,6.11899574 9.07109787,7.51525106 C9.07467234,7.53874043 9.16948085,7.54844255 9.33935319,7.6010383 L9.33935319,3.71337872 C8.89833191,3.65959149 8.93645957,3.96546383 8.89867234,4.15729362 C8.76199149,4.85091064 8.31450213,5.19320851 7.65254468,5.21533617 C6.63977872,5.24920851 5.62497021,5.22418723 4.59688511,5.22418723 L4.59688511,1.07405957 C5.92982128,1.00716596 7.19194894,0.969889362 8.4595234,1.10044255 C9.20318298,1.17686809 9.65645957,1.55218723 9.83245957,2.27337872 C9.89033191,2.51031489 9.87909787,2.8117617 10.3413957,2.74793191 L10.3413957,0.438314894 Z" id="Fill-15"></path>
            <path d="M12.0914723,4.78871489 C12.1490043,6.87331064 12.2901106,8.87773617 11.9403234,10.8693957 C11.7233021,11.1670979 11.2070468,10.8712681 11.1501957,11.3150128 L14.9093447,11.3150128 C14.4593021,10.9703319 14.0016,11.0952681 13.726366,10.6312681 L13.726366,5.52897021 C13.8577702,5.41714043 13.9644936,5.32522553 14.0725787,5.23484255 C14.6264511,4.77118298 15.2538553,4.48488511 15.9507064,4.80794894 C16.628834,5.1221617 16.6055149,5.80931064 16.6141957,6.43671489 C16.6247489,7.20250213 16.6364936,7.96914043 16.6118128,8.73424681 C16.5801532,9.71314043 16.9495149,10.8641191 15.3010043,11.3131404 L19.2550468,11.3131404 C18.8264511,10.9848 18.4024511,11.0607149 18.1473021,10.5316936 C18.0855149,10.3509277 18.0751319,9.95705532 18.0766638,9.55926809 C18.0804085,8.48131064 18.0821106,7.40318298 18.0763234,6.32522553 C18.0708766,5.32437447 17.9348766,4.35926809 16.8867064,3.89118298 C15.8821106,3.44233191 15.0176,3.82360851 14.2170894,4.46037447 C14.0402383,4.60097021 13.9205787,4.88777872 13.6194723,4.80709787 C13.5124085,4.44965106 13.719217,4.06445957 13.4589617,3.71790638 C13.0460255,3.84760851 12.6320681,3.94803404 12.2426213,4.10786383 C11.8523234,4.26820426 11.3595574,4.22462979 10.9883234,4.69203404 C11.3570043,4.72437447 11.6233872,4.74769362 12.0914723,4.78871489" id="Fill-18"></path>
            <path d="M57.9301447,3.83109787 C57.3875064,4.12760851 56.9844426,3.90122553 56.5590809,3.79126809 C55.2957617,3.46497021 54.0164426,3.99382128 53.5902298,4.99484255 C53.1558468,6.0154383 53.5543149,7.00573617 54.7243574,7.7875234 C54.9587404,7.94411915 55.2145702,8.06854468 55.457634,8.21288511 C55.9189106,8.48658723 56.4018043,8.73186383 56.8310809,9.04897021 C57.2489532,9.35773617 57.4198468,9.81458723 57.2535489,10.3316936 C57.0988255,10.8130553 56.7255489,11.0297362 56.2365277,11.1076936 C55.2404426,11.2663319 54.4826553,10.7916085 54.0475915,9.77867234 C53.9141447,9.4675234 53.9948255,9.03348085 53.5061447,8.78445957 L53.5061447,11.4399489 C53.8921872,11.3131404 54.2564426,11.235183 54.6516766,11.3500766 C55.0550809,11.4675234 55.4828255,11.534417 55.9030809,11.5546723 C57.1221447,11.6133957 58.1873362,10.9582468 58.4765277,10.0108426 C58.7919319,8.97799149 58.3946553,8.18701277 57.1764426,7.45322553 C56.4986553,7.04488511 55.8004426,6.66939574 55.1325277,6.2460766 C54.6189957,5.92062979 54.4332936,5.41322553 54.6399319,4.84386383 C54.8411234,4.28931064 55.353634,4.12862979 55.8843574,4.14258723 C56.6923574,4.16403404 57.1521021,4.67977872 57.4508255,5.37714043 C57.563166,5.6394383 57.5326979,5.98309787 57.9301447,6.20488511 L57.9301447,3.83109787 Z" id="Fill-20"></path>
            <path d="M20.9041362,4.45569362 L22.5053277,4.45569362 C22.6074553,4.24650213 22.645583,4.09109787 22.4714553,3.86097021 L20.8600511,3.86097021 L20.8600511,1.82165106 C20.0397957,2.69722553 19.3614979,3.60684255 18.4014979,4.25194894 C18.7342638,4.60309787 19.1238809,4.30760851 19.3894128,4.63628936 C19.3894128,5.86318298 19.3889021,7.13535319 19.3897532,8.4075234 C19.3900936,9.11424681 19.3369872,9.82692766 19.5419234,10.5164596 C19.766434,11.2725447 20.3383489,11.6281191 21.1706894,11.5550979 C22.0203915,11.4805447 22.7737532,10.8587574 22.8534128,10.1670128 C22.6409872,10.1036936 22.5667745,10.3042043 22.4331574,10.3889702 C21.6146043,10.9088 20.9410723,10.6097362 20.9162213,9.64275745 C20.8726468,7.94914043 20.9041362,6.25348085 20.9041362,4.45569362" id="Fill-22"></path>
            <path d="M47.3196936,11.3389957 C45.9316085,10.7612936 45.9316085,10.7612936 45.9314383,9.19720851 C45.9314383,8.31942128 45.9491404,7.4411234 45.9263319,6.56384681 C45.9038638,5.69065532 46.3088,5.13116596 47.1062468,4.77354894 C47.3253106,4.92844255 47.5217362,5.08759149 47.7368851,5.21525106 C48.1116936,5.43788936 48.5207149,5.51499574 48.7825021,5.09065532 C49.0475234,4.66086809 49.0005447,4.18597447 48.5603745,3.88571915 C48.0565447,3.54205957 47.5162894,3.66461277 47.0572255,4.00095319 C46.6875234,4.27210213 46.3734809,4.61950638 46.0121191,4.95397447 C45.8272681,4.53031489 46.0507574,4.11550638 45.8219915,3.71874043 C44.9932255,4.0836766 44.0628426,4.2116766 43.1758638,4.78835745 C43.6403745,4.96248511 43.9814809,4.74614468 44.378417,5.12708085 C44.4914383,6.89644255 44.4956936,8.79822979 44.3263319,10.6938894 C44.0865021,11.0986553 43.4757787,10.8552511 43.2570553,11.3389957 L47.3196936,11.3389957 Z" id="Fill-24"></path>
            <path d="M30.2676596,4.90556596 C30.5942979,5.26454468 30.5677447,5.60990638 30.5675745,5.94948085 C30.5670638,7.11254468 30.5151489,8.27867234 30.5840851,9.43765106 C30.6380426,10.3442043 30.4499574,10.985566 29.4542128,11.154417 C29.4428085,11.1562894 29.4475745,11.2533106 29.4451915,11.2979064 L33.4525106,11.2979064 C32.076,10.7620766 32.076,10.7620766 32.0758298,9.19901277 C32.0756596,8.31969362 32.1010213,7.43935319 32.0685106,6.56122553 C32.0356596,5.68020426 32.4206809,5.11458723 33.2014468,4.79254468 C33.7908936,5.02641702 34.2822979,5.86437447 34.9713191,5.02165106 C35.0931915,4.53348085 35.0935319,4.04377872 34.5888511,3.83305532 C33.4501277,3.35765106 32.8579574,4.27271489 32.1255319,4.98488511 C32.0845106,4.51237447 32.052,4.13739574 32.012,3.67662979 C31.1040851,4.09671489 30.1689362,4.21705532 29.1798298,4.84360851 C29.7229787,4.87458723 29.9982128,4.89024681 30.2676596,4.90556596" id="Fill-26"></path>
            <path d="M49.1914553,11.3145702 L53.1628596,11.3145702 C52.8469447,10.9838468 52.3300085,11.1208681 52.0122213,10.511166 C51.8014979,8.38691064 52.0508596,6.05363404 51.8814979,3.68410213 C50.9005617,4.04069787 50.0307745,4.35678298 49.0236255,4.72274043 C49.5352851,5.00988936 49.9392,4.70895319 50.3155404,5.05686809 C50.463966,5.27320851 50.4826894,5.60818723 50.4821787,5.94929362 C50.4811574,6.96716596 50.4920511,7.98520851 50.4796255,9.00308085 C50.4678809,9.98486809 50.7480511,11.1475915 49.1914553,11.3145702" id="Fill-28"></path>
            <path d="M50.9966468,1.72895319 C51.6197957,1.7250383 51.9668596,1.41508085 51.9600511,0.858825532 C51.9540936,0.355676596 51.6260936,0.00997446809 51.0997957,0.000272340426 C50.5343489,-0.0101106383 50.1942638,0.3264 50.1908596,0.885208511 C50.1877957,1.40861277 50.5059234,1.7010383 50.9966468,1.72895319" id="Fill-30"></path>
            <path d="M131.425753,30.4455489 L133.883115,30.4455489 C134.148306,30.640783 134.00754,30.8484426 134.070689,31.091166 L128.185753,31.091166 C128.034434,30.9321872 128.124306,30.7328681 128.128391,30.4569532 L130.67154,30.4569532 L130.67154,15.5434213 L128.250604,15.5434213 C128.049072,15.2785702 128.083796,15.0698894 128.182349,14.8273362 L134.03086,14.8273362 C136.409243,18.4492936 138.8152,22.1132936 141.320221,25.9281021 L141.320221,15.5253787 L138.841072,15.5253787 C138.652647,15.2732936 138.720562,15.0801021 138.748987,14.8423149 L144.588647,14.8423149 C144.686009,15.0482723 144.684647,15.2368681 144.577923,15.5158468 L142.057072,15.5158468 L142.057072,31.569634 L141.866094,31.6588255 C138.422009,26.3868255 134.977753,21.1148255 131.425753,15.6773787 L131.425753,30.4455489 Z" id="Fill-32"></path>
            <path d="M10.3413957,0.438314894 L10.3413957,2.74793191 C9.87909787,2.8117617 9.89033191,2.51031489 9.83245957,2.27337872 C9.65645957,1.55218723 9.20318298,1.17686809 8.4595234,1.10044255 C7.19194894,0.969889362 5.92982128,1.00716596 4.59688511,1.07405957 L4.59688511,5.22418723 C5.62497021,5.22418723 6.63977872,5.24920851 7.65254468,5.21533617 C8.31450213,5.19320851 8.76199149,4.85091064 8.89867234,4.15729362 C8.93645957,3.96546383 8.89833191,3.65959149 9.33935319,3.71337872 L9.33935319,7.6010383 C9.16948085,7.54844255 9.07467234,7.53874043 9.07109787,7.51525106 C8.86054468,6.11899574 7.8874383,5.90384681 6.7114383,5.95661277 C6.01067234,5.98810213 5.3075234,5.9624 4.57765106,5.9624 L4.57765106,10.5649532 C5.8501617,10.7983149 7.0821617,10.7147404 8.32199149,10.6301447 C9.71773617,10.535166 10.2562894,9.31491064 11.1087149,8.47678298 C11.1347574,9.5411234 10.7197787,10.4132936 10.5505872,11.325634 L-5.10638298e-05,11.325634 C0.457991489,10.8839319 0.908204255,10.991166 1.27960851,10.9041872 C2.40794894,10.6405277 2.71024681,10.3092936 2.7114383,9.17278298 C2.71382128,6.98878298 2.71331064,4.80495319 2.71160851,2.62095319 C2.71075745,1.40937872 2.36165106,1.01499574 1.1608,0.824357447 C0.815778723,0.769548936 0.422587234,0.862485106 0.0351829787,0.438314894 L10.3413957,0.438314894 Z" id="Fill-34"></path>
            <path d="M38.0755915,10.0494298 C39.0806979,11.1547915 40.2395064,11.2749617 41.0732085,10.4131745 C42.1404426,9.31019574 42.1138894,6.34168511 41.0104,5.27819574 C40.4512511,4.73930213 39.7944,4.61045106 39.0531234,4.89657872 C38.3246128,5.17777021 38.0218043,5.66015319 38.060783,6.46236596 C38.1183149,7.64772766 38.0755915,8.83802553 38.0755915,10.0494298 M35.3741447,17.3610894 C35.3043574,16.9336851 35.6395064,16.9311319 35.901634,16.8753021 C36.3179745,16.7866213 36.559166,16.5542809 36.5589957,16.1197277 C36.5578043,12.5233021 36.5538894,8.9268766 36.5450383,5.33045106 C36.5446979,5.22628085 36.4796766,5.12211064 36.4754213,5.10985532 C36.1824851,4.71972766 35.743166,5.02202553 35.4018894,4.62151489 C36.2805277,4.30457872 37.1024851,4.00789787 37.920017,3.71291915 C38.2178894,4.02798298 37.9710809,4.40194043 38.1518468,4.74474894 C38.4674213,4.51938723 38.7620596,4.26542979 39.0944851,4.07870638 C40.6100596,3.22730213 42.3526979,3.83019574 43.0168681,5.48398298 C43.7307404,7.26185532 43.4534638,8.94304681 42.2458043,10.4204936 C41.2182298,11.6771745 39.7276766,11.8873872 38.0737191,11.0123234 C38.1249532,12.9597277 37.9734638,14.839217 38.2408681,16.7078128 C38.6975489,16.9891745 39.1835064,16.8206638 39.7387404,17.1925787 C38.1545702,17.423217 36.7421447,17.2050043 35.351166,17.3370894 C35.3513362,17.3370894 35.3741447,17.3610894 35.3741447,17.3610894" id="Fill-37"></path>
            <path d="M57.9301447,3.83109787 L57.9301447,6.20488511 C57.5326979,5.98309787 57.563166,5.6394383 57.4508255,5.37714043 C57.1521021,4.67977872 56.6923574,4.16403404 55.8843574,4.14258723 C55.353634,4.12862979 54.8411234,4.28931064 54.6399319,4.84386383 C54.4332936,5.41322553 54.6189957,5.92062979 55.1325277,6.2460766 C55.8004426,6.66939574 56.4986553,7.04488511 57.1764426,7.45322553 C58.3946553,8.18701277 58.7919319,8.97799149 58.4765277,10.0108426 C58.1873362,10.9582468 57.1221447,11.6133957 55.9030809,11.5546723 C55.4828255,11.534417 55.0550809,11.4675234 54.6516766,11.3500766 C54.2564426,11.235183 53.8921872,11.3131404 53.5061447,11.4399489 L53.5061447,8.78445957 C53.9948255,9.03348085 53.9141447,9.4675234 54.0475915,9.77867234 C54.4826553,10.7916085 55.2404426,11.2663319 56.2365277,11.1076936 C56.7255489,11.0297362 57.0988255,10.8130553 57.2535489,10.3316936 C57.4198468,9.81458723 57.2489532,9.35773617 56.8310809,9.04897021 C56.4018043,8.73186383 55.9189106,8.48658723 55.457634,8.21288511 C55.2145702,8.06854468 54.9587404,7.94411915 54.7243574,7.7875234 C53.5543149,7.00573617 53.1558468,6.0154383 53.5902298,4.99484255 C54.0164426,3.99382128 55.2957617,3.46497021 56.5590809,3.79126809 C56.9844426,3.90122553 57.3875064,4.12760851 57.9301447,3.83109787" id="Fill-39"></path>
            <path d="M47.3196936,11.3389957 L43.2570553,11.3389957 C43.4757787,10.8552511 44.0865021,11.0986553 44.3263319,10.6938894 C44.4956936,8.79822979 44.4914383,6.89644255 44.378417,5.12708085 C43.9814809,4.74614468 43.6403745,4.96248511 43.1758638,4.78835745 C44.0628426,4.2116766 44.9932255,4.0836766 45.8219915,3.71874043 C46.0507574,4.11550638 45.8272681,4.53031489 46.0121191,4.95397447 C46.3734809,4.61950638 46.6875234,4.27210213 47.0572255,4.00095319 C47.5162894,3.66461277 48.0565447,3.54205957 48.5603745,3.88571915 C49.0005447,4.18597447 49.0475234,4.66086809 48.7825021,5.09065532 C48.5207149,5.51499574 48.1116936,5.43788936 47.7368851,5.21525106 C47.5217362,5.08759149 47.3253106,4.92844255 47.1062468,4.77354894 C46.3088,5.13116596 45.9038638,5.69065532 45.9263319,6.56384681 C45.9491404,7.4411234 45.9314383,8.31942128 45.9314383,9.19720851 C45.9316085,10.7612936 45.9316085,10.7612936 47.3196936,11.3389957" id="Fill-41"></path>
            <path d="M30.2676596,4.90556596 C29.9982128,4.89024681 29.7229787,4.87458723 29.1798298,4.84360851 C30.1689362,4.21705532 31.1040851,4.09671489 32.012,3.67662979 C32.052,4.13739574 32.0845106,4.51237447 32.1255319,4.98488511 C32.8579574,4.27271489 33.4501277,3.35765106 34.5888511,3.83305532 C35.0935319,4.04377872 35.0931915,4.53348085 34.9713191,5.02165106 C34.2822979,5.86437447 33.7908936,5.02641702 33.2014468,4.79254468 C32.4206809,5.11458723 32.0356596,5.68020426 32.0685106,6.56122553 C32.1010213,7.43935319 32.0756596,8.31969362 32.0758298,9.19901277 C32.076,10.7620766 32.076,10.7620766 33.4525106,11.2979064 L29.4451915,11.2979064 C29.4475745,11.2533106 29.4428085,11.1562894 29.4542128,11.154417 C30.4499574,10.985566 30.6380426,10.3442043 30.5840851,9.43765106 C30.5151489,8.27867234 30.5670638,7.11254468 30.5675745,5.94948085 C30.5677447,5.60990638 30.5942979,5.26454468 30.2676596,4.90556596" id="Fill-43"></path>
            <path d="M50.9966468,1.72895319 C50.5059234,1.7010383 50.1877957,1.40861277 50.1908596,0.885208511 C50.1942638,0.3264 50.5343489,-0.0101106383 51.0997957,0.000272340426 C51.6260936,0.00997446809 51.9540936,0.355676596 51.9600511,0.858825532 C51.9668596,1.41508085 51.6197957,1.7250383 50.9966468,1.72895319" id="Fill-45"></path>
            <path d="M56.6513021,23.2251404 C56.6296851,24.715183 56.7278979,26.4750128 56.3372596,28.2103319 C56.0221957,29.6098213 55.190366,30.4494809 53.7731745,30.6893106 C52.6438128,30.8804596 51.5113872,30.8879489 50.4019404,30.5859915 C49.214366,30.2627574 48.4996426,29.4166298 48.3164936,28.2460766 C47.7786213,24.8103319 47.8016,21.3589277 48.2802383,17.9170553 C48.4911319,16.4006298 49.4644085,15.5832681 50.9421957,15.3601191 C51.8427915,15.2241191 52.7571745,15.2171404 53.6564085,15.3562043 C55.3821957,15.6229277 56.211983,16.5502468 56.4684936,18.3752681 C56.6824511,19.8986723 56.6492596,21.429566 56.6513021,23.2251404 M56.3016851,15.4908426 C53.5261957,13.9750979 50.670366,14.0326298 47.974366,15.6899915 C45.0638979,17.4792681 44.1250043,20.3119489 44.2337702,23.5682894 C44.419983,29.1470128 49.1793021,32.6964596 54.5571745,31.2979915 C58.1438979,30.3652255 60.3828766,27.1762894 60.3782809,22.1740766 C60.3124085,19.7990979 59.2388766,17.0949277 56.3016851,15.4908426" id="Fill-47"></path>
            <path d="M123.9048,28.2518979 C123.574417,29.6084936 122.779694,30.4369191 121.393651,30.6786213 C120.264119,30.8757277 119.134757,30.8867915 118.022757,30.5957277 C116.463949,30.187217 115.894928,28.9628766 115.743609,27.5405787 C115.421566,24.5167489 115.412204,21.4793021 115.742587,18.455983 C115.977311,16.3085787 117.065821,15.3788766 119.241651,15.2963234 C120.033311,15.2661957 120.822757,15.2578553 121.610672,15.4331745 C122.850672,15.7092596 123.582417,16.4549617 123.891694,17.6709617 C124.338843,19.4292596 124.188034,21.2210894 124.229396,23.0030468 C124.185991,24.7564085 124.327438,26.5170894 123.9048,28.2518979 M127.935609,22.1446638 C127.606587,18.7664511 126.070757,16.1933447 122.791609,14.9976 C119.589736,13.8301106 116.599438,14.3882383 114.159609,16.8105362 C111.904289,19.0498553 111.469736,21.9065362 111.975098,24.9301957 C112.711949,29.3407489 116.568289,32.1356426 120.982077,31.512834 C125.265651,30.9082383 127.958928,27.6571745 127.939523,23.0787915 C127.939523,22.7673021 127.965396,22.4534298 127.935609,22.1446638" id="Fill-49"></path>
            <path d="M76.9844255,25.4583489 C77.7657021,23.3082213 78.5222979,21.2251574 79.3396596,18.9756255 C80.1534468,21.2261787 80.9052766,23.3049872 81.684,25.4583489 L76.9844255,25.4583489 Z M88.6676596,30.4498383 L86.5827234,30.4498383 C84.5180426,25.0445617 82.4666383,19.6740085 80.336766,14.0983489 C78.3891915,19.6847319 76.5131064,25.0658383 74.6261277,30.4787745 L72.1524255,30.4787745 C72.0106383,30.717583 71.9874894,30.8980085 72.1388085,31.1138383 L77.748,31.1138383 C77.7791489,30.8803064 77.8620426,30.6683915 77.6363404,30.448817 L75.1755745,30.448817 C75.7175319,28.9580936 76.2174468,27.5826043 76.7073191,26.2348596 L81.9675745,26.2348596 C82.4685106,27.6352 82.9590638,29.0071149 83.4814468,30.4683915 L81.0055319,30.4683915 C81.0089362,30.7228596 80.8661277,30.9294979 81.0737872,31.0998809 L88.8089362,31.0998809 C88.8251064,30.8607319 88.9040851,30.6605617 88.6676596,30.4498383 Z" id="Fill-51"></path>
            <path d="M62.2917617,4.37572766 C63.1673362,4.45708936 63.6270809,5.10764255 63.5766979,6.19904681 L60.3072511,6.19904681 C60.5237617,4.82815319 61.1455489,4.26917447 62.2917617,4.37572766 M61.647166,10.0024511 C60.4701447,9.32364255 60.3275064,8.0722383 60.1853787,6.7762383 L65.445634,6.7762383 C65.3239319,4.30764255 63.3732936,3.0788766 61.1649532,3.97317447 C58.3314213,5.12074894 58.4788255,9.58730213 60.1149106,10.8579404 C61.1795915,11.6844936 62.3542298,11.7813447 63.5624,11.2833021 C64.708783,10.8106213 65.3921872,9.90491915 65.7125277,8.66508936 C64.5898043,9.92006809 63.4063149,11.0170894 61.647166,10.0024511" id="Fill-53"></path>
            <path d="M25.8343149,4.3701617 C26.8937191,4.34003404 27.3073362,4.78258723 27.4988255,6.21594894 L24.1778043,6.21594894 C24.2775489,5.00845957 24.8329532,4.39858723 25.8343149,4.3701617 M29.4149106,8.6168 C28.5020596,9.8901617 27.3910809,10.875183 25.7345702,10.1395234 C24.3539745,9.52641702 24.1919319,8.17237447 24.032783,6.78394894 L29.2526979,6.78394894 C29.2361872,4.48573617 27.4639319,3.18428936 25.3582298,3.85986383 C23.4159319,4.48318298 22.4479319,6.44097021 22.8978043,8.83586383 C23.2188255,10.5449702 24.340017,11.542417 25.9629957,11.5628426 C27.640783,11.5837787 29.2555915,10.3524596 29.5795064,8.79858723 C29.5858043,8.76897021 29.5138043,8.72318298 29.4149106,8.6168" id="Fill-55"></path>
        </g>
    </g>
</svg>