<svg width="153" height="30" xmlns="http://www.w3.org/2000/svg"><path d="M143.74 17.72c2.298 0 3.937-1.64 3.937-3.937 0-2.626-1.64-4.267-3.937-4.267-1.97 0-3.938 1.641-3.938 3.938 0 2.626 1.968 4.267 3.938 4.267zm8.861 1.97c0 2.298-.328 5.58-.985 6.892-1.312 1.969-4.266 3.937-8.204 3.282-5.578-.327-7.22-2.954-7.548-5.578h5.25c.657 1.641 2.299 1.641 2.627 1.641 2.625 0 3.937-.329 3.937-5.58v-.327c-.656.657-1.968 2.298-4.593 2.298-4.268 0-8.205-3.61-8.205-8.533 0-5.579 3.937-8.86 8.205-8.86 1.968 0 3.61.656 4.593 1.968V5.581h4.923V19.69zM125.034 5.578h4.594V7.22c.657-.327 2.625-1.969 4.595-1.64v4.594c-1.97 0-4.266 0-4.266 2.625v8.861h-4.923V5.58zm-6.563 6.236c-.327-.985-1.312-2.953-3.939-2.953-2.296 0-3.28 1.969-3.61 2.953h7.549zm4.266 4.923c-.984 1.64-1.969 2.953-3.281 3.938-1.642.985-2.954 1.641-4.924 1.641-4.593 0-8.532-3.938-8.532-8.86 0-4.267 3.61-8.533 8.532-8.533 4.924 0 8.533 3.939 8.533 8.861v1.313h-12.142c.328 1.97 1.97 2.954 3.61 2.954s2.297-.658 2.953-1.313h5.25v-.001zm-26.91.984c2.298 0 3.937-1.97 3.937-4.266 0-1.97-1.64-3.938-3.937-3.938-2.626 0-3.938 1.97-3.938 3.938 0 2.298 1.312 4.266 3.938 4.266zM86.967 0h4.921v6.892c1.641-1.97 3.938-1.97 4.595-1.97 3.61 0 8.204 2.298 8.204 8.533 0 5.907-4.266 8.86-8.204 8.86-2.298 0-3.939-1.311-4.595-2.297h-.327v1.641h-4.595V0zM60.055 5.578h4.595V7.22c.328-.656 1.64-2.297 4.594-2.297 1.313 0 3.282.656 4.595 2.953.984-1.64 2.625-2.953 5.251-2.953.984 0 2.954.327 4.266 1.64 1.312 1.642 1.64 2.626 1.64 6.236v8.86h-4.922v-8.531c0-1.313 0-3.61-2.297-3.61-2.954 0-2.954 2.297-2.954 3.282v8.861H70.23V12.8c0-.657 0-3.283-2.625-3.283-2.626 0-2.626 2.625-2.626 3.61v8.533h-4.922V5.578h-.001zm-9.845 12.143c1.97 0 3.938-1.64 3.938-4.266 0-2.298-1.97-3.938-3.938-3.938-1.968 0-3.938 1.64-3.938 3.938 0 2.625 1.969 4.266 3.938 4.266zm0-12.799c5.907 0 8.86 4.595 8.86 8.533 0 3.937-2.953 8.86-8.86 8.86-5.908 0-8.86-4.923-8.86-8.86 0-3.938 2.952-8.533 8.86-8.533zM31.833 17.721c1.97 0 3.61-1.64 3.61-4.266 0-2.298-1.64-3.938-3.61-3.938-2.298 0-3.938 1.64-3.938 3.938 0 2.625 1.64 4.266 3.938 4.266zm0-12.799c5.907 0 8.532 4.595 8.532 8.533 0 3.937-2.625 8.86-8.532 8.86-5.908 0-8.861-4.923-8.861-8.86 0-3.938 2.954-8.533 8.86-8.533zM16.737 21.66h4.922V0h-4.922v21.66zM5.58 16.737h2.297c.656 0 2.297 0 2.297-1.97 0-1.969-1.64-1.969-2.297-1.969H5.58v3.939zm0-8.533h1.64c.657 0 1.97 0 1.97-1.641 0-1.64-1.313-1.64-1.97-1.64H5.58v3.281zM0 0h6.564c3.61 0 4.922.328 6.564 2.297.984.985 1.312 2.298 1.312 3.61 0 1.641-.657 2.954-2.626 3.938 3.61 1.312 3.61 4.266 3.61 5.25 0 1.64-.656 3.61-1.968 4.594-1.97 1.642-2.954 1.97-6.563 1.97H0V0z" fill-rule="evenodd"/></svg>