<?xml version="1.0" encoding="UTF-8"?>
<svg width="163px" height="38px" viewBox="0 0 163 38" version="1.1" xmlns="http://www.w3.org/2000/svg" xmlns:xlink="http://www.w3.org/1999/xlink">
    <!-- Generator: Sketch 52.5 (67469) - http://www.bohemiancoding.com/sketch -->
    <title>logo-fullerton</title>
    <desc>Created with Sketch.</desc>
    <g id="V2" stroke="none" stroke-width="1" fill="none" fill-rule="evenodd">
        <g id="employers" transform="translate(-425.000000, -4041.000000)">
            <g id="guardian" transform="translate(0.000000, 3952.000000)">
                <g id="Group-14" transform="translate(168.000000, 81.000000)">
                    <g id="Group-26">
                        <g id="logo-fullerton" transform="translate(257.000000, 8.000000)">
                            <path d="M9.76149067,14.826992 C9.13491289,15.1007609 8.79527733,15.3821298 8.28996178,16.0374187 C5.86387289,19.1836498 6.34773956,24.1685742 9.36899289,26.9418987 C9.98864622,27.5103787 10.6500151,28.0413653 11.3343529,28.5299609 C13.9722284,30.4135787 16.9007618,31.9550276 18.6465662,34.8938631 C18.640824,33.793552 18.4601129,32.7662009 18.1322996,31.7624942 C16.8161484,27.7322987 14.2362018,24.597552 11.0967262,21.8679698 C10.6978107,21.5209031 10.4416062,21.1346542 10.2581929,20.6484231 C9.54446844,18.7556853 9.51981067,16.8089031 9.76149067,14.826992 Z M15.6334196,19.5462542 C17.0623884,18.8603964 18.353544,19.0517476 19.6004507,19.8044853 C18.1934373,19.9379076 16.7847351,19.9853653 15.7166818,21.1719787 C15.8832062,21.5969031 15.8109218,22.0730009 16.1333307,22.4590809 C16.6832329,22.7515964 17.2839707,22.9662542 17.8931529,22.7056587 C19.4325751,22.0473298 21.0392151,21.7070187 22.656664,21.5904853 C23.0373396,21.3065831 23.1057396,20.8652764 23.0270373,20.5692142 C22.8263973,19.8139431 22.6737218,19.0549564 22.5315173,18.2885387 C22.4705484,17.9603876 22.1508418,17.7719076 21.8316418,17.7661653 C21.0582996,17.7524853 20.7114018,17.2500409 20.3955796,16.6563964 C19.9613662,15.8399876 19.5242818,15.0225653 19.0407529,14.2350364 C18.3168951,13.0558542 18.0638996,12.975632 16.7794996,13.3536053 C15.7217484,13.1229031 14.8129573,12.4355253 13.6043884,12.3831698 C13.9663173,11.2698542 14.976104,11.3276142 15.5846107,11.0104409 C16.5010018,11.1749387 17.0581662,12.0928498 18.1290907,11.7777031 C17.8718729,11.3651076 17.725784,11.1278187 17.5764862,10.8923876 C17.417224,10.6410809 17.2549218,10.391632 17.0916062,10.137792 C18.020664,9.66574756 19.0772329,9.57978311 19.7999084,9.89678756 C18.4683884,11.1018098 18.2920684,11.7236587 18.9412773,12.9092587 C20.8610373,13.0506187 20.8167884,15.0061831 21.8220151,16.0340409 C22.5965396,15.9580409 23.2785129,16.2964942 23.9665662,16.6244764 C24.5161307,16.5195964 25.0792062,16.5214542 25.6270818,16.2870364 C25.9297307,16.938272 25.9842818,17.5682276 25.5696596,18.1868676 C25.2318818,18.269792 24.781624,18.1417742 24.6434729,18.5113031 C24.263304,19.5280142 23.5512684,20.4359609 23.5100596,21.7021209 C24.9052507,21.7973742 25.9893484,22.4062187 26.8385218,23.6325209 C27.7719707,21.6408142 28.9062284,19.8836942 27.5438018,17.6940498 C28.8347884,14.8177031 27.9319084,12.4051253 25.480824,10.4149387 C26.2411618,10.1969031 26.8577751,10.0200764 27.4681396,9.84510756 C28.3929751,10.119552 28.4449929,10.9386631 28.6003707,11.777872 C29.0793396,10.966192 29.2848773,10.2256142 28.7728062,9.48098311 C28.2744151,8.75644978 27.5606907,8.69210311 26.7479973,8.88784533 C26.2372773,9.01096533 25.6946373,8.99508978 25.1964151,8.90169422 C25.0236418,8.71760533 25.0276951,8.51628978 24.9907084,8.32341867 C24.4566818,5.53877867 23.240344,3.360112 20.1302551,2.86830756 C19.9932862,2.84668978 19.862904,2.78487644 19.7266107,2.75532089 C18.2920684,2.44490311 16.8575262,2.17636978 15.272504,2.82101867 C15.9814996,3.03010311 16.5467707,3.17602311 17.0971796,3.36517867 C17.6638018,3.56007644 18.3121662,3.68640533 18.4244773,4.58742756 C15.9114107,4.04748978 13.8203973,4.63116978 12.434664,6.80004089 C10.8631529,6.51140978 9.50359733,5.986672 8.12985511,5.54857422 C7.398904,5.91725867 6.86048622,6.43456533 6.584184,7.17716978 C5.93497511,8.921792 6.69277956,10.4674631 7.34029956,11.9886453 C6.83278844,13.1931609 6.41563289,14.3720053 6.30349067,15.6516764 C7.04254844,14.6677298 7.66541067,13.6116676 8.426424,12.6517031 C9.94051289,10.7417387 11.7388418,9.36292978 14.378744,9.35549867 C13.5515262,10.2124409 12.6949218,10.9800409 12.0039973,11.9036942 C11.3878907,12.7271964 11.0474107,13.6086276 11.1813396,14.650672 C11.2995618,15.5692587 11.3975173,16.494432 11.6864862,17.376032 C11.9779884,18.2648942 12.2450018,19.1782453 13.0727262,20.061872 C12.6123351,17.6726009 12.3066462,15.4903876 12.9171796,13.0360942 C13.4066196,14.7121476 14.6513307,15.3882098 15.6352773,16.280112 C16.7982462,15.7219342 16.7982462,15.7219342 17.3446018,15.8001298 C15.9673129,17.1843431 15.7092507,17.7371164 15.6334196,19.5462542 Z M29.0381307,13.6849653 C29.1386196,13.5390453 29.0484329,13.554752 28.9405129,13.5603253 C28.9854373,13.6086276 29.0175262,13.6430809 29.0496151,13.6777031 C29.5934373,14.845232 30.0404862,16.0326898 29.8466018,17.3679253 C29.4245484,17.3925831 29.1634462,16.8648053 28.6821129,17.1573209 C29.4909218,18.452192 29.9606018,19.8759253 30.329624,21.3501564 C30.6538907,22.6455342 30.5329662,23.8286009 29.8504862,24.9819431 C29.2369129,26.0189209 28.645464,27.0719431 28.1067084,28.1489476 C27.0884773,30.1843964 26.4455173,32.3029387 26.9185751,34.7607787 C27.2685129,33.8399964 27.5483618,33.0269653 27.9526818,32.2651076 C28.9415262,30.4015876 30.3603618,28.876352 31.8293573,27.4083698 C32.7595973,26.4788053 33.0956862,25.4036587 33.0983884,24.1528676 C33.1027796,22.1469742 32.4642107,20.3565831 31.2434818,18.7246098 C31.2434818,18.0924587 31.2791173,17.4442631 31.2362196,16.8009653 C31.142824,15.4062809 30.1818462,14.0734098 29.0381307,13.6849653 Z M17.256104,24.4563609 C17.2110107,24.4193742 17.1660862,24.3825564 17.0394196,24.2781831 C17.0909307,24.4448764 17.110184,24.5073653 17.1294373,24.5698542 C17.788104,25.9103253 18.684904,27.0942364 19.5523173,28.3073653 C21.2376596,28.7610009 22.9159084,28.886992 24.6449929,28.5162809 C24.8846462,27.7339876 25.1410196,26.9944231 25.3354107,26.2389831 C25.5895884,25.2508142 24.9246729,23.9571253 23.956264,23.7146009 C22.6122462,23.3778364 21.2501573,23.1859787 20.0091618,24.1256764 C19.5666729,24.460752 19.061864,24.7139164 18.6050196,24.9924142 C18.0780862,24.9338098 17.7033218,24.6031253 17.256104,24.4563609 Z M5.06666667e-05,16.5493209 C0.403019556,15.7731076 0.391197333,14.8928587 0.618521778,14.0698631 C2.67896622,6.61088533 8.84780178,1.25406756 16.512824,0.311836444 C26.6926018,-0.939799111 36.0439796,6.16484978 37.4687262,16.232992 C38.9095173,26.413952 31.8139884,35.9710364 21.7002462,37.4692498 C20.3045484,37.6761387 18.9014196,37.7055253 17.4525218,37.6329031 C16.9470373,36.576672 16.3954462,35.5393564 15.6219351,34.6395164 C14.1448329,32.9214098 12.0294996,32.4429476 10.0252951,31.7483076 C9.86772178,31.6937564 9.69950844,31.6696053 9.53619289,31.6314364 C9.422024,31.5898898 9.30616622,31.5371964 9.20517067,31.6910542 C9.28640622,31.7241564 9.35700178,31.7528676 9.42776622,31.7817476 C10.6915618,32.8454098 12.1195173,33.7077564 13.2541129,34.9311876 C13.8496151,35.5729653 14.3704684,36.2547698 14.7058818,37.123872 C14.0467084,37.1828142 13.5037307,36.9234009 12.9594018,36.7445476 C10.1142996,35.809072 7.62605956,34.2851876 5.494344,32.1727253 C4.96251289,31.6456231 4.59889511,31.0582276 4.34741956,30.3510898 C3.79211289,28.7895431 3.370904,27.1975964 3.06589067,25.5715342 C2.747704,23.8745387 3.24271733,22.2939076 3.77640622,20.7247609 C4.09155289,19.7985742 4.456184,18.8891076 4.798184,17.9720409 C4.863544,17.8967164 4.93245067,17.8217298 4.78923289,17.7492764 C4.76288622,17.7974098 4.73873511,17.8414898 4.71475289,17.8854009 C2.67052178,19.8899431 1.57037956,22.3629831 1.13008622,25.2067342 C0.467028444,23.9398987 0.494219556,22.5342364 5.06666667e-05,21.2782098 L5.06666667e-05,16.5493209 Z M25.3155156,11.5036302 C25.26924,11.9849636 24.8321556,12.3604036 24.8495511,12.9070969 C25.4864311,13.1025013 25.86356,12.5433102 26.4482533,12.5228747 C26.91996,12.9131769 27.33036,13.388768 27.3982533,14.1800124 C26.5948489,14.0497991 25.9420933,14.3152924 25.3101111,14.4407769 C25.0802533,14.6505369 25.2339422,14.9084302 25.0804222,15.1597369 C24.6715422,14.691408 24.2744844,14.2365902 23.8345289,13.732288 C24.71748,12.447888 23.97724,11.4299947 23.2194356,10.4082169 C24.0571244,10.4169991 24.67188,10.7426169 25.3155156,11.5036302 Z M8.79401067,10.2876809 C7.62073956,9.04888089 7.57834844,8.022712 8.62664178,6.90128978 C9.64639289,7.43244533 10.7115751,7.89942311 11.8900818,8.34005422 C10.7222151,8.86952089 9.70161956,9.43968978 8.79401067,10.2876809 Z M21.3294,8.46075911 C20.36268,8.06792356 19.4957733,7.79027022 18.5312489,7.74703467 C18.2894,6.79163022 17.5543956,6.25827911 16.6925556,5.78488356 C18.5427333,5.15746133 20.5555511,6.31029689 21.3294,8.46075911 Z" id="Combined-Shape" fill="#B7872D"></path>
                            <path d="M162.133333,7.767048 C161.602853,7.75505689 161.064436,7.68125244 160.341929,8.09503022 C160.251573,12.137048 160.339902,16.3121502 160.295991,20.4843813 C159.997058,20.6988702 159.686809,20.5695013 159.333493,20.5953413 C156.336729,16.9850036 153.322907,13.3543991 150.246258,9.64796356 L150.246258,19.1891724 C150.54688,19.492328 150.821156,19.5445147 151.104213,19.5656258 C151.378827,19.5858924 151.654116,19.5961947 151.917076,19.6100436 C152.041547,19.8988436 152.034453,20.1349502 151.935822,20.4061858 L147.372107,20.4061858 C147.195618,20.1665324 147.251013,19.9093147 147.351502,19.6240613 C147.814427,19.5384347 148.318898,19.6478747 148.846507,19.2504791 L148.846507,8.52823022 C148.559902,8.18099467 148.09816,7.79069244 147.499956,7.69594578 C147.348631,7.42319022 147.382071,7.20363467 147.446418,6.93797244 L150.763058,6.93797244 C153.479129,10.2047902 156.221716,13.5033591 159.059218,16.9160969 L159.059218,8.19028356 C158.623316,7.60491467 158.018187,7.85199911 157.518613,7.70101244 C157.324391,7.48770578 157.405289,7.23707467 157.436027,6.92260356 L162.133333,6.92260356 L162.133333,7.767048 Z M162.133333,28.5403813 C161.826293,28.3255547 161.477707,28.4331369 161.150907,28.432968 C150.321413,28.4263813 139.491751,28.4275636 128.662258,28.4275636 L127.705502,28.4275636 C127.708373,28.302248 127.711076,28.1771013 127.713609,28.0516169 C139.186907,28.0455369 150.660036,28.0396258 162.133333,28.0337147 L162.133333,28.5403813 Z M110.722171,7.89957511 L110.722171,13.6429796 C111.998802,13.724384 113.196731,13.7088462 114.281166,13.0371751 C115.352935,12.3732729 115.770935,11.3589262 115.591068,10.0866862 C115.414242,8.83521956 114.614891,8.23515733 113.488064,7.993984 C112.585353,7.80077511 111.662375,7.823744 110.722171,7.89957511 Z M114.790535,14.1460996 C116.146713,15.3207218 116.980855,16.7528996 117.850126,18.1556907 C118.410837,19.0602596 119.168642,19.5998596 120.224873,19.5851662 C120.495264,19.8258329 120.320971,20.0908196 120.40626,20.3838418 L116.68986,20.3838418 C115.748473,19.0349262 114.792562,17.6142329 113.7821,16.2332284 C112.916037,15.0493173 112.029371,14.6436462 110.750037,14.741264 L110.750037,19.2619129 C111.262277,19.6397173 111.791744,19.5382151 112.265984,19.6125262 C112.520668,19.8312373 112.376775,20.0896373 112.422544,20.3840107 L106.835868,20.3840107 C106.6989,20.1575307 106.738926,19.9219307 106.819655,19.6635307 C107.310108,19.4801173 107.899024,19.6898773 108.418357,19.2345529 L108.418357,8.095824 C107.932126,7.62361067 107.337975,7.858704 106.848873,7.68964622 C106.693833,7.43293511 106.777602,7.199024 106.780811,6.87188622 C109.475264,7.007504 112.12226,6.62885511 114.739362,7.09904178 C116.737824,7.45809956 117.872926,8.74689067 117.942002,10.4602684 C117.987095,11.5786507 117.47418,12.3980996 116.667228,13.0854773 C116.149753,13.5264462 115.5529,13.8366951 114.790535,14.1460996 Z M144.988308,13.6548356 C144.970743,12.3452711 144.807765,11.0409422 144.19757,9.83423111 C143.426592,8.30899556 142.188974,7.56064889 140.46749,7.57027556 C138.742121,7.57990222 137.481534,8.33787556 136.787739,9.89705778 C135.667499,12.4155289 135.686245,14.9834844 136.812903,17.4857422 C137.475454,18.9569333 138.691454,19.7410844 140.356868,19.76304 C142.058423,19.7856711 143.341641,19.10944 144.146396,17.5885956 C144.793916,16.36432 144.969223,15.0360089 144.988308,13.6548356 Z M133.53325,13.6717244 C133.534939,9.75215111 136.642494,6.56386667 140.469179,6.55559111 C144.337748,6.54731556 147.468441,9.74522667 147.46101,13.6973956 C147.453579,17.5850489 144.300761,20.7848178 140.484548,20.7778933 C136.65685,20.7709689 133.531561,17.5759289 133.53325,13.6717244 Z M98.6070276,7.87606578 L98.6070276,12.9663769 C100.878414,13.492128 101.856619,12.9454347 102.290832,10.912688 C102.354165,10.8849902 102.426281,10.8316213 102.502619,10.824528 C102.662725,10.8101724 102.824859,10.8203058 103.016885,10.8203058 L103.016885,16.2823413 C102.794965,16.4645724 102.552948,16.3850258 102.259081,16.3313191 C102.153188,15.493968 102.165179,14.5480213 101.138672,14.2033191 C100.323783,13.9297191 99.4810276,14.0300391 98.589632,14.0398347 C98.589632,15.5838169 98.5778098,17.0663236 98.5958809,18.5483236 C98.6024676,19.1053191 98.9005564,19.4500213 99.4903164,19.4479947 C100.530672,19.4441102 101.580148,19.5074436 102.608174,19.3893902 C103.594992,19.2760658 104.365463,18.6760036 104.921952,17.8447324 C105.185756,17.4503769 105.416459,17.0338969 105.659659,16.6317724 C105.943054,16.526048 106.125623,16.7614791 106.445161,16.7484747 C106.115321,18.0166613 105.807436,19.2009102 105.493472,20.4077902 L94.7614276,20.4077902 C94.5940587,20.1608747 94.6320587,19.9230791 94.7325476,19.6378258 C95.196992,19.5136924 95.7369298,19.6575858 96.289872,19.2708302 L96.289872,8.08717689 C96.0547787,7.83654578 95.8090453,7.79179022 95.5531787,7.77456356 C95.3015342,7.75767467 95.0498898,7.74213689 94.8210453,7.72744356 C94.5643342,7.50011911 94.6800231,7.247968 94.6658364,6.94954133 L104.799339,6.94954133 C105.128841,7.90072356 105.473036,8.89463467 105.80237,9.84581689 C105.609499,10.1523502 105.360725,10.1893369 105.045072,10.2736124 C104.469499,9.143408 103.661196,8.22245689 102.335081,7.98584356 C101.115703,7.76814578 99.8829831,7.87471467 98.6070276,7.87606578 Z M56.1791324,8.004472 C55.7537013,7.67243644 55.2737191,7.81683644 54.8263324,7.714152 C54.608128,7.48682756 54.6554169,7.22758311 54.7613102,6.92712978 L60.3098169,6.92712978 C60.490528,7.17168089 60.4474613,7.40525422 60.3484924,7.65723644 C59.8257813,7.90854311 59.1400924,7.55877422 58.6337636,8.15883644 C58.6140036,8.36099644 58.5645191,8.63645422 58.5640124,8.91208089 C58.5606347,11.2476453 58.529728,13.5838853 58.5776924,15.9184364 C58.6413636,19.0163653 61.1750347,20.6088187 64.0393902,19.384712 C65.1939147,18.8912187 65.7064924,17.9168987 65.8691324,16.7412631 C66.2140036,14.248632 65.9633724,11.7397876 66.0297458,9.23921867 C66.040048,8.85161867 66.0991591,8.44898756 65.8993636,8.08992978 C65.4506258,7.58714756 64.8201636,7.86952978 64.2944124,7.68949422 C64.1130258,7.47314756 64.1792302,7.22944089 64.2304036,6.93962756 L68.8645458,6.93962756 C69.0330969,7.14854311 68.9756747,7.38920978 68.8925813,7.67733422 C68.4514436,7.87020533 67.8843147,7.624472 67.4328747,8.02710311 C67.1766702,8.31792978 67.2340924,8.723432 67.233248,9.11272089 C67.2290258,11.1388809 67.2269991,13.164872 67.2291947,15.1908631 C67.2298702,15.8399031 67.1712658,16.4808364 67.059968,17.1209253 C66.7275947,19.0322409 65.5604036,20.2436809 63.6666524,20.6187831 C62.3499947,20.8795476 61.0297902,20.8535387 59.7288391,20.5605164 C57.5917191,20.0795209 56.474688,18.6242053 56.4218258,16.1839298 C56.3711591,13.8493787 56.4069636,11.5131387 56.3997013,9.17757422 C56.3985191,8.78845422 56.461008,8.38396533 56.1791324,8.004472 Z M51.4672338,16.3239049 C51.1921138,16.4085182 50.9522916,16.427096 50.716016,16.3228916 C50.4429227,14.2183671 49.9151449,13.888696 47.0852427,14.0564027 L47.0852427,19.2097093 C47.744416,19.654056 48.3885582,19.5331316 48.9904782,19.6202782 C49.2007449,19.8401716 49.1130916,20.0913093 49.085056,20.388216 L43.1719182,20.388216 C42.9844516,20.2019316 43.0930471,19.9528204 43.1124693,19.6670604 C43.5968427,19.4851671 44.1827182,19.6831049 44.7155627,19.2684827 L44.7155627,8.083816 C44.2821938,7.61227822 43.6828071,7.86544267 43.1871182,7.688616 C43.0145138,7.46551378 43.0648427,7.22535378 43.1351004,6.93756711 L53.4162116,6.93756711 C53.7507804,7.893816 54.0986916,8.88806489 54.432416,9.84211822 C54.2490027,10.1511849 53.9963449,10.181416 53.6604249,10.2837627 C52.3297493,7.19529156 49.5702738,7.97420711 47.0372782,7.85514044 L47.0372782,12.9996649 C49.4746827,13.4247582 50.3640516,12.9135316 50.7077404,10.901896 C50.9404693,10.7703316 51.1823182,10.7990427 51.4672338,10.8769004 L51.4672338,16.3239049 Z M127.196589,19.2100978 C127.831443,19.7319644 128.498216,19.4813333 129.085105,19.64296 C129.2393,19.8787289 129.198429,20.1163556 129.120572,20.3989067 L123.087692,20.3989067 C122.960687,20.1224356 123.011692,19.8880178 123.078234,19.6358667 C123.622225,19.5277778 124.177194,19.62168 124.665114,19.3605778 C125.024678,18.7414311 125.190865,10.8137867 124.903923,7.98844444 C122.50874,7.64914667 121.095478,7.88998222 119.62226,10.6617867 C119.402029,10.57464 119.177069,10.4854667 118.963594,10.4010222 C119.262527,8.14787556 119.710927,6.80419556 120.027594,6.59832 C124.104572,7.04401778 127.933114,7.05212444 132.095887,6.58075556 C132.7353,7.54224 132.719087,8.99941333 133.172554,10.2657422 C132.961443,10.5209333 132.732936,10.5987911 132.356483,10.6602667 C131.483158,8.30477333 129.663718,7.54815111 127.196589,7.93676444 L127.196589,19.2100978 Z M93.7323369,15.9095022 C93.9711458,15.9816178 94.1766836,16.0434311 94.4612613,16.1293956 C94.0576169,17.5691733 93.6663013,18.9645333 93.2653591,20.3940089 L82.117848,20.3940089 C82.0021591,20.14456 82.0122924,19.9096356 82.125448,19.62776 C82.564728,19.5220356 83.0767991,19.6613689 83.5003724,19.3345689 C83.8547013,18.6492178 83.8790213,8.83390222 83.5159102,8.00144889 C83.1124347,7.65016 82.5931013,7.83188444 82.1399724,7.70741333 C81.9519991,7.48566222 81.987128,7.24364444 82.069208,6.94471111 L87.6815547,6.94471111 C87.8156524,7.20328 87.7597502,7.43550222 87.6829058,7.70977778 C87.3824524,7.73156444 87.1069947,7.75656 86.8310302,7.77007111 C86.5400347,7.78425778 86.275048,7.84928 86.0826836,8.08927111 C85.6722836,9.62886222 85.8860969,18.7311289 86.3469947,19.3327111 C89.973208,20.1651644 91.7676524,19.3494311 93.7323369,15.9095022 Z M80.8205111,20.4127724 L69.6939422,20.4127724 C69.4907689,20.2004791 69.6022356,19.9500169 69.6108489,19.6620613 C70.0920133,19.4884436 70.6856578,19.6956702 71.1962089,19.2158569 L71.1962089,8.15667467 C70.7908756,7.60525244 70.1840578,7.85351911 69.6887067,7.69949244 C69.4990444,7.48162578 69.5714978,7.23386578 69.6113556,6.94135022 L75.2340044,6.94135022 C75.3559422,7.19282578 75.34564,7.42538578 75.2378889,7.653048 C75.1735422,7.68243467 75.1254089,7.72077244 75.0744044,7.72499467 C73.4682711,7.85740356 73.4677644,7.85689689 73.4677644,9.47147467 C73.4674267,12.3128613 73.4679333,15.154248 73.4674267,17.9956347 C73.4674267,18.4470747 73.4574622,18.9002036 73.9288311,19.3975813 C75.3008844,19.5021236 76.8095689,19.6603724 78.2870089,19.2259902 C79.9100311,18.7485413 80.5214089,17.2817413 81.2624933,15.9113769 C81.4916756,15.9782569 81.6965378,16.0378747 82.0050978,16.1277236 C81.6105733,17.5550036 81.2248311,18.9503636 80.8205111,20.4127724 Z M43.1098684,28.1419218 L77.5159129,28.1419218 C77.5159129,28.2028907 77.515744,28.2641973 77.5159129,28.3251662 L43.1098684,28.3251662 C43.1098684,28.2641973 43.1100373,28.2028907 43.1098684,28.1419218 Z M121.892752,31.1820738 C121.604965,31.2940471 121.330014,31.2428738 120.965214,31.2096027 L120.965214,28.5100827 L117.297454,28.5100827 L117.297454,31.1538693 C116.93181,31.2823938 116.656521,31.2614516 116.32229,31.1964293 L116.32229,25.1083227 C116.622912,24.9833449 116.894148,25.0025982 117.249828,25.1041004 L117.249828,27.5631227 L120.903063,27.5631227 L120.903063,25.2159049 C121.238814,24.931496 121.542139,25.0351938 121.892752,25.0661004 L121.892752,31.1820738 Z M88.9422596,25.1014151 L88.9422596,31.1310862 C88.6477173,31.3197351 88.3528373,31.2471129 87.9721618,31.1890151 L87.9721618,28.4901707 L84.2897084,28.4901707 L84.2897084,31.1650329 C83.9200107,31.2756551 83.629184,31.2812284 83.3081262,31.169424 L83.3081262,25.066624 C83.612464,25.0502418 83.8828551,25.0357173 84.190064,25.0193351 C84.3928996,25.8723929 84.1831396,26.720384 84.3304107,27.5871218 L87.8895751,27.5871218 C88.1000107,26.7710507 87.8693084,25.9235662 88.0256996,25.1071573 C88.3195662,24.9804907 88.5884373,25.0105529 88.9422596,25.1014151 Z M91.1173627,25.0499547 L95.2289627,25.0499547 C95.4856738,25.2651191 95.3571493,25.516088 95.3794427,25.8324169 L92.1543404,25.8324169 C92.0416916,26.4355191 92.071416,26.9607636 92.1269804,27.5321147 C92.8959316,27.7533591 93.691736,27.5412347 94.4620382,27.6650302 C94.6368382,27.9016436 94.5836382,28.1404524 94.4812916,28.4713058 L92.1296827,28.4713058 L92.1296827,30.375528 L95.3780916,30.375528 C95.7108027,30.6427102 95.590216,30.9048258 95.5942693,31.1961591 L91.1173627,31.1961591 L91.1173627,25.0499547 Z M98.9204009,28.7048284 L101.046374,28.7048284 C100.702348,27.8568373 100.386019,27.0767396 99.9889609,26.0981973 C99.590552,27.0704907 99.2772631,27.8343751 98.9204009,28.7048284 Z M103.178934,31.2243129 L102.081832,31.2243129 C101.859574,30.7046418 101.631236,30.170784 101.383308,29.5909884 L98.602552,29.5909884 C98.3742142,30.1245084 98.1440187,30.6624196 97.9158498,31.1957707 C97.5924276,31.2680551 97.2887653,31.2731218 96.8901876,31.1802329 C97.766552,29.1305973 98.6331209,27.1039307 99.5079653,25.0581796 L100.530081,25.0581796 C101.39209,27.0647484 102.264908,29.0964818 103.178934,31.2243129 Z M112.27301,31.160152 C111.91429,31.2822587 111.639339,31.2611476 111.288219,31.2015298 L111.288219,25.8518053 L108.930699,25.8518053 C108.754379,25.5652009 108.795756,25.3520631 108.87885,25.080152 L114.578005,25.080152 C114.729161,25.3029164 114.696396,25.5363209 114.595232,25.8435298 L112.27301,25.8435298 L112.27301,31.160152 Z M104.681589,31.2064951 L104.681589,25.1438907 C104.979678,24.9454462 105.27118,25.0102996 105.633954,25.1016684 L105.633954,30.3821484 L108.986229,30.3821484 C109.219972,30.6812507 109.195483,30.9198907 109.097358,31.2064951 L104.681589,31.2064951 Z" id="Combined-Shape" fill="#1D5091"></path>
                        </g>
                    </g>
                </g>
            </g>
        </g>
    </g>
</svg>