<svg height="48" width="114" xmlns="http://www.w3.org/2000/svg"><path d="M2.48 5.966C1.082 6.007.027 5.396 0 4.542c-.018-.625 1.349-2.575 2.183-2.89.57-.216 3.346-1.27 7.973-1.408 1.715-.05 4.627.16 7.086.524 14.314 2.121 29.34 13.036 29.627 22.716.196 6.586-5.494 12.765-16.602 13.095a28.59 28.59 0 0 1-8.125-.923c-.053 1.616.068 2.472-2.226 2.54-1.402.042-1.949-2.23-2.155-4.078-6.705-2.975-10.746-7.808-10.803-9.715-.084-2.841 5.081-5.21 11.122-6.148.085-2.352.483-8.34 1.724-8.377.5-.014 1.533 1.143 1.923 2.913.354 1.609.391 4.542.395 5.064l.456-.016c8.476-.252 13.556 2.398 13.65 5.537.071 2.433-2.083 3.68-3.213 3.713s-2.454-.61-2.464-.96c-.02-.669 2.412-.826 2.38-1.909-.05-1.633-6.788-2.35-10.94-2.375-.006 1.407-.024 3.107.01 4.248.032 1.097.1 3.93.134 6.295 1.883.399 3.824.614 5.727.558 4.476-.133 14.701-1.765 14.473-9.447-.32-10.731-21.538-20.59-32.903-20.252-4.476.133-7.163.613-7.15 1.052.009.293 2.18.406 2.197.985.017.58-1.233.66-1.998.682zm15.555 16.042c-4.25.317-9.684 1.106-9.64 2.594.046 1.557 4.052 4.548 9.31 6.496.245-3.186.306-6.563.33-9.09zm32.076-4.315c.73-.021 1.78 1.734 1.812 2.83.033 1.097.295 6.83.372 8.481.076 1.652.022 3.234-.085 3.966-.108.732-.374 1.093-1.63 1.13-1.257.038-1.842-.71-1.949-1.817-.106-1.107-.2-4.246-.145-5.819.055-1.572.13-4.582.334-6.467.205-1.884.71-2.286 1.29-2.304zm-3.107-6.711c.427-.631 1.01-1.355 1.74-2.177a12.937 12.937 0 0 1 2.342-2.09c-3.051.221-4.264 2.913-4.243 3.615.01.319.083.523.16.652zm2.66 1.45c.634.105 1.426.176 2.367.148 4.288-.128 6.192-3.2 6.16-4.251-.02-.675-.28-1.286-1.267-1.257-3.365.1-6.63 4.472-7.26 5.36zm7.72-7.617c2.21-.035 3.126 1.33 3.168 2.742.09 3.066-4.55 7.859-9.664 8.01-.701.021-1.585-.153-2.472-.495-.52.817-.887 1.322-1.426 1.338-.637.02-1.468-1.437-1.484-1.988-.006-.199.014-.545.204-1.064-.731-.74-1.23-1.644-1.26-2.676-.094-3.175 4.09-7.204 9.53-7.366 2.497-.074 3.196.979 3.405 1.5zM63.38 17.4c2.994-.089 6.745.3 6.774 1.257.017.56-.277 1.73-1.875 1.891-1.884.192-11.39.595-11.355 1.769.018.62 2.875.758 5.495.916 2.691.163 7.015.265 7.144 4.621.102 3.44-1.2 4.166-1.785 4.44-.744.348-3.242 1.298-5.158 1.355-5.773.171-8.153-3.146-8.203-4.832-.045-1.497 1.495-2.826 4.085-2.902 2.59-.077 6.6.857 6.632 1.922.026.863-1.743 1.307-2.525 1.33-3.534.106-3.361-1.33-5.398-1.27-1.16.034-2.788 2.5 3.026 2.326 5.18-.153 6.749-1.86 6.722-2.778-.037-1.214-3.753-1.805-5.903-1.917-2.15-.111-5.376-.096-6.477-.793-1.1-.696-.946-2.271-.565-3.574.797-2.723 6.371-3.672 9.366-3.76zm10.226 1.127c2.024-.06 6.265 9.115 6.98 9.094s.184-2.143-.268-4.487c-1.022-5.302-2.615-8.036-1.118-8.08 1.106-.033 4.735 3.477 4.936 10.274.094 3.157-.35 7.287-3.21 7.372-2.711.08-5.8-8.48-6.502-8.46-.378.011-.41 5.304-.51 6.9-.102 1.596-.657 2.45-1.547 2.476-1.349.04-1.941-1.252-2.017-3.801s.76-11.214 3.256-11.288zm20.574 4.964c.958-.028 1.804-.188 1.72 1.056-.085 1.245-.138 1.746-1.136 1.775l-5.12.152c-.17.57-.608 2.037-.805 2.657-.246.777.532.605 1.536.319 1.003-.287 3.729-.8 4.848-.833 1.12-.033 1.956 1.75 1.313 2.364-.643.613-4.107 3.537-7.722 3.645-1.551.046-3.657-1.309-3.73-3.737-.038-1.285.479-3.01.973-4.349-.12-.076-.212-.253-.284-.64-.16-.872-.553-1.832.9-1.997.116-.013.263-.027.433-.04l1.2-2.473c-.487-.071-.908-.178-1.232-.333-.882-.422-1.57-1.506-1.585-1.992-.031-1.065 7.78-1.702 9.588-1.756 1.942-.058 2.493.317 3.114 1.204.62.886.855 1.513.862 1.756s-.218.843-2.565.913c-1.2.036-3.142.238-5.005.307l-.81 2.161c1.811-.09 3.507-.159 3.507-.159zm10.968 6.099c6.377-.655 7.74-7.937 6.13-7.89-.929.028-3.57 2.882-6.13 7.89zm-5.675 1.287c-.535-.848-.857-1.886-.894-3.124-.19-6.371 5.297-11.016 5.863-11.032.405-.012.576 1.84-.398 3.4-1.387 2.219-3.012 5.394-2.736 7.455 3.091-5.08 6.942-9.129 9.619-9.208 1.831-.054 2.923 1.971 3.008 4.828.16 5.41-4.768 10.492-9.021 10.618a5.89 5.89 0 0 1-1.6-.187 55.162 55.162 0 0 0-3.31 12.216c-.125.82-.16 1.92-.854 1.941-.694.02-2.977-1.366-3.088-5.085-.098-3.3 1.314-7.685 3.411-11.822z" fill="#231f20" fill-rule="evenodd"/></svg>