<svg height="61" width="80" xmlns="http://www.w3.org/2000/svg"><mask id="a" fill="#fff"><path d="M0 .02h18.42v22.202H0z" fill-rule="evenodd"/></mask><mask id="b" fill="#fff"><path d="M.041.062h14.844v2.965H.041z" fill-rule="evenodd"/></mask><mask id="c" fill="#fff"><path d="M.057.06h3.81v7.465H.057z" fill-rule="evenodd"/></mask><g fill="none" fill-rule="evenodd"><path d="M7.493 8.515c0 1.588.007 3.176-.007 4.764-.002.276.083.346.342.328.352-.026.709.003 1.061-.026 1.756-.141 3.067-.95 3.696-2.639.631-1.698.673-3.446.157-5.182-.38-1.275-1.224-2.117-2.556-2.41-.847-.186-1.684-.067-2.521.09-.213.04-.172.178-.172.31zm0-6.465c.623-.353 1.184-.684 1.758-.992.95-.511 1.935-.905 3.04-.952 1.952-.083 3.475.699 4.627 2.241 2.014 2.697 2.128 7.664-.435 10.523-1.411 1.573-3.211 2.346-5.276 2.586-1.138.132-2.273.024-3.408-.037-.236-.012-.314.024-.312.28.013 1.427.012 2.855.001 4.282-.002.22.075.288.279.33.661.135 1.317.299 1.977.44.175.039.25.105.237.299-.02.288-.022.58 0 .868.017.238-.05.309-.297.304-.858-.017-1.717-.007-2.575-.007-2.19 0-4.38-.003-6.569.006-.228 0-.33-.035-.304-.291.04-.37-.147-.845.072-1.09.203-.225.673-.212 1.026-.303.31-.08.62-.175.935-.233.196-.036.229-.128.228-.305-.004-5.495-.004-10.99.002-16.486 0-.217-.064-.271-.273-.267-.644.013-1.288-.004-1.932.01-.214.004-.31-.037-.292-.277.022-.299.02-.601 0-.9-.011-.192.064-.256.236-.308C2.084 1.215 3.923.634 5.775.096 6.29-.053 6.843.067 7.378.05c.162-.005.113.127.114.211.003.578.002 1.157.002 1.79" fill="#010101" mask="url(#a)" transform="translate(0 38.521)"/><path d="M26.47 48.644l3.614-5.966c.716-1.183 1.435-2.364 2.144-3.55.1-.167.206-.233.404-.23 1.009.01 2.018.013 3.027-.001.25-.004.319.06.318.315-.008 3.574-.006 7.148-.006 10.722v.356c.139-.013.16-.124.212-.194 1.13-1.512 2.254-3.028 3.387-4.539a.818.818 0 0 0 .177-.527c-.007-1.782 0-3.563-.01-5.345a.585.585 0 0 1 .225-.495c1.572-1.354 3.926-.758 4.506 1.147.223.733.113 1.444-.179 2.134-.299.706-.725 1.34-1.19 1.942-2.441 3.157-4.89 6.308-7.333 9.463-.085.11-.169.17-.317.168a218.803 218.803 0 0 0-3.8.004c-.272.004-.228-.143-.228-.3v-9.052c-.139-.005-.141.12-.184.19a3284.373 3284.373 0 0 0-5.405 8.906c-.114.189-.235.257-.454.254a108.696 108.696 0 0 0-3.156.002c-.28.005-.325-.082-.325-.34.009-3.842.003-7.684.013-11.527.001-.287-.072-.374-.362-.393-.802-.053-1.601-.153-2.403-.22-.18-.015-.232-.075-.225-.25.014-.322.01-.645.001-.966-.005-.152.037-.226.197-.261 1.736-.389 3.464-.82 5.21-1.16.62-.12 1.283-.024 1.927-.03.105 0 .162.032.154.147-.005.075 0 .15 0 .226v9.36zm32.975 1.18c0 .89-.001 1.728.002 2.565 0 .116-.019.193-.14.253-2.714 1.337-5.55 1.914-8.579 1.485-3.2-.455-5.38-3.24-5.883-5.72-.524-2.586-.098-4.982 1.632-7.044 1.36-1.62 3.169-2.45 5.226-2.773 1.567-.246 3.123-.207 4.642.31.771.262 1.472.647 2.043 1.24.589.61.924 1.335.938 2.192.022 1.428-.95 2.49-2.377 2.63-1 .098-1.873-.254-2.73-.702-.161-.085-.119-.21-.12-.33-.002-1.16-.011-2.319.006-3.478.005-.285-.086-.31-.324-.252-1.562.383-2.633 1.323-3.143 2.845-.563 1.682-.605 3.4-.089 5.098.83 2.727 3.104 3.892 5.825 3.026.923-.293 1.786-.725 2.654-1.145z" fill="#010101"/><path d="M50.847 14.877l.004-7.339 5.692-.005 9.165-.006-.005 11.147-.005.014-5.538-.006.001-.004c0-1.127-.008-2.254.007-3.38.004-.28-.066-.364-.356-.363-2.972.011-5.944.008-8.917.008z" fill="#d75604"/><path d="M60.16 26.125c-.761.005-1.523.013-2.284.014-2.233.002-4.466.004-6.698-.005-.243 0-.327.048-.323.312.016 1.03-.004 2.06.012 3.09.004.267-.086.314-.328.314-4.755-.007-9.51-.007-14.265 0-.243.001-.307-.062-.304-.303.013-1.03.015-2.06-.002-3.09-.004-.276.08-.331.343-.33 4.722.008 9.445.002 14.168.013.309.001.361-.094.36-.374-.007-2.361.002-4.722.005-7.084l.025.002.025-.005 9.267-.001-.001.004z" fill="#ac1b02"/><path d="M68.61 7.506c.386.006.772.018 1.157.018 2.028.002 4.056.002 6.083 0 .167 0 .304-.02.303.238-.011 3.636-.011 7.273-.014 10.91-.128.003-.256.01-.384.01h-7.158l.007-.01-.001-11.13a.138.138 0 0 0 .007-.036" fill="#f2bd26"/><path d="M65.708 7.527l-9.165.006-5.692.005c-.008-1.508-.04-3.015.017-4.523.16.003.321.008.482.008l14.338.006c.004.129.012.257.012.385z" fill="#e2711c"/><path d="M68.597 18.683l7.158-.001c.128 0 .256-.007.384-.01l.019.01-.01 6.984c-.001.138-.014.277-.02.416l-.054.043-6.483.012c-.288 0-.577-.008-.865-.012l-.126-.043-.003-7.4z" fill="#da4e18"/><path d="M14.867 3.027L.528 3.02c-.16 0-.32-.006-.482-.009 0-.89.005-1.78-.005-2.671C.04.137.09.06.308.06c4.774.006 9.549.006 14.323 0 .198 0 .256.057.254.255-.01.88-.003 1.76-.003 2.64l-.015.07" fill="#ed9b35" mask="url(#b)" transform="translate(50.821 .003)"/><path d="M60.16 26.125v-7.443l5.538.006.001 7.437h-5.538" fill="#c12303"/><path d="M60.161 18.678h-9.267a21.988 21.988 0 0 1-.05-.066v-.13c.069-.084.043-.184.044-.278V15.35c0-.093.024-.193-.043-.278l.001-.124h.025l.024-.004c2.973 0 5.945.003 8.917-.008.29-.001.36.084.356.363-.015 1.126-.007 2.253-.007 3.38" fill="#c04303"/><path d="M.057 7.464c.006-.139.019-.278.02-.416L.086.065c1.157 0 2.315.006 3.472-.006.239-.002.309.061.308.305-.01 2.293-.008 4.587-.002 6.88 0 .203-.045.283-.265.28-1.179-.011-2.357-.009-3.536-.011a3.18 3.18 0 0 0-.007-.05" fill="#e56aa1" mask="url(#c)" transform="translate(76.07 18.618)"/><path d="M65.7 26.125l-.002-7.437.005-.014 2.901-.003-.007.012.003 7.4a.094.094 0 0 0-.001.044l-2.9-.002" fill="#d0390d"/><path d="M65.688 3.03l.016-.072c.855.005 1.71.02 2.565.008.262-.004.347.065.345.337-.013 1.401-.005 2.802-.004 4.203a.132.132 0 0 1-.007.036l-2.895-.015-.008-4.113c0-.128-.008-.256-.012-.385" fill="#f2bc87"/><path d="M50.98 15.071c.492.085.31.185.31.278.012.952.013 1.904 0 2.855 0 .094.185.194-.311.278a9.427 9.427 0 0 1 0-3.41m17.627 11.36a1.445 1.445 0 0 1 .003-.35l.487.33zm-17.758-7.82l.381.462-.19.038-.195-.014zm25.645 7.47c.02.126.038.252.056.378l-.243.046-.232-.09z" fill="#e2711c"/><path d="M51.226 15.344l-.188.033-.192-.006.005-.494z" fill="#e2711c"/><path d="M65.708 7.527l2.895.015.001 11.13c-.967 0-1.934 0-2.901.002z" fill="#e78c14"/></g></svg>