<svg width="32" height="32" xmlns="http://www.w3.org/2000/svg"><g fill="none" fill-rule="evenodd"><path d="M17.08 13.958a.29.29 0 0 0-.225.105l-2.917 3.5a.292.292 0 0 0 .224.479h10.092a.29.29 0 0 0 .224-.105l2.917-3.5a.292.292 0 0 0-.224-.479H17.079zM28.25 19.5h-2.333a.292.292 0 0 0-.292.292v3.791a.875.875 0 1 1-1.75 0v-3.791a.292.292 0 0 0-.292-.292H19.5a.292.292 0 0 0-.292.292v3.791a.875.875 0 1 1-1.75 0v-3.791a.292.292 0 0 0-.291-.292h-4.084a.583.583 0 0 0-.583.583v8.167c0 .966.784 1.75 1.75 1.75h14A1.75 1.75 0 0 0 30 28.25v-7a1.75 1.75 0 0 0-1.75-1.75zM4.917 2H3.75A1.75 1.75 0 0 0 2 3.75v7c0 .966.784 1.75 1.75 1.75h1.167c.16 0 .291-.13.291-.292V2.292A.292.292 0 0 0 4.917 2zm23.916 9.917V3.75A1.75 1.75 0 0 0 27.083 2h-1.75a.292.292 0 0 0-.291.292v3.791a.875.875 0 0 1-1.75 0V2.292A.292.292 0 0 0 23 2h-4.083a.292.292 0 0 0-.292.292v3.791a.875.875 0 1 1-1.75 0V2.292A.292.292 0 0 0 16.583 2H12.5a.292.292 0 0 0-.292.292v3.791a.875.875 0 1 1-1.75 0V2.292A.292.292 0 0 0 10.167 2H7.25a.292.292 0 0 0-.292.292v9.916c0 .161.13.292.292.292h21a.583.583 0 0 0 .583-.583z" fill="#2333FF"/></g></svg>