<svg width="32" height="32" xmlns="http://www.w3.org/2000/svg"><path d="M31.72 12.442a1.28 1.28 0 0 0-1.176-1.376 1.294 1.294 0 0 0-1.384 1.176.182.182 0 0 1-.357.035 10.525 10.525 0 0 0-3.675-5.407 14.282 14.282 0 0 0-11.407-2.707.323.323 0 0 1-.314-.128 5.11 5.11 0 0 0-5.367-1.87 1.28 1.28 0 0 0-.558 2.167 3.84 3.84 0 0 1 1.024 1.614.319.319 0 0 1-.128.363 10.668 10.668 0 0 0-4.562 6.324.319.319 0 0 1-.311.245H2.92c-1.06 0-1.92.86-1.92 1.92v2.56c0 1.06.86 1.92 1.92 1.92h1.588c.117 0 .224.064.28.166.96 1.68 2.331 3.09 3.984 4.096a.32.32 0 0 1 .137.36l-1.125 3.893a1.601 1.601 0 0 0 3.075.893l.981-3.39a.321.321 0 0 1 .397-.218c2.692.8 5.558.804 8.251.009a.321.321 0 0 1 .397.219l.979 3.38a1.601 1.601 0 0 0 3.075-.893l-1.127-3.89a.321.321 0 0 1 .137-.36 10.669 10.669 0 0 0 5.132-7.57.319.319 0 0 1 .202-.257 3.807 3.807 0 0 0 2.437-3.274zm-8.832-2.188a.96.96 0 0 1-1.344.192 8.663 8.663 0 0 0-5.76-1.707.962.962 0 1 1-.128-1.92c2.521-.174 5.02.567 7.04 2.086a.96.96 0 0 1 .192 1.35zM8.68 14.158a1.28 1.28 0 1 1 0-2.56 1.28 1.28 0 0 1 0 2.56z" fill="#2333FF"/></svg>