<svg width="32" height="32" xmlns="http://www.w3.org/2000/svg"><path d="M31.261 14.124L29.6 12.356l.563-2.364a2.767 2.767 0 0 0-1.878-3.25l-2.328-.691-.693-2.328a2.76 2.76 0 0 0-3.25-1.879l-2.37.556L17.876.737a2.77 2.77 0 0 0-3.752 0L12.356 2.4l-2.364-.556a2.763 2.763 0 0 0-3.25 1.877l-.691 2.327-2.331.695a2.768 2.768 0 0 0-1.876 3.249l.556 2.365-1.663 1.768a2.773 2.773 0 0 0 0 3.754L2.4 19.645l-.563 2.366a2.77 2.77 0 0 0 1.879 3.249l2.328.693.692 2.326a2.765 2.765 0 0 0 3.25 1.878l2.37-.557 1.768 1.668a2.773 2.773 0 0 0 3.753 0l1.767-1.667 2.364.562a2.767 2.767 0 0 0 3.248-1.878l.693-2.326 2.33-.694a2.767 2.767 0 0 0 1.877-3.25l-.556-2.371 1.67-1.77a2.77 2.77 0 0 0-.009-3.75zm-12.728-4.18L18.073 12a1.19 1.19 0 0 0 1.151 1.493h2.917a1.19 1.19 0 0 1 1.139 1.536l-1.2 3.734v.009c-.459 1.496-1.25 2.516-2.813 2.516-3.631 0-4.166.408-8.19-1.6a.667.667 0 0 1-.369-.597V14c0-.368.298-.667.667-.667h1.466c.387.001.75-.187.972-.504l2.91-3.733a1.019 1.019 0 0 1 1.818.845l-.008.003z" fill="#2333FF"/></svg>