<?xml version="1.0" encoding="UTF-8"?>
<svg width="32px" height="32px" viewBox="0 0 32 32" version="1.1" xmlns="http://www.w3.org/2000/svg" xmlns:xlink="http://www.w3.org/1999/xlink">
    <!-- Generator: Sketch 52.5 (67469) - http://www.bohemiancoding.com/sketch -->
    <title>icon-247</title>
    <desc>Created with Sketch.</desc>
    <defs>
        <path d="M16,30 C8.2680135,30 2,23.7319865 2,16 C2,8.2680135 8.2680135,2 16,2 C23.7319865,2 30,8.2680135 30,16 C30,23.7319865 23.7319865,30 16,30 Z M16,28 C22.627417,28 28,22.627417 28,16 C28,9.372583 22.627417,4 16,4 C9.372583,4 4,9.372583 4,16 C4,22.627417 9.372583,28 16,28 Z M17,8 L17,15.4510541 L22.0368755,18.6563385 C22.5028169,18.9528467 22.6401696,19.5709341 22.3436615,20.0368755 C22.0471533,20.5028169 21.4290659,20.6401696 20.9631245,20.3436615 L15.4631245,16.8436615 C15.1746763,16.6601036 15,16.3419004 15,16 L15,8 C15,7.44771525 15.4477153,7 16,7 C16.5522847,7 17,7.44771525 17,8 Z" id="path-1"></path>
    </defs>
    <g id="icon-247" stroke="none" stroke-width="1" fill="none" fill-rule="evenodd">
        <mask id="mask-2" fill="white">
            <use xlink:href="#path-1"></use>
        </mask>
        <use id="Mask" fill="#2333FF" xlink:href="#path-1"></use>
    </g>
</svg>