<svg width="32" height="32" xmlns="http://www.w3.org/2000/svg"><g transform="translate(1)" fill="#2333FF" fill-rule="evenodd"><path d="M29.73 2.667A2.667 2.667 0 0 0 27.063 0h-24A2.667 2.667 0 0 0 .396 2.667v26.666A2.667 2.667 0 0 0 3.063 32h24a2.667 2.667 0 0 0 2.667-2.667V2.667zm-2.667 26a.667.667 0 0 1-.667.666h-5a.333.333 0 0 1-.333-.333v-2a.333.333 0 0 0-.333-.333h-2a.333.333 0 0 0-.334.333v2c0 .184-.149.333-.333.333h-6A.333.333 0 0 1 11.73 29v-3.333a.333.333 0 0 0-.334-.334h-2a.333.333 0 0 0-.333.334V29c0 .184-.15.333-.333.333h-5a.667.667 0 0 1-.667-.666V3.333c0-.368.299-.666.667-.666h5c.184 0 .333.149.333.333v1.333c0 .184.15.334.333.334h2c.184 0 .334-.15.334-.334V3c0-.184.149-.333.333-.333h6c.184 0 .333.149.333.333v8c0 .184.15.333.334.333h2c.184 0 .333-.149.333-.333V3c0-.184.15-.333.333-.333h5c.369 0 .667.298.667.666v25.334z" fill-rule="nonzero"/><path d="M6.739 8.4c0 1.105.852 2 1.902 2h2.537c1.051 0 1.903-.895 1.903-2s-.852-2-1.903-2H8.641c-1.05 0-1.902.895-1.902 2zm9.513 6.4c0 1.105.852 2 1.903 2h2.537c1.05 0 1.903-.895 1.903-2s-.852-2-1.903-2h-2.537c-.505 0-.989.21-1.345.586a2.053 2.053 0 0 0-.558 1.414zm0 8.8c0 1.105.852 2 1.903 2h2.537c1.05 0 1.903-.895 1.903-2s-.852-2-1.903-2h-2.537c-1.05 0-1.903.895-1.903 2zM6.74 22c0 1.105.852 2 1.902 2h2.537c1.051 0 1.903-.895 1.903-2s-.852-2-1.903-2H8.641c-1.05 0-1.902.895-1.902 2z"/><rect x="9.117" y="11.2" width="2.378" height="7.2" rx=".25"/><rect x="17.838" y="17.6" width="2.378" height="2.4" rx=".25"/></g></svg>