<?xml version="1.0" encoding="UTF-8"?>
<svg width="32px" height="32px" viewBox="0 0 32 32" version="1.1" xmlns="http://www.w3.org/2000/svg" xmlns:xlink="http://www.w3.org/1999/xlink">
    <!-- Generator: Sketch 52.5 (67469) - http://www.bohemiancoding.com/sketch -->
    <title>icon-doctor</title>
    <desc>Created with Sketch.</desc>
    <defs>
        <path d="M23,19.8739825 C21.2747728,19.4299397 20,17.8638394 20,16 C20,13.790861 21.790861,12 24,12 C26.209139,12 28,13.790861 28,16 C28,17.8638394 26.7252272,19.4299397 25,19.8739825 L25,20.5 C25,24.6421356 21.6421356,28 17.5,28 L16.3333333,28 C12.8355299,28 10,25.1644701 10,21.6666667 C10,21.1143819 10.4477153,20.6666667 11,20.6666667 C11.5522847,20.6666667 12,21.1143819 12,21.6666667 C12,24.0599006 13.9400994,26 16.3333333,26 L17.5,26 C20.5375661,26 23,23.5375661 23,20.5 L23,19.8739825 Z M24,18 C25.1045695,18 26,17.1045695 26,16 C26,14.8954305 25.1045695,14 24,14 C22.8954305,14 22,14.8954305 22,16 C22,17.1045695 22.8954305,18 24,18 Z M14,6 C13.4477153,6 13,5.55228475 13,5 C13,4.44771525 13.4477153,4 14,4 L14.5,4 C16.4329966,4 18,5.56700338 18,7.5 L18,11 C18,14.8659932 14.8659932,18 11,18 C7.13400675,18 4,14.8659932 4,11 L4,7.5 C4,5.56700338 5.56700338,4 7.5,4 L8,4 C8.55228475,4 9,4.44771525 9,5 C9,5.55228475 8.55228475,6 8,6 L7.5,6 C6.67157288,6 6,6.67157288 6,7.5 L6,11 C6,13.7614237 8.23857625,16 11,16 C13.7614237,16 16,13.7614237 16,11 L16,7.5 C16,6.67157288 15.3284271,6 14.5,6 L14,6 Z" id="path-1"></path>
    </defs>
    <g id="icon-doctor" stroke="none" stroke-width="1" fill="none" fill-rule="evenodd">
        <mask id="mask-2" fill="white">
            <use xlink:href="#path-1"></use>
        </mask>
        <use id="Mask" fill="#2333FF" fill-rule="nonzero" xlink:href="#path-1"></use>
    </g>
</svg>