<svg width="32" height="32" xmlns="http://www.w3.org/2000/svg"><g fill="#2333FF" fill-rule="evenodd"><path d="M16 0C7.163 0 0 7.163 0 16s7.163 16 16 16 16-7.163 16-16C31.99 7.167 24.833.01 16 0zm0 29.333c-7.364 0-13.333-5.97-13.333-13.333C2.667 8.636 8.637 2.667 16 2.667c7.364 0 13.333 5.97 13.333 13.333C29.325 23.36 23.36 29.325 16 29.333z" fill-rule="nonzero"/><path d="M22.081 19.333H9.917a.576.576 0 0 0-.505.334.743.743 0 0 0 0 .666A7.493 7.493 0 0 0 16 24.667a7.496 7.496 0 0 0 6.588-4.334.743.743 0 0 0 0-.666.575.575 0 0 0-.507-.334z"/><circle cx="10.667" cy="12" r="2.667"/><circle cx="21.333" cy="12" r="2.667"/></g></svg>