<svg height="32" width="32" xmlns="http://www.w3.org/2000/svg"><path d="M9.333 7.454h5.334a.31.31 0 0 1 .223.095c.058.06.091.143.09.229v1.284c0 .249.141.476.362.581a.612.612 0 0 0 .668-.089l3.764-3.21a.648.648 0 0 0 0-.985l-3.764-3.21a.616.616 0 0 0-.668-.088.643.643 0 0 0-.361.58v1.285c0 .177-.14.32-.314.32H9.333C6.39 4.25 4.003 6.692 4 9.705v12.84c.003 3.011 2.39 5.452 5.333 5.456.867 0 1.57-.719 1.57-1.605s-.703-1.605-1.57-1.605c-1.212-.001-2.194-1.006-2.196-2.247V9.703c0-1.24.983-2.248 2.196-2.249zm7.657 22.394a.612.612 0 0 0 .668.092.643.643 0 0 0 .361-.582v-1.284c0-.177.14-.32.314-.32h5.334c2.944-.004 5.33-2.445 5.333-5.458V9.456c-.003-3.01-2.39-5.451-5.333-5.456-.867 0-1.57.719-1.57 1.605s.703 1.605 1.57 1.605c1.212.001 2.194 1.006 2.196 2.247v12.84c-.002 1.24-.984 2.245-2.196 2.246h-5.334a.317.317 0 0 1-.314-.32v-1.285a.643.643 0 0 0-.36-.58.616.616 0 0 0-.669.087l-3.764 3.21a.648.648 0 0 0 0 .986z" fill="#2333ff" fill-rule="evenodd"/></svg>