<svg height="32" width="32" xmlns="http://www.w3.org/2000/svg"><path d="M26.414 14.571l-.003.002a5.166 5.166 0 0 1 0 7.318l-2.291 2.3-2.3 2.293a5.175 5.175 0 0 1-7.317-7.32l2.3-2.293 2.292-2.3a5.183 5.183 0 0 1 7.319 0zm-4.77 9.266a.5.5 0 0 0 .002-.709l-1.889-1.89-1.894-1.893a.5.5 0 0 0-.707 0l-1.241 1.237a3.179 3.179 0 0 0 0 4.488 3.246 3.246 0 0 0 4.491 0zM4.567 9.752h.002a.5.5 0 0 1-.489-.6 6.5 6.5 0 0 1 12.71 0 .5.5 0 0 1-.49.6zm12.221 2.105v-.005a6.5 6.5 0 0 1-12.71 0 .5.5 0 0 1 .49-.6h11.731a.5.5 0 0 1 .489.605z" fill="#2333ff"/></svg>