<svg height="32" width="32" xmlns="http://www.w3.org/2000/svg"><path d="M8 4h5.32a3 3 0 0 1 2.242 1.007l1.175 1.322A2 2 0 0 0 18.23 7H24a4 4 0 0 1 4 4v13a4 4 0 0 1-4 4H8a4 4 0 0 1-4-4V8a4 4 0 0 1 4-4zm11.861 14.476a21.235 21.235 0 0 0 1.53-1.413c.736-.754 1.318-1.485 1.686-2.153.28-.509.423-.959.423-1.33 0-2.294-2.833-2.913-3.453-.72a.562.562 0 0 1-1.094 0c-.62-2.193-3.453-1.574-3.453.72 0 .371.142.821.423 1.33.368.668.95 1.4 1.687 2.153a21.235 21.235 0 0 0 1.89 1.71c.105-.085.227-.185.361-.297z" fill="#2333ff" fill-rule="evenodd"/></svg>