<svg width="32" height="32" xmlns="http://www.w3.org/2000/svg"><g fill="#2333FF" fill-rule="evenodd"><path d="M22.526 13.606h-3.07a.94.94 0 0 0-.946.936.94.94 0 0 0 .945.936h.787c.174 0 .315.14.315.312v.274a.94.94 0 0 0 .945.936.94.94 0 0 0 .945-.936v-.507c0-.043.035-.079.08-.079a1.835 1.835 0 0 0 1.438-.523 1.8 1.8 0 0 0 .529-1.427c0-1.162-1.197-1.96-2.464-2.804a11.723 11.723 0 0 1-1.56-1.156.26.26 0 0 1-.069-.174h3.148a.94.94 0 0 0 .945-.936.94.94 0 0 0-.945-.936h-.787a.314.314 0 0 1-.315-.312v-.274A.94.94 0 0 0 21.502 6a.94.94 0 0 0-.945.936v.507a.079.079 0 0 1-.079.077 1.793 1.793 0 0 0-1.455.507 1.758 1.758 0 0 0-.513 1.44c0 1.162 1.197 1.96 2.464 2.806.558.343 1.084.734 1.574 1.168a.23.23 0 0 1 .054.159l-.076.006z"/><path d="M21.499 20a9 9 0 1 0-8.999-8.999A9.008 9.008 0 0 0 21.499 20zm0-15.622A6.624 6.624 0 1 1 14.876 11 6.63 6.63 0 0 1 21.5 4.373v.005z" fill-rule="nonzero"/><path d="M26.395 23.517h-.012l-4.206 1.472a.312.312 0 0 0-.182.179c-.381.909-1.233 1.497-2.175 1.501h-4.778c-.33 0-.597-.282-.597-.63 0-.347.267-.63.597-.63h4.778c.66 0 1.194-.564 1.194-1.26 0-.695-.535-1.26-1.194-1.26h-4.181A8.247 8.247 0 0 0 10.861 21H8.405c-.741 0-1.472.182-2.135.532l-3.605 1.9a.318.318 0 0 0-.165.282v6.803c0 .114.059.22.154.275.095.055.21.052.302-.008L6.8 28.24c.307-.2.682-.246 1.024-.126 11.904 4.231 7.917 4.25 21.34-2.912a.654.654 0 0 0 .333-.517.67.67 0 0 0-.232-.576 2.845 2.845 0 0 0-2.87-.592z"/></g></svg>