<svg height="32" width="32" xmlns="http://www.w3.org/2000/svg"><g fill="#2333ff" fill-rule="evenodd"><path d="M1.273 13.34a1.2 1.2 0 0 0 1.19 1.06c.047.002.093.002.139 0a1.2 1.2 0 0 0 1.054-1.33 8.48 8.48 0 0 1 13.838-7.517 1.2 1.2 0 1 0 1.536-1.845A10.88 10.88 0 0 0 1.27 13.34zm23.37 7.9a1.8 1.8 0 0 0-1.878-.424.301.301 0 0 1-.312-.07l-1.68-1.68a.301.301 0 0 1-.026-.394 10.878 10.878 0 0 0 1.68-3.205 1.2 1.2 0 0 0-2.28-.747 8.491 8.491 0 0 1-11.72 5.012 1.2 1.2 0 0 0-1.037 2.16 10.91 10.91 0 0 0 11.295-1.158.3.3 0 0 1 .394.026l1.68 1.68a.302.302 0 0 1 .07.313 1.8 1.8 0 0 0 .422 1.877l4.655 4.66a2.4 2.4 0 1 0 3.393-3.395z"/><path d="M29.4 1.21h-4.8a.6.6 0 0 0-.425 1.023l1.377 1.377a.299.299 0 0 1 0 .423l-7.92 7.94a.301.301 0 0 1-.425 0l-2.891-2.891a2.4 2.4 0 0 0-3.394 0L1.56 18.433a1.2 1.2 0 1 0 1.697 1.697l9.144-9.14a.302.302 0 0 1 .425 0l2.894 2.892c.95.907 2.444.907 3.394 0l8.138-8.152a.302.302 0 0 1 .425 0l1.302 1.303a.6.6 0 0 0 .654.131A.6.6 0 0 0 30 6.61v-4.8a.6.6 0 0 0-.6-.6z"/></g></svg>