<svg height="30" width="174" xmlns="http://www.w3.org/2000/svg"><g fill="none" fill-rule="evenodd"><path d="M58.83 14.987a16.2 16.2 0 0 1-.26-.11c-1.675-.73-1.74-.756-2.139-1.04-.548-.391-.73-.695-.73-1.204 0-.895.737-1.353 2.196-1.353 1.29 0 2.234.223 3.734.891l.235.102v-3.42l-.11-.042c-1.442-.531-2.648-.758-4.032-.758-3.723 0-5.855 1.813-5.855 4.975 0 2.381 1.062 3.75 3.794 4.875 2.9 1.222 3.176 1.528 3.176 2.422 0 1.04-.866 1.57-2.572 1.57-1.47 0-2.583-.296-4.244-1.126l-.244-.123v3.423l.097.05c1.543.714 2.892 1.003 4.653 1.003 4.071 0 6.314-1.812 6.314-5.106 0-2.497-1.012-3.765-4.013-5.029zm17.841 6.104c-1.537.58-2.536.782-3.83.782-2.693 0-3.741-1.458-3.741-5.207 0-3.91 1.02-5.363 3.762-5.363 1.273 0 2.386.228 3.718.757l.23.093V8.767l-.11-.043c-1.25-.46-2.503-.67-3.947-.67-2.24 0-4.148.637-5.516 1.85-1.713 1.51-2.51 3.664-2.51 6.785 0 2.645.542 4.537 1.708 5.95 1.359 1.625 3.498 2.483 6.188 2.483 1.505 0 2.951-.31 4.177-.897l.096-.043v-3.175zm12.9-12.662v6.347h-5.746V8.43h-4.158v16.364h4.158v-6.745h5.746v6.745h4.158V8.43H89.57zm11.825 13.046v-3.427h5.539v-3.163h-5.54v-3.14h7.015V8.429H97.238v16.364h11.507l.288-3.318zM121.889 8.43v8.944l-6.696-8.944h-3.49v16.364h3.527v-9.892c.555.737 7.417 9.892 7.417 9.892h2.769V8.43zm14.739 7.709c.157-.203 6.087-7.71 6.087-7.71h-4.322s-4.77 6.282-5.31 6.985V8.43h-4.156v16.364h4.156v-6.92c.54.71 5.226 6.92 5.226 6.92h4.94s-6.464-8.448-6.621-8.655zm12.681 5.337v-3.427h5.538v-3.163h-5.538v-3.14h7.014V8.429h-11.17v16.364h11.504l.292-3.318h-7.64zm14.466-9.888h1.894c1.62 0 2.137.464 2.137 1.906 0 1.432-.577 1.965-2.137 1.965h-1.894v-3.87zm6.47 7.307c-.458-.755-.933-1.228-1.453-1.548 2.115-.701 3.063-1.923 3.063-4.073 0-3.26-1.981-4.844-6.055-4.844h-6.185v16.364h4.16v-6.456h.528c.938 0 1.276.25 2.008 1.503l2.892 4.953h4.54z" fill="#231f20"/><path d="M38.463 25.64c0 .67-.44 1.208-1.097 1.208H4.17c-.658 0-1.14-.538-1.14-1.209V4.598c0-.671.482-1.207 1.14-1.207h33.197c.657 0 1.097.536 1.097 1.207v21.041zM37.366.4H4.17A4.166 4.166 0 0 0 0 4.598v21.041c0 2.368 1.889 4.244 4.17 4.244h33.197c2.24 0 4.13-1.876 4.13-4.244V4.598c0-2.368-1.89-4.198-4.13-4.198zM31.48 19.116c0-1.965-1.228-2.412-3.027-2.412h-1.67v4.957h1.626c1.626 0 3.071-.535 3.071-2.545zm-4.697-5.985h1.581c1.493 0 2.59-.669 2.59-2.324 0-1.832-1.406-2.323-2.899-2.323h-1.272zm2.854 11.66h-7.376v-19.3h7.73c3.644 0 5.618 1.52 5.618 5.139 0 1.876-1.537 3.216-3.204 4.064 2.327.669 3.906 2.102 3.906 4.511 0 3.934-3.25 5.586-6.674 5.586zM15.72 15.453c0-3.888-.397-6.922-4.524-6.922h-.924v13.13h1.626c2.414 0 3.822-1.963 3.822-6.208zm-3.031 9.338H5.708v-19.3h6.98c4.918 0 7.552 3.127 7.552 9.56 0 5.586-1.755 9.696-7.551 9.74z" fill="#ec1d24"/></g></svg>