<svg width="220" height="26" xmlns="http://www.w3.org/2000/svg"><path d="M42.252 6.638h2.202c.169-.001.339.004.508.015.435.029.95.109 1.4.307.235.1.45.24.633.416.136.134.25.288.337.457.134.276.209.575.221.881.007.125.003.205.003.205s.001.106-.014.273a2.573 2.573 0 0 1-.17.728 1.98 1.98 0 0 1-.443.664c-.266.262-.607.447-.964.574-.088.03-.178.058-.267.083a6.43 6.43 0 0 1-1.238.198c-.119.006-.251.014-.361.016-.14.005-.247.005-.247.005h-1.6V6.638zm0 7.734l3.19.002c.117 0 .233.004.35.011.324.014.647.05.967.11.341.06.674.157.993.293.217.091.423.206.614.343.106.078.205.165.296.259.249.256.426.573.515.919.04.161.063.327.068.493v.126s0 .06-.007.163a2.235 2.235 0 0 1-.338 1.056 2.124 2.124 0 0 1-.296.369c-.308.307-.71.518-1.127.657-.456.154-.929.22-1.289.254a6.508 6.508 0 0 1-.458.027l-.175.006h-3.303v-5.088zm21.142 11.612V.096h27.509v25.888h-27.51zM80.724 3.7a12.67 12.67 0 0 0-.371-.06l-.149-.02c-.212-.03-.426-.055-.64-.076-.145-.012-.294-.022-.437-.032a13.68 13.68 0 0 0-2.485.085l-.134.019-.148.022-.182.027c-.08.014-.159.027-.237.042-.108.02-.215.042-.321.063-.914.192-1.801.495-2.642.902-.413.2-.813.428-1.196.682-.103.07-.208.14-.305.211-.086.063-.171.124-.254.187a8.77 8.77 0 0 0-.5.411c-.147.132-.289.263-.424.396-.114.114-.23.23-.338.353-.112.123-.22.25-.326.378a9.347 9.347 0 0 0-2.077 5.402c-.023.34-.026.68-.01 1.021.01.15.02.299.038.446l.013.103c.022.176.05.347.082.518l.04.197a9.179 9.179 0 0 0 .923 2.464 9.405 9.405 0 0 0 .854 1.3c.118.153.238.292.355.428.146.17.294.322.437.464l.078.078c.118.113.246.236.393.36.101.086.206.175.319.265.105.082.215.168.33.251.31.223.63.428.961.615.713.398 1.47.711 2.257.933.614.177 1.241.302 1.876.376.469.056.94.089 1.412.096l.225.004c.577 0 1.113-.023 1.609-.065l.097-.01c.199-.015.389-.036.572-.06.431-.052.859-.124 1.283-.216.382-.084.76-.182 1.135-.293.176-.053.347-.11.51-.166l.156-.055c.104-.036.207-.075.31-.115a15.915 15.915 0 0 0 1.443-.632l.181-.087v-3.53l-.126.077-.24.146c-.861.532-1.774.974-2.725 1.32-.908.33-1.852.552-2.812.663a10.258 10.258 0 0 1-2.761-.076 8.598 8.598 0 0 1-1.893-.542 7.928 7.928 0 0 1-.757-.372 5.175 5.175 0 0 1-.248-.151 6.148 6.148 0 0 1-.556-.388c-.094-.076-.194-.156-.276-.228l-.116-.105-.059-.052-.035-.034-.042-.04a5.724 5.724 0 0 1-.828-1.008c-.054-.082-.104-.167-.154-.249a6.087 6.087 0 0 1-.54-1.215 6.72 6.72 0 0 1-.305-2.277c.007-.202.024-.457.066-.749a6.28 6.28 0 0 1 .352-1.35c.032-.087.071-.175.109-.264.052-.12.11-.238.17-.36.047-.092.1-.18.153-.273.165-.285.353-.556.562-.81.076-.089.154-.183.237-.271.042-.044.083-.091.126-.135a7.285 7.285 0 0 1 3.61-1.967c.124-.029.248-.054.372-.077.138-.026.274-.046.409-.066.385-.05.774-.075 1.162-.076l.246.001c.183.007.362.01.535.023.122.009.24.016.357.026.39.035.778.092 1.162.17.254.051.485.107.692.16.136.035.26.074.374.107.247.074.492.155.735.242.173.063.342.132.51.197.224.09.439.187.644.28.17.078.332.158.485.233.128.061.244.124.355.181.191.1.355.19.49.264l.36.194V5.065s-.215-.09-.589-.231c-.165-.063-.36-.135-.582-.215-.124-.043-.252-.092-.39-.138a15.207 15.207 0 0 0-.34-.113c-.133-.043-.269-.088-.411-.13a16.14 16.14 0 0 0-.313-.094l-.093-.027-.314-.087a10.454 10.454 0 0 0-.383-.098 12.2 12.2 0 0 0-.666-.151c-.14-.03-.286-.055-.432-.082zM10.556 6.64h2.2c.17-.002.339.003.508.014.433.029.95.109 1.399.307.234.1.449.24.633.416.137.133.25.288.338.457.134.276.209.575.221.881.007.125.003.205.003.205s.001.106-.014.273a2.489 2.489 0 0 1-.17.728c-.1.25-.252.475-.443.664-.266.262-.607.447-.964.574-.088.03-.178.058-.265.083a6.434 6.434 0 0 1-1.24.198c-.118.006-.25.014-.36.016-.14.005-.247.005-.247.005h-1.599V6.638zm0 7.733l3.192.002c.117 0 .233.004.349.011.325.014.649.05.969.11.341.06.675.158.994.293.216.092.421.207.612.343.105.078.204.165.296.259.254.252.431.57.513.919.04.161.063.327.068.493.002.08 0 .126 0 .126s.001.06-.006.163c-.023.375-.14.738-.339 1.056a2.124 2.124 0 0 1-.296.369c-.308.307-.712.518-1.128.657a5.727 5.727 0 0 1-1.288.254c-.19.018-.348.024-.459.027l-.175.006h-3.302v-5.088zm21.14 11.612V.096h27.509v25.888H31.697zm7.218-22.258V22.37h7.018s3.421.095 5.312-1.796c1.538-1.538 1.429-3.317 1.429-3.317s.11-1.857-1.313-3.282a6.107 6.107 0 0 0-2.762-1.537s.699-.328 1.236-.865c.252-.252 1.148-1.063 1.148-3.026 0-1.979-1.318-3.117-1.318-3.117s-1.442-1.704-4.698-1.704h-6.052zm172 11.264h6.18c-.084-1.859-1.15-3.034-2.872-3.034-1.858 0-2.98 1.094-3.307 3.034zm8.365 3.83h-.003v2.35c-1.476.985-2.815 1.45-4.893 1.45-3.827 0-5.959-3.144-5.959-6.535 0-3.717 2.352-6.233 5.74-6.233 3.255 0 5.334 2.215 5.334 6.753h-8.64c.383 2.433 1.778 3.692 4.13 3.692 1.476 0 2.868-.549 4.291-1.478zm-15.577 1.502h-.001v-7.82c-.822-.327-1.451-.463-2.27-.463-2.351 0-3.937 1.694-3.937 4.265 0 2.298.929 4.018 3.746 4.018h2.462zm2.432-16.594v18.646h-5.17c-3.663 0-5.958-2.49-5.958-6.427 0-3.554 2.544-6.097 6.125-6.097.82 0 1.586.138 2.571.494V3.728h2.432zM192.229 6.38c0 .792-.655 1.448-1.448 1.448a1.459 1.459 0 0 1-1.45-1.448c0-.795.657-1.449 1.45-1.449.793 0 1.448.654 1.448 1.449zm-2.681 15.995V10.098h2.434v12.277h-2.434zm-11.12-12.278l3.117 7.437 3.198-7.437h2.598l-5.415 12.523h-.764l-3.636-8.584-3.609 8.584h-.765l-5.47-12.523h2.599l3.227 7.437 3.115-7.437h1.804zM163.25 20.322h-.001v-7.82c-.82-.327-1.449-.463-2.268-.463-2.35 0-3.937 1.694-3.937 4.265 0 2.298.93 4.018 3.747 4.018h2.46zm2.434-16.594v18.646h-5.166c-3.666 0-5.962-2.49-5.962-6.427 0-3.554 2.542-6.097 6.125-6.097.82 0 1.586.138 2.57.494V3.728h2.433zm-16.033 18.647V3.728h2.434v18.647h-2.434zm-10.799-12.278v-.002h2.433v2.817h.054c1.23-2.161 2.408-3.063 3.554-3.063.986 0 1.915.465 2.928 1.423l-1.285 2.105c-.738-.71-1.695-1.204-2.268-1.204-1.672 0-2.982 1.668-2.982 3.774v6.427h-2.434V10.097zm-9.103 1.942c-2.296 0-3.965 1.722-3.965 4.075 0 2.595 1.613 4.319 3.965 4.319 2.571 0 4.184-1.641 4.184-4.293 0-2.38-1.75-4.101-4.184-4.101zm.026-2.187c3.854 0 6.644 2.624 6.644 6.262 0 3.88-2.707 6.506-6.644 6.506-3.772 0-6.48-2.733-6.48-6.506 0-3.528 2.816-6.262 6.48-6.262zm-4.413-6.124l-7.574 18.81h-.52l-6.125-15.255-6.18 15.254h-.518L96.9 3.728h2.68l5.14 12.85 5.168-12.85h2.541l5.197 12.85 5.086-12.85h2.651zM0 25.984V.096h27.508v25.888H0zM7.216 3.726V22.37h7.02s3.423.095 5.311-1.796c1.538-1.538 1.429-3.317 1.429-3.317s.11-1.857-1.314-3.282a6.108 6.108 0 0 0-2.763-1.537s.7-.328 1.238-.865c.251-.252 1.148-1.063 1.148-3.026 0-1.979-1.318-3.117-1.318-3.117s-1.441-1.704-4.7-1.704h-6.05z" fill-rule="evenodd"/></svg>