<?xml version="1.0" encoding="UTF-8"?>
<svg width="117px" height="48px" viewBox="0 0 117 48" version="1.1" xmlns="http://www.w3.org/2000/svg" xmlns:xlink="http://www.w3.org/1999/xlink">
    <!-- Generator: Sketch 52.5 (67469) - http://www.bohemiancoding.com/sketch -->
    <title>logo-guardian</title>
    <desc>Created with Sketch.</desc>
    <g id="V2" stroke="none" stroke-width="1" fill="none" fill-rule="evenodd">
        <g id="employers" transform="translate(-168.000000, -4036.000000)">
            <g id="guardian" transform="translate(0.000000, 3952.000000)">
                <g id="Group-14" transform="translate(168.000000, 81.000000)">
                    <g id="Group-26">
                        <g id="logo-guardian" transform="translate(0.000000, 3.000000)">
                            <polygon id="Fill-1" fill="#E87722" points="0 48 116.519084 48 116.519084 0 0 0"></polygon>
                            <path d="M24.7092693,19.0111329 L24.7092693,19.668688 C24.7092693,23.1473966 24.7120771,26.6261052 24.7083334,30.1048138 C24.7045896,32.9725363 22.5510017,35.752709 19.7497463,36.4260976 C15.6709387,37.4077733 12.6197884,34.8678969 11.7418808,32.0877242 C12.5318105,32.0877242 13.2983418,32.0709594 14.0620653,32.1026263 C14.1865447,32.1082146 14.3269351,32.3028733 14.4186568,32.4379235 C15.5520748,34.1004389 17.4286258,34.8120141 19.2490207,34.2624992 C21.2322683,33.6617584 22.4911018,31.5670822 22.4143551,29.966038 C22.3404162,28.433916 22.4115473,26.8952743 22.3947004,25.3603582 C22.372238,23.253574 21.03385,21.4737047 19.1264131,20.9754157 C17.3752775,20.5181076 15.5137015,21.188702 14.4860441,22.6463135 C13.3685369,24.2324556 13.3788322,26.2349251 14.4514145,27.8238613 C15.957335,30.0545192 19.6149715,30.6189361 21.6637347,27.6916052 C21.6637347,28.8111253 21.6871331,29.8011835 21.6412722,30.7884475 C21.6337847,30.9421254 21.3305416,31.1088426 21.1368029,31.2234025 C17.9415186,33.1178318 13.4275009,31.5549742 11.9159648,28.0362162 C10.2584228,24.1784355 12.4457044,19.7608947 16.5348073,18.8192684 C18.5676595,18.3517151 20.4750964,18.7065713 22.1298306,20.0626622 C22.1850508,20.1082999 22.2430789,20.1483493 22.3666224,20.2414874 C22.3890848,19.7879048 22.4078035,19.4134896 22.4274582,19.0111329 L24.7092693,19.0111329 Z M71.1775388,17.0282224 L71.1775388,13.9239291 L73.4041297,13.9239291 L73.4041297,31.6080629 L71.116703,31.6080629 L71.116703,30.9495765 C71.115767,29.0849514 71.130742,27.2203263 71.1120233,25.3557013 C71.0904968,23.1511221 69.7998415,21.4029197 67.8587109,20.9018366 C65.4168548,20.272223 62.9525362,21.7894429 62.4293482,24.245495 C61.8322212,27.0498836 64.0157591,29.6959374 66.9012488,29.6195642 C68.075848,29.5878972 69.1119288,29.1734326 69.8822038,28.2364632 C70.0141708,28.0744029 70.1545611,27.9179308 70.388545,27.6431734 C70.388545,28.7300952 70.4072637,29.687555 70.3688904,30.6431521 C70.3632748,30.7931044 70.1227393,30.9691355 69.9542709,31.0734501 C66.8301176,32.9893012 62.3788077,31.6015433 60.7315609,28.2038648 C58.8512662,24.3218682 61.0450993,19.6873156 65.2568098,18.7419638 C67.392615,18.2632338 69.3665033,18.6795612 71.1775388,20.240556 L71.1775388,17.0282224 Z M90.811597,20.2657033 L90.811597,18.9962308 L93.0400598,18.9962308 L93.0400598,31.6686027 L90.7507612,31.6686027 C90.7507612,31.3733549 90.7516971,31.1069799 90.7507612,30.8406049 C90.7423378,28.8791162 90.7947502,26.9157647 90.710516,24.9580015 C90.5701256,21.7000303 86.9957873,19.778591 84.1589664,21.4178218 C82.6455584,22.2923887 81.8855786,23.6903918 81.967941,25.3966821 C82.054983,27.2110125 82.9600328,28.6118098 84.6971294,29.3420126 C86.2676294,30.0023618 87.757639,29.7685852 89.095091,28.7207814 C89.4123732,28.4721026 89.6510368,28.1256288 90.0254111,27.7139583 C90.0254111,28.5084265 89.9570878,29.213482 90.0441298,29.8999099 C90.1470827,30.726045 89.7895553,31.1572744 89.0679489,31.4292377 C84.9732304,32.9716049 80.527536,30.9551647 79.7778515,26.3811519 C79.1666856,22.6472449 81.7695226,19.4507448 84.8272244,18.8080918 C86.9021938,18.3722054 88.8274134,18.681424 90.5027382,20.0617308 C90.5617022,20.1101627 90.6309614,20.1464865 90.811597,20.2657033 Z M50.7067541,20.2377619 L50.7067541,19.0241722 L52.9848215,19.0241722 L52.9848215,31.6807107 L50.7395118,31.6807107 C50.7395118,30.882517 50.7507431,30.110402 50.7385759,29.3401498 C50.7114338,27.7512136 50.7788211,26.1511008 50.6112886,24.5761353 C50.4072547,22.6491077 48.8554733,21.1710058 46.9910895,20.8701697 C45.1538478,20.5730591 43.3109905,21.498852 42.4190438,23.1669556 C41.5186737,24.8527555 41.8097497,26.8952743 43.1088284,28.2932774 C45.0649339,30.3981988 48.409968,30.0023618 49.7268294,27.9933727 C49.7670747,27.9319015 49.8297824,27.8844011 50.009482,27.6971935 C50.009482,28.785978 50.0282007,29.7117709 49.9935711,30.6347696 C49.9870196,30.7949672 49.7848575,30.9905572 49.6238765,31.0967347 C48.32199,31.9508112 46.8497632,32.0290472 45.370049,31.881889 C41.9052151,31.5391407 39.8882738,28.6928399 39.6645852,26.1371301 C39.3669576,22.7385203 41.2060712,19.876386 44.292787,18.95525 C46.605484,18.2650966 48.7506485,18.6348549 50.7067541,20.2377619 Z M105.490812,24.5044189 C105.556327,26.8766467 105.512338,29.2526 105.511402,31.6276219 C105.511402,31.7021324 105.49362,31.7775743 105.479581,31.8902714 L103.135062,31.8902714 L103.135062,31.2736971 C103.132254,28.8204391 103.139741,26.3671812 103.123831,23.9148546 C103.113535,22.1331225 102.124251,21.0750735 100.499467,21.0657597 C98.8447328,21.0564459 97.720674,22.1703778 97.6954038,23.9139233 C97.6617101,26.3271318 97.6720054,28.7412718 97.662646,31.1544803 C97.6617101,31.3854628 97.662646,31.6164454 97.662646,31.8995852 L95.4547738,31.8995852 L95.4547738,19.0502509 L96.5226764,19.0502509 L97.6149133,19.0502509 C97.6467351,19.2346644 97.6720054,19.3818226 97.7000834,19.5429515 C97.7637271,19.5289808 97.8217551,19.5308436 97.8638722,19.5047649 C100.486364,17.8636713 103.726573,18.7764249 105.006933,21.6422846 C105.386923,22.493567 105.46367,23.5413708 105.490812,24.5044189 Z M35.0878598,19.4470193 C35.0906676,19.1927522 35.0878598,18.9375538 35.0878598,18.6441687 L37.2770133,18.6441687 L37.2770133,31.5559056 L35.14308,31.5559056 C35.1131301,31.427375 35.0775645,31.2690402 35.0298318,31.0594794 C34.1116789,31.6732596 33.1317543,31.9452229 32.0713392,31.9414974 C29.4479115,31.9312522 27.2961955,29.973489 27.1754598,27.2762092 C27.0491085,24.468095 27.0940334,21.6534612 27.0668912,18.8416215 C27.0659553,18.7857387 27.0940334,18.7307872 27.1230474,18.6236784 L29.4872208,18.6236784 L29.4872208,19.2663313 C29.4872208,21.6832654 29.4694381,24.1001995 29.4928365,26.5162022 C29.5115552,28.3128364 30.0572057,29.0830886 31.492931,29.4835825 C33.2534259,29.9744204 34.9268789,28.8055371 34.9933303,26.9306668 C35.0813083,24.4382909 35.0625896,21.941258 35.0878598,19.4470193 Z M56.6396502,19.4377055 C57.1946601,19.2048602 57.7178481,18.9543187 58.2597548,18.7699052 C58.562062,18.6665219 58.8961911,18.6739729 59.2677575,18.6236784 L59.2677575,20.9772785 C57.937793,21.0219848 57.07954,21.7819918 56.7472828,23.1837204 C56.6190596,23.7304412 56.6209315,24.323731 56.6171878,24.895599 C56.6022128,27.019148 56.6115721,29.1417656 56.6115721,31.2643833 L56.6115721,31.9414974 L54.5553215,31.9414974 L54.5553215,18.9822601 L56.5638394,18.9822601 C56.5919175,19.1508401 56.6190596,19.3129004 56.6396502,19.4377055 Z M75.7608157,31.1572744 L78.1175017,31.1572744 L78.1175017,18.6236784 L75.7608157,18.6236784 L75.7608157,31.1572744 Z M76.4814862,13.9239291 C77.3818563,13.9080956 78.1090783,14.6038373 78.1165657,15.4886494 C78.1249892,16.3352749 77.4127421,17.0468501 76.5470016,17.0570953 C75.6597346,17.0682718 74.9830532,16.4069912 74.9755657,15.5231105 C74.9690141,14.6252591 75.6148097,13.9397626 76.4814862,13.9239291 Z" id="Fill-2" fill="#FEFEFE"></path>
                        </g>
                    </g>
                </g>
            </g>
        </g>
    </g>
</svg>