<svg height="48" width="129" xmlns="http://www.w3.org/2000/svg"><g fill="none" fill-rule="evenodd"><path d="M71.115 11.978v-1.667l6.022-.01v5.275c-.925.737-1.878 1.29-2.862 1.664a8.49 8.49 0 0 1-3.024.557c-1.397 0-2.667-.299-3.806-.897a5.928 5.928 0 0 1-2.585-2.594c-.582-1.131-.873-2.396-.873-3.792 0-1.384.29-2.675.867-3.875.58-1.2 1.413-2.09 2.498-2.671 1.086-.582 2.338-.873 3.754-.873 1.028 0 1.956.166 2.787.498.831.334 1.483.798 1.955 1.392.471.596.831 1.372 1.077 2.328l-1.697.465c-.214-.723-.478-1.292-.796-1.706-.317-.413-.77-.745-1.357-.995-.589-.249-1.242-.373-1.96-.373-.859 0-1.603.131-2.23.394-.626.262-1.132.605-1.518 1.032a4.949 4.949 0 0 0-.897 1.406 7.445 7.445 0 0 0-.543 2.862c0 1.266.218 2.328.654 3.18a4.194 4.194 0 0 0 1.907 1.9c.834.416 1.72.62 2.658.62.814 0 1.61-.154 2.385-.468.776-.314 1.365-.648 1.765-1.004v-2.648zm8.534 5.577V3.337h1.746v14.218H79.65zm5.596-5.15c0 1.318.288 2.307.864 2.963.574.657 1.3.984 2.173.984.866 0 1.586-.329 2.162-.988.574-.66.864-1.665.864-3.017 0-1.273-.29-2.239-.87-2.896-.578-.656-1.298-.984-2.156-.984-.873 0-1.599.327-2.173.98-.576.652-.864 1.64-.864 2.958zm-1.795 0c0-1.907.53-3.32 1.592-4.237.884-.763 1.964-1.147 3.238-1.147 1.416 0 2.573.466 3.473 1.392.897.929 1.347 2.21 1.347 3.846 0 1.325-.2 2.368-.596 3.127a4.216 4.216 0 0 1-1.737 1.77 5.041 5.041 0 0 1-2.487.632c-1.442 0-2.609-.463-3.497-1.388-.888-.923-1.333-2.256-1.333-3.995zm13.287-.077c0 1.235.168 2.127.504 2.677.55.9 1.295 1.348 2.23 1.348.765 0 1.424-.333 1.98-.995.555-.663.834-1.649.834-2.963 0-1.344-.268-2.336-.8-2.976-.533-.641-1.179-.962-1.934-.962-.764 0-1.423.332-1.98.995s-.834 1.62-.834 2.876zm.02 5.227h-1.62V3.337h1.746V8.41c.737-.923 1.678-1.387 2.823-1.387a4.36 4.36 0 0 1 1.8.382c.565.257 1.03.615 1.396 1.079.365.461.651 1.019.858 1.672.207.652.31 1.352.31 2.096 0 1.764-.437 3.127-1.31 4.09-.872.964-1.92 1.446-3.14 1.446-1.217 0-2.172-.508-2.862-1.523v1.29zm16.012-5.17c-.634.26-1.584.479-2.85.66-.719.103-1.227.221-1.524.349a1.49 1.49 0 0 0-.932 1.398c0 .464.177.852.53 1.164.352.31.867.465 1.547.465.672 0 1.27-.147 1.794-.44a2.735 2.735 0 0 0 1.154-1.208c.188-.395.28-.977.28-1.747v-.64zm.145 3.9c-.646.55-1.268.938-1.868 1.163a5.375 5.375 0 0 1-1.925.34c-1.13 0-2.002-.277-2.609-.83s-.912-1.258-.912-2.119c0-.504.116-.963.345-1.38.231-.42.53-.754.903-1.005.371-.253.79-.443 1.255-.572.344-.09.86-.178 1.553-.262 1.409-.168 2.448-.368 3.113-.602.007-.238.009-.39.009-.454 0-.713-.164-1.213-.493-1.505-.447-.393-1.11-.59-1.988-.59-.822 0-1.427.143-1.819.431-.391.288-.681.796-.868 1.527l-1.705-.233c.155-.73.41-1.32.766-1.77.354-.449.867-.796 1.541-1.038.672-.242 1.451-.363 2.338-.363.878 0 1.593.103 2.143.31s.954.467 1.213.78c.258.315.44.71.543 1.19.057.295.086.832.086 1.61v2.326c0 1.622.037 2.649.113 3.079.074.43.222.842.44 1.237h-1.823a3.655 3.655 0 0 1-.35-1.27zm4.285 1.27V3.337h1.747v14.218zm7.573-11.384h.667c.317 0 .535-.048.651-.142a.47.47 0 0 0 .174-.378c0-.1-.028-.19-.083-.27a.511.511 0 0 0-.233-.177c-.1-.039-.284-.06-.552-.06h-.624zm-.548 1.915V4.683h1.169c.4 0 .688.032.867.094a.85.85 0 0 1 .429.329.901.901 0 0 1-.109 1.148c-.178.185-.412.288-.706.31.12.05.216.111.29.181.137.133.305.358.502.674l.416.667h-.67l-.301-.536c-.238-.423-.43-.687-.574-.794-.102-.079-.25-.118-.442-.118h-.323v1.448zm1.386-4.387a2.68 2.68 0 0 0-1.297.342 2.46 2.46 0 0 0-.986.976 2.657 2.657 0 0 0-.357 1.322c0 .456.117.892.351 1.31.233.416.56.743.979.976.419.234.856.35 1.312.35.454 0 .892-.116 1.311-.35.42-.233.744-.56.977-.977.232-.417.347-.853.347-1.309 0-.458-.118-.899-.355-1.322a2.437 2.437 0 0 0-.986-.976 2.69 2.69 0 0 0-1.296-.342zm0-.524c.532 0 1.05.136 1.555.408.506.273.9.663 1.183 1.168.28.508.423 1.036.423 1.586a3.22 3.22 0 0 1-.417 1.573 2.946 2.946 0 0 1-1.169 1.17 3.197 3.197 0 0 1-1.575.418 3.19 3.19 0 0 1-1.572-.417 2.955 2.955 0 0 1-1.173-1.17 3.203 3.203 0 0 1-.419-1.574c0-.55.14-1.078.425-1.586a2.94 2.94 0 0 1 1.185-1.168 3.254 3.254 0 0 1 1.554-.408z" fill="#8f9093"/><path d="M4.59 32.639a.43.43 0 0 0 .826.164 87.733 87.733 0 0 1 7.65-14.528.429.429 0 0 1 .665-.068l1.13 1.13c.096.096.143.23.122.366a84.948 84.948 0 0 0-.82 13.188.436.436 0 0 0 .27.394.444.444 0 0 0 .21.028.477.477 0 0 0 .165-.054.646.646 0 0 0 .09-.068c.914-.92 1.92-1.745 2.984-2.487 1.704-1.185 3.54-2.144 5.431-2.941a42.57 42.57 0 0 1 4.102-1.475 59.998 59.998 0 0 1 6.033-1.48c2.836-.551 5.692-.933 8.561-1.22 3.068-.306 6.151-.5 9.236-.633 4.385-.188 8.779-.256 13.149-.29 4.294-.033 8.586-.03 12.878-.027 5.345.004 10.686.011 16.03.011 6.338.002 12.68-.004 19.02-.006 5.378-.001 10.754 0 16.131.01a.43.43 0 0 1 .367.65l-.66 1.113a.432.432 0 0 1-.364.21c-10.196.094-20.402.235-30.602.432-5.1.098-10.2.213-15.295.344-5.095.13-10.189.277-15.28.46-6.604.237-13.208.509-19.782 1.072-3.563.306-7.16.705-10.691 1.325-3.554.626-7.049 1.466-10.357 2.788-1.741.7-3.453 1.544-5.025 2.574-1.573 1.028-3.006 2.235-4.226 3.642a17.53 17.53 0 0 0-1.782 2.437 18.714 18.714 0 0 0-2.03 4.76.429.429 0 0 1-.718.192l-1.225-1.225a.423.423 0 0 1-.125-.319l.443-12.197a.43.43 0 0 0-.805-.228 77.942 77.942 0 0 0-6.907 16.365.431.431 0 0 1-.718.183l-.607-.608a.436.436 0 0 1-.126-.303V28.226a.43.43 0 0 0-.62-.386l-.696.347A.43.43 0 0 1 0 27.801v-1.775c0-.163.092-.312.24-.386l3.729-1.848a.43.43 0 0 1 .62.386v8.46z" fill="#00a6e1"/><path d="M26.749.306h2.368V10.65c0 1.8-.203 3.228-.61 4.286s-1.142 1.918-2.203 2.583c-1.064.663-2.458.995-4.184.995-1.678 0-3.05-.288-4.115-.866-1.067-.58-1.83-1.416-2.285-2.51-.456-1.095-.683-2.592-.683-4.488V.306h2.368v10.33c0 1.557.146 2.702.434 3.438a3.3 3.3 0 0 0 1.49 1.704c.705.4 1.565.6 2.583.6 1.742 0 2.985-.395 3.725-1.185s1.112-2.308 1.112-4.556zm5.507 12.15l2.234-.195c.107.896.353 1.63.74 2.205.386.574.988 1.037 1.8 1.392.815.354 1.73.531 2.75.531.902 0 1.7-.135 2.392-.402.692-.268 1.207-.639 1.545-1.106s.506-.979.506-1.532c0-.563-.16-1.053-.487-1.472-.325-.42-.864-.771-1.612-1.058-.482-.186-1.543-.478-3.188-.871-1.643-.395-2.797-.768-3.456-1.119-.855-.447-1.492-1.002-1.911-1.667a4.082 4.082 0 0 1-.63-2.228c0-.903.257-1.748.77-2.533.514-.787 1.263-1.383 2.247-1.79.986-.407 2.08-.612 3.286-.612 1.326 0 2.496.214 3.512.643 1.011.428 1.792 1.056 2.337 1.886.546.831.838 1.77.879 2.821l-2.271.172c-.122-1.132-.536-1.987-1.24-2.564-.704-.578-1.744-.868-3.12-.868-1.433 0-2.476.262-3.132.788-.655.525-.984 1.158-.984 1.898 0 .643.233 1.172.696 1.588.456.415 1.647.842 3.572 1.277 1.926.434 3.246.816 3.962 1.141 1.043.482 1.813 1.09 2.31 1.826.495.737.744 1.586.744 2.546 0 .953-.273 1.85-.818 2.693-.545.842-1.33 1.5-2.35 1.967-1.023.469-2.173.703-3.45.703-1.622 0-2.978-.236-4.073-.709s-1.953-1.183-2.577-2.132c-.623-.95-.95-2.022-.983-3.218zM54.3 18.21V2.417h-5.898V.305h14.191v2.112h-5.924v15.792H54.3z" fill="#d63326"/></g></svg>