<svg height="32" width="178" xmlns="http://www.w3.org/2000/svg"><g fill="none" fill-rule="evenodd"><path d="M45.372 27.559c.043 1.651.317 2.2.74 2.348.361.128.764.15 1.102.15.232 0 .359.04.359.17 0 .169-.19.21-.486.21-1.377 0-2.224-.062-2.625-.062-.191 0-1.186.062-2.285.062-.276 0-.469-.021-.469-.21 0-.13.13-.17.341-.17.274 0 .656-.022.953-.105.55-.17.635-.785.655-2.626l.191-12.531c0-.421.062-.72.276-.72.232 0 .423.274.782.658a279.56 279.56 0 0 0 6.562 6.793c1.44 1.44 4.298 4.488 4.657 4.826h.105l-.21-9.503c-.022-1.29-.213-1.693-.72-1.906-.318-.127-.827-.127-1.123-.127-.253 0-.338-.064-.338-.191 0-.169.233-.189.55-.189 1.102 0 2.117.062 2.56.062.234 0 1.037-.062 2.076-.062.275 0 .487.02.487.189 0 .127-.127.191-.381.191-.212 0-.38 0-.634.065-.595.17-.764.613-.784 1.796l-.232 13.358c0 .465-.085.656-.276.656-.233 0-.488-.233-.721-.464-1.332-1.273-4.042-4.044-6.242-6.225-2.31-2.286-4.658-4.933-5.038-5.334h-.064l.232 8.89zm18.163-5.124c0-3.618 2.392-8.297 8.742-8.297 5.27 0 8.551 3.07 8.551 7.918 0 4.846-3.386 8.677-8.763 8.677-6.075 0-8.53-4.55-8.53-8.298zm14.332.404c0-4.743-2.732-7.683-6.203-7.683-2.436 0-5.209 1.352-5.209 6.626 0 4.4 2.435 7.892 6.5 7.892 1.483 0 4.912-.72 4.912-6.835zm7.43-6.331c-.485-1.164-.845-1.395-1.607-1.608-.318-.084-.656-.084-.826-.084-.19 0-.252-.064-.252-.191 0-.169.231-.188.548-.188 1.122 0 2.33.06 3.07.06.53 0 1.544-.06 2.603-.06.254 0 .487.041.487.188 0 .15-.126.19-.318.19-.336 0-.654.023-.826.15-.147.104-.21.253-.21.444 0 .275.19.868.485 1.63l3.643 9.612h.083c.91-2.331 3.662-9.147 4.17-10.543.105-.277.19-.594.19-.783a.41.41 0 0 0-.275-.405c-.254-.082-.57-.104-.848-.104-.186 0-.359-.021-.359-.17 0-.168.19-.209.595-.209 1.056 0 1.947.06 2.222.06.36 0 1.355-.06 1.99-.06.276 0 .444.041.444.188 0 .15-.13.19-.34.19-.212 0-.655 0-1.038.254-.275.192-.59.552-1.164 1.905-.824 1.991-1.395 3.133-2.536 5.74-1.358 3.089-2.351 5.395-2.816 6.453-.552 1.229-.68 1.566-.973 1.566-.277 0-.405-.296-.806-1.29l-5.335-12.935zm19.584 8.404c-.104 0-.147.045-.187.17l-1.144 3.028c-.213.526-.318 1.036-.318 1.29 0 .382.193.656.848.656h.316c.253 0 .319.041.319.17 0 .17-.13.211-.36.211-.679 0-1.589-.063-2.245-.063-.23 0-1.395.063-2.496.063-.277 0-.404-.04-.404-.21 0-.13.085-.171.253-.171.194 0 .488-.021.657-.04.975-.13 1.377-.849 1.798-1.906l5.315-13.294c.253-.614.382-.848.594-.848.189 0 .314.191.527.678.51 1.167 3.895 9.804 5.25 13.018.806 1.902 1.418 2.2 1.864 2.307a4.6 4.6 0 0 0 .889.085c.168 0 .275.022.275.17 0 .17-.193.211-.973.211-.763 0-2.308 0-4.004-.04-.38-.023-.634-.023-.634-.17 0-.13.087-.171.297-.192.15-.043.296-.233.19-.487l-1.694-4.485c-.04-.106-.103-.15-.208-.15h-4.725zm4.321-1.059c.106 0 .127-.062.106-.125l-1.904-5.227c-.023-.088-.043-.194-.107-.194s-.107.106-.13.194l-1.945 5.205c-.022.085 0 .147.085.147zm12.42-3.282c0-3.215 0-3.808-.043-4.484-.044-.718-.213-1.06-.913-1.206-.168-.044-.53-.065-.825-.065-.233 0-.36-.041-.36-.191 0-.147.15-.189.466-.189 1.124 0 2.455.062 2.9.062.722 0 2.328-.062 2.986-.062 1.331 0 2.752.126 3.893.908.595.404 1.44 1.482 1.44 2.902 0 1.565-.658 3.006-2.795 4.738 1.885 2.376 3.345 4.258 4.595 5.57 1.185 1.228 2.05 1.376 2.37 1.439.233.042.424.064.593.064.167 0 .253.064.253.17 0 .169-.15.21-.4.21h-2.012c-1.184 0-1.714-.103-2.265-.402-.91-.487-1.714-1.482-2.9-3.111-.847-1.166-1.82-2.604-2.095-2.922-.108-.127-.233-.15-.381-.15l-1.841-.04c-.106 0-.169.04-.169.169v.296c0 1.968 0 3.64.104 4.532.065.614.191 1.077.826 1.162a9.37 9.37 0 0 0 1.035.086c.172 0 .257.064.257.17 0 .148-.15.21-.424.21-1.227 0-2.795-.062-3.113-.062-.402 0-1.733.062-2.581.062-.276 0-.423-.062-.423-.21 0-.106.083-.17.337-.17.318 0 .573-.042.764-.086.423-.085.528-.548.613-1.162.108-.892.108-2.564.108-4.51zm2.497 1.673c0 .235.042.32.188.382.446.15 1.082.213 1.61.213.845 0 1.123-.088 1.503-.36.633-.465 1.247-1.438 1.247-3.175 0-3.007-1.986-3.872-3.238-3.872-.53 0-.91.017-1.122.082-.146.045-.188.128-.188.298zm18.844-6.623l-3.157.084c-1.227.043-1.732.149-2.052.613-.212.318-.317.572-.36.742-.043.168-.107.256-.233.256-.146 0-.188-.107-.188-.342 0-.338.402-2.262.444-2.432.062-.275.125-.404.254-.404.167 0 .38.212.908.255.613.064 1.42.105 2.12.105h8.378c1.356 0 1.865-.212 2.032-.212.151 0 .17.126.17.446 0 .444-.062 1.904-.062 2.456-.02.212-.061.337-.19.337-.17 0-.213-.105-.234-.423l-.02-.232c-.043-.552-.614-1.144-2.499-1.186l-2.668-.063V24.3c0 1.946 0 3.618.109 4.53.065.594.19 1.057.824 1.142a8.6 8.6 0 0 0 1.079.086c.232 0 .34.064.34.17 0 .148-.17.21-.404.21-1.395 0-2.728-.062-3.322-.062-.487 0-1.822.062-2.666.062-.277 0-.422-.062-.422-.21 0-.106.08-.17.336-.17.318 0 .573-.042.763-.086.422-.085.55-.548.613-1.162.107-.892.107-2.564.107-4.51v-8.678zm15.302 4.95c0-3.215 0-3.808-.042-4.484-.043-.718-.255-1.08-.719-1.187a3.055 3.055 0 0 0-.763-.084c-.214 0-.34-.041-.34-.21 0-.128.172-.17.51-.17.804 0 2.136.062 2.75.062.53 0 1.78-.062 2.583-.062.277 0 .447.042.447.17 0 .169-.13.21-.341.21-.212 0-.38.021-.633.065-.574.104-.742.463-.785 1.206-.043.676-.043 1.269-.043 4.484v3.728c0 2.053 0 3.726.086 4.638.064.568.21.95.845 1.034.296.044.761.086 1.08.086.232 0 .34.064.34.17 0 .148-.169.21-.403.21-1.397 0-2.731-.062-3.304-.062-.486 0-1.818.062-2.663.062-.279 0-.425-.062-.425-.21 0-.106.082-.17.336-.17.318 0 .576-.042.765-.086.422-.085.549-.442.613-1.056.106-.89.106-2.563.106-4.616zm11.001 9.611c-.336-.147-.4-.252-.4-.717 0-1.164.085-2.436.105-2.775.023-.317.084-.55.254-.55.19 0 .213.193.213.358 0 .277.083.72.189 1.082.465 1.566 1.715 2.138 3.028 2.138 1.904 0 2.836-1.29 2.836-2.413 0-1.038-.318-2.033-2.076-3.386l-.974-.763c-2.327-1.822-3.132-3.302-3.132-5.018 0-2.326 1.947-4 4.89-4 1.375 0 2.264.212 2.815.36.192.044.299.107.299.254 0 .276-.085.89-.085 2.54 0 .466-.064.636-.235.636-.148 0-.212-.127-.212-.382 0-.19-.104-.846-.548-1.397-.318-.4-.934-1.036-2.31-1.036-1.565 0-2.517.91-2.517 2.179 0 .973.487 1.714 2.243 3.05l.592.443c2.54 1.966 3.473 3.386 3.473 5.398 0 1.225-.466 2.689-1.992 3.682-1.06.68-2.241.868-3.364.868-1.229 0-2.18-.148-3.092-.55z" fill="#007c9e"/><path d="M12.916 31.84c-11.745-.9-15.315-7.654-11.381-15.256 2.119-4.093 5.357-8.5 1.498-12.57-.104-.134-.018-.218.144-.144 8.786 3.5 4.214 10.572 2.714 13.5-2.957 5.774-1.07 12.786 7.025 14.296.178.037.164.188 0 .172" fill="#f05a22"/><path d="M14.485 25.4L16.469.846 11.814.842l2.506 24.557c.012.158.151.153.165 0" fill="#007c9e"/><path d="M19.8 13.04c2.9 2.282 7.63 14.967-3.915 18.622-.188.047-.172.188.002.172 18.366-2.297 12.054-15.473 4.068-18.95-.213-.101-.313.032-.155.155" fill="#faae17"/></g></svg>