<?xml version="1.0" encoding="UTF-8"?>
<svg width="129px" height="26px" viewBox="0 0 129 26" version="1.1" xmlns="http://www.w3.org/2000/svg" xmlns:xlink="http://www.w3.org/1999/xlink">
    <!-- Generator: Sketch 52.5 (67469) - http://www.bohemiancoding.com/sketch -->
    <title>logo-omron</title>
    <desc>Created with Sketch.</desc>
    <g id="V2" stroke="none" stroke-width="1" fill="none" fill-rule="evenodd">
        <g id="employers" transform="translate(-460.000000, -4307.000000)" fill="#0088CE">
            <g id="guardian" transform="translate(0.000000, 3952.000000)">
                <g id="Group-14" transform="translate(168.000000, 81.000000)">
                    <g id="Group-2" transform="translate(1.000000, 268.000000)">
                        <g id="logo-omron" transform="translate(291.000000, 6.000000)">
                            <path d="M93.6462231,0 C86.5298153,0 80.7034364,5.77496973 80.7034364,12.9167394 C80.7034364,20.0331472 86.5298153,25.8334788 93.6462231,25.8334788 C100.736584,25.8334788 106.537601,20.0331472 106.537601,12.9167394 C106.537601,5.77496973 100.736584,0 93.6462231,0 Z M93.6462231,5.33696312 C89.5204614,5.33696312 86.1178561,8.73956843 86.1178561,12.8913775 C86.1178561,17.0671776 89.5204614,20.4451065 93.6462231,20.4451065 C97.7973468,20.4451065 101.173905,17.0671776 101.173905,12.8913775 C101.173905,8.73956843 97.7973468,5.33696312 93.6462231,5.33696312 Z M11.9418828,20.5746577 C13.3086828,20.7288854 14.0818776,20.7288854 14.9332143,20.3936973 C16.8922486,19.619817 18.3104578,18.5888907 19.3674315,16.9389973 C19.5477065,16.6812657 20.0117604,15.9587947 20.1413117,15.2891038 C20.5793183,13.4842973 20.5279091,12.1949539 20.0117604,10.5704223 C19.8575328,10.183825 19.728667,9.84863681 19.5477065,9.51344865 C18.5167801,7.70864209 17.0471617,6.54884995 15.1902605,5.87847364 C12.5348026,5.07923154 9.59556577,5.8524263 7.79144466,7.39881582 C5.88313419,9.02403282 4.92966441,11.5506249 5.29021445,14.077217 C5.44512758,15.0053249 5.8577723,16.0369367 6.24436968,16.8361788 C7.92031045,19.619817 10.0082105,20.3162407 11.9418828,20.5746577 Z M108.445226,25.7560223 L113.601228,25.7560223 L113.575866,4.79545261 L118.216406,4.79545261 C120.94932,4.74335793 123.063268,6.39393681 123.063268,8.68815921 L123.089315,25.7560223 L128.246003,25.7560223 L128.246003,8.19874338 C128.246003,3.06810261 123.760377,0.257731587 119.686024,0.257731587 L108.445226,0.257731587 L108.445226,25.7560223 Z M63.7904865,25.7820696 L63.7904865,15.2370092 L63.7644391,4.6919487 L69.514047,4.6919487 C71.8089548,4.6919487 72.2723233,4.76940527 73.4328009,5.87847364 C74.3609088,6.83194342 74.412318,8.19874338 73.7933509,9.7451329 C73.4328009,10.8542013 71.9885444,11.9886315 69.7464167,12.0139934 L65.2340575,12.0139934 L75.1861982,25.7306604 L81.4252219,25.7306604 L74.1806338,15.3919223 C74.6960969,15.3919223 75.8305272,15.0313723 76.5262654,14.4117197 C77.6613811,13.4842973 78.5373943,12.2463631 79.0274956,10.5704223 C79.5950535,8.45647496 79.3366364,5.36232501 77.8156088,3.24837763 C75.4432444,0.102818452 71.3188535,0.0774565673 70.3386509,0.0774565673 L58.2986102,0.0774565673 L58.2986102,25.7820696 L63.7904865,25.7820696 Z M33.1608695,25.7306604 L33.1608695,4.71799604 L38.6013366,4.71799604 L38.6013366,25.7306604 L44.3242116,25.7306604 L44.3242116,4.71799604 L45.2015958,4.71799604 C48.0373287,4.6919487 49.790726,6.36788947 49.8160879,8.68815921 L49.8160879,25.7306604 L55.1790984,25.7306604 L55.1790984,8.2501526 C54.9981379,3.06810261 50.5639208,0.102818452 46.5930721,0.0774565673 L27.5140802,0.0774565673 L27.5140802,25.7306604 L33.1608695,25.7306604 Z M12.3805749,25.988392 C16.6605643,26.1947143 21.0947815,23.6160276 23.0024065,21.0119789 C24.9621262,18.4600249 25.3747709,16.7840841 25.709959,13.5357065 C25.9416433,11.911175 25.5550459,10.2098723 25.0656301,8.66279732 C24.3692064,6.54884995 23.0024065,4.71799604 21.3785604,3.27442497 C18.6710078,0.902060554 14.3656565,-0.309826269 10.5243591,0.38659738 C7.81680655,0.954155236 5.70285917,2.08790004 4.05228028,3.55751845 C2.89248814,4.6919487 2.11929338,5.8524263 1.42286973,7.01221844 C1.03627235,7.86355522 0.778540767,8.63743544 0.468714497,9.51344865 C-0.665030302,13.3807934 0.365896045,17.7896486 2.40238685,20.626067 C4.36210655,23.3843433 7.68794075,25.3187011 10.8849092,25.8074315 C11.4778289,25.9623446 11.8644263,25.988392 12.3805749,25.988392 Z"></path>
                        </g>
                    </g>
                </g>
            </g>
        </g>
    </g>
</svg>