<svg width="153" height="30" xmlns="http://www.w3.org/2000/svg"><path d="M11.964 4.72c-1.8 0-2.322.8-2.322 2.56v2.921h4.803l-.48 4.723H9.642V29.25H3.88V14.924H0v-4.723h3.88v-2.84C3.88 2.6 5.802.078 11.164.078c1.16 0 2.52.08 3.36.2V4.72h-2.56zm8.643 15.685c0 2.841 1.041 4.72 3.72 4.72 2.362 0 3.563-1.72 3.563-4.439v-1.922c0-2.721-1.2-4.441-3.562-4.441-2.68 0-3.721 1.881-3.721 4.722v1.36zm-5.762-1.28c0-5.322 2.52-9.324 7.803-9.324 2.88 0 4.64 1.481 5.48 3.321v-2.92h5.524v19.045h-5.523v-2.879c-.8 1.84-2.6 3.28-5.481 3.28-5.283 0-7.803-4-7.803-9.322v-1.2zm30.808-9.324c2.24 0 4.363.48 5.521 1.28l-1.28 4.082c-.88-.44-2.32-.88-3.84-.88-3.123 0-4.482 1.8-4.482 4.882v1.119c0 3.082 1.36 4.881 4.481 4.881 1.521 0 2.96-.44 3.84-.88l1.281 4.082c-1.158.8-3.281 1.28-5.52 1.28-6.762 0-9.844-3.641-9.844-9.483v-.88c0-5.841 3.082-9.483 9.843-9.483zm12.044 8.163h6.962v-.48c0-2.08-.84-3.72-3.36-3.72-2.603 0-3.602 1.64-3.602 4.2zm-5.762 2.481v-1.68c0-5.402 3.08-8.964 9.363-8.964 5.921 0 8.522 3.602 8.522 8.884v3.04H57.697c.119 2.603 1.28 3.761 4.481 3.761 2.16 0 4.442-.44 6.122-1.158l1.04 3.96c-1.52.8-4.641 1.399-7.403 1.399-7.28 0-10.002-3.64-10.002-9.242zm33.49-1.442c0-2.682-1.041-4.68-3.8-4.68-2.362 0-3.642 1.68-3.642 4.4v2c0 2.722 1.28 4.403 3.641 4.403 2.76 0 3.8-2.001 3.8-4.683v-1.44zm5.762 1.32c0 5.322-2.56 9.324-7.843 9.324-2.88 0-4.882-1.441-5.682-3.28v2.88H72.22V.637l5.762-.52V12.84c.84-1.68 2.68-3.04 5.361-3.04 5.283 0 7.843 4 7.843 9.322v1.2zm15.123-1.479c0-2.52-1.041-4.521-3.72-4.521-2.683 0-3.722 2-3.722 4.521v1.76c0 2.52 1.04 4.522 3.721 4.522 2.68 0 3.721-2.001 3.721-4.522v-1.76zm-13.204 1.36v-.96c0-5.48 3.12-9.443 9.483-9.443 6.361 0 9.483 3.962 9.483 9.443v.96c0 5.483-3.122 9.443-9.483 9.443-6.363 0-9.483-3.96-9.483-9.443zm34.09-1.36c0-2.52-1.042-4.521-3.722-4.521-2.682 0-3.721 2-3.721 4.521v1.76c0 2.52 1.04 4.522 3.721 4.522 2.68 0 3.721-2.001 3.721-4.522v-1.76zm-13.205 1.36v-.96c0-5.48 3.12-9.443 9.483-9.443 6.361 0 9.483 3.962 9.483 9.443v.96c0 5.483-3.122 9.443-9.483 9.443-6.363 0-9.483-3.96-9.483-9.443zm26.886-.92l5.683-9.083h6.122l-5.963 9.404 6.202 9.642h-6.12l-5.924-9.321v9.32h-5.762V.64l5.762-.522v19.167z" fill="#0E4787" fill-rule="evenodd"/></svg>