<?xml version="1.0" encoding="UTF-8"?>
<svg width="67px" height="56px" viewBox="0 0 67 56" version="1.1" xmlns="http://www.w3.org/2000/svg" xmlns:xlink="http://www.w3.org/1999/xlink">
    <!-- Generator: Sketch 52.5 (67469) - http://www.bohemiancoding.com/sketch -->
    <title>logo-gribbles</title>
    <desc>Created with Sketch.</desc>
    <defs>
        <linearGradient x1="0.000202825199%" y1="49.9999554%" x2="99.9998964%" y2="49.9999554%" id="linearGradient-1">
            <stop stop-color="#66C1D6" offset="0%"></stop>
            <stop stop-color="#4BACBF" offset="100%"></stop>
        </linearGradient>
    </defs>
    <g id="V2" stroke="none" stroke-width="1" fill="none" fill-rule="evenodd">
        <g id="employers" transform="translate(-187.000000, -4212.000000)">
            <g id="guardian" transform="translate(0.000000, 3952.000000)">
                <g id="Group-14" transform="translate(168.000000, 81.000000)">
                    <g id="Group-28" transform="translate(19.000000, 179.000000)">
                        <g id="logo-gribbles">
                            <path d="M46.5322566,16.2067027 C47.3123214,16.2067027 47.9448692,16.8391495 47.9448692,17.6193153 L47.9448692,34.1745297 C47.9448692,34.9545946 47.3123214,35.5871423 46.5322566,35.5871423 L14.350116,35.5871423 C13.5699503,35.5871423 12.9375034,34.9545946 12.9375034,34.1745297 L12.9375034,2.21981982 C12.9375034,1.43965405 13.5699503,0.807207207 14.350116,0.807207207 L32.0077737,0.807207207 L32.0077737,6.96216216 L20.505071,6.96216216 C19.7249052,6.96216216 19.0924584,7.59460901 19.0924584,8.37477477 L19.0924584,28.0194739 C19.0924584,28.7996396 19.7249052,29.4321874 20.505071,29.4321874 L40.3773016,29.4321874 C41.1573665,29.4321874 41.7899142,28.7996396 41.7899142,28.0194739 L41.7899142,23.7742703 C41.7899142,22.9941045 41.1573665,22.3616577 40.3773016,22.3616577 L26.6860584,22.3616577 C25.0142314,22.3616577 23.6590314,21.0064577 23.6590314,19.3346306 L23.6590314,19.2337297 C23.6590314,17.5620036 25.0142314,16.2067027 26.6860584,16.2067027 L46.5322566,16.2067027 Z M44.9178422,0.807237477 C46.5895683,0.807237477 47.9448692,2.16253838 47.9448692,3.8342645 L47.9448692,3.93516541 C47.9448692,5.60689153 46.5895683,6.96219243 44.9178422,6.96219243 L36.3853593,6.96219243 L36.3853593,0.807237477 L44.9178422,0.807237477 Z M34.1602724,14.092516 C32.6557391,14.092516 31.4359481,12.8728259 31.4359481,11.3681917 C31.4359481,9.86355748 32.6557391,8.64386739 34.1602724,8.64386739 C35.6649067,8.64386739 36.8845968,9.86355748 36.8845968,11.3681917 C36.8845968,12.8728259 35.6649067,14.092516 34.1602724,14.092516 Z" id="Combined-Shape" fill="#221F20"></path>
                            <path d="M13.5429189,0.101001802 L31.2004757,0.101001802 L31.2004757,6.25595676 L19.6978739,6.25595676 C18.9177081,6.25595676 18.2852613,6.8883027 18.2852613,7.66846847 L18.2852613,27.3132685 C18.2852613,28.0934342 18.9177081,28.7257802 19.6978739,28.7257802 L39.5701045,28.7257802 C40.3502703,28.7257802 40.9827171,28.0934342 40.9827171,27.3132685 L40.9827171,23.067964 C40.9827171,22.2878991 40.3502703,21.6553514 39.5701045,21.6553514 L25.8788613,21.6553514 C24.2071351,21.6553514 22.8518342,20.3000505 22.8518342,18.6283243 L22.8518342,18.5274234 C22.8518342,16.8555964 24.2071351,15.5003964 25.8788613,15.5003964 L45.7250595,15.5003964 C46.5051243,15.5003964 47.1376721,16.1328432 47.1376721,16.913009 L47.1376721,33.4682234 C47.1376721,34.2482883 46.5051243,34.8807351 45.7250595,34.8807351 L13.5429189,34.8807351 C12.7627532,34.8807351 12.1302054,34.2482883 12.1302054,33.4682234 L12.1302054,1.51351351 C12.1302054,0.733347748 12.7627532,0.101001802 13.5429189,0.101001802 Z M35.5782631,0.101001802 L44.110645,0.101001802 C45.7823712,0.101001802 47.1376721,1.4562018 47.1376721,3.12792793 L47.1376721,3.22882883 C47.1376721,4.90065586 45.7823712,6.25595676 44.110645,6.25595676 L35.5782631,6.25595676 L35.5782631,0.101001802 Z" id="Combined-Shape" fill="url(#linearGradient-1)"></path>
                            <path d="M36.0773895,10.6618854 C36.0773895,12.1665196 34.8576995,13.3862097 33.3530652,13.3862097 C31.8485319,13.3862097 30.6287409,12.1665196 30.6287409,10.6618854 C30.6287409,9.15725117 31.8485319,7.93756108 33.3530652,7.93756108 C34.8576995,7.93756108 36.0773895,9.15725117 36.0773895,10.6618854" id="Fill-14" fill="#D63B32"></path>
                            <path d="M52.1055582,34.7940915 L52.1055582,33.7046645 C52.1055582,33.6213204 52.0937528,33.5360591 52.0698393,33.4486789 C52.0460267,33.3615005 52.0073816,33.2810825 51.9538032,33.2076267 C51.9002249,33.1342717 51.828787,33.0747402 51.7394897,33.0290321 C51.6501924,32.9834249 51.5380915,32.9605204 51.403187,32.9605204 C51.2642465,32.9605204 51.1491186,32.9803978 51.0579041,33.0200519 C50.9666897,33.0599077 50.894142,33.1133852 50.8405636,33.1808879 C50.7869852,33.2483906 50.7502573,33.3256807 50.7303798,33.41296 C50.7107041,33.5003402 50.7006141,33.5936735 50.7006141,33.6927582 L50.7006141,34.7940915 L52.1055582,34.7940915 Z M50.0934933,35.5382357 L50.0934933,33.6629924 C50.0934933,33.3615005 50.1371834,33.1153023 50.2243618,32.9249023 C50.3118429,32.7343005 50.4209168,32.5875906 50.5518861,32.4842681 C50.6827546,32.3811474 50.8256303,32.3107186 50.9805132,32.2729816 C51.1352951,32.2353456 51.2781708,32.2163762 51.4091402,32.2163762 C51.5400086,32.2163762 51.6820771,32.2353456 51.8347402,32.2729816 C51.9875041,32.3107186 52.1293708,32.3811474 52.2604411,32.4842681 C52.3913095,32.5875906 52.4994753,32.7343005 52.5848375,32.9249023 C52.6701996,33.1153023 52.7128807,33.3615005 52.7128807,33.6629924 L52.7128807,34.7940915 L54.3440447,34.7940915 L54.3440447,35.5382357 L50.0934933,35.5382357 Z M52.6533189,31.1626479 L52.6533189,29.8649614 L50.8257009,30.5018479 L50.8257009,30.5197074 L52.6533189,31.1626479 Z M50.0934631,30.9007092 L50.0934631,30.1090407 L54.3440144,28.4718227 L54.3440144,29.2695452 L53.2187676,29.6684065 L53.2187676,31.3650551 L54.3440144,31.7639164 L54.3440144,32.5318732 L50.0934631,30.9007092 Z M50.093453,29.0493492 L50.093453,25.6083258 L50.7363935,25.6083258 L50.7363935,26.9597924 L54.3440043,26.9597924 L54.3440043,27.7039366 L50.7363935,27.7039366 L50.7363935,29.0493492 L50.093453,29.0493492 Z M50.093453,25.1620007 L50.093453,24.4178566 L51.7841485,24.4178566 L51.7841485,22.4829809 L50.093453,22.4829809 L50.093453,21.7388368 L54.3440043,21.7388368 L54.3440043,22.4829809 L52.427089,22.4829809 L52.427089,24.4178566 L54.3440043,24.4178566 L54.3440043,25.1620007 L50.093453,25.1620007 Z M50.5995315,19.0660728 C50.5995315,19.2922926 50.6451387,19.4878386 50.7363532,19.6525088 C50.8277694,19.8171791 50.9497586,19.9510746 51.1024216,20.0542962 C51.2553874,20.1575178 51.4290378,20.2338998 51.623373,20.2834422 C51.8179099,20.3331863 52.0162811,20.357907 52.2186883,20.357907 C52.4210955,20.357907 52.6196685,20.3331863 52.8140036,20.2834422 C53.0085405,20.2338998 53.182191,20.1575178 53.3348541,20.0542962 C53.4878198,19.9510746 53.609809,19.8171791 53.7010234,19.6525088 C53.7924396,19.4878386 53.8380468,19.2922926 53.8380468,19.0660728 C53.8380468,18.839853 53.7924396,18.6444079 53.7010234,18.4796368 C53.609809,18.3150674 53.4878198,18.181071 53.3348541,18.0778494 C53.182191,17.9747286 53.0085405,17.8983467 52.8140036,17.8487034 C52.6196685,17.7990602 52.4210955,17.7742386 52.2186883,17.7742386 C52.0162811,17.7742386 51.8179099,17.7990602 51.623373,17.8487034 C51.4290378,17.8983467 51.2553874,17.9747286 51.1024216,18.0778494 C50.9497586,18.181071 50.8277694,18.3150674 50.7363532,18.4796368 C50.6451387,18.6444079 50.5995315,18.839853 50.5995315,19.0660728 Z M49.992209,19.0660728 C49.992209,18.7486386 50.0517405,18.4637953 50.1709045,18.2117449 C50.2899676,17.9597953 50.4506018,17.7464908 50.653009,17.5718314 C50.8554162,17.3972728 51.0916252,17.2632764 51.3614342,17.1699431 C51.631445,17.0768115 51.9171964,17.0300944 52.2186883,17.0300944 C52.5243171,17.0300944 52.8120865,17.0768115 53.0819964,17.1699431 C53.3518054,17.2632764 53.5879135,17.3972728 53.7903207,17.5718314 C53.9927279,17.7464908 54.152555,17.9597953 54.2696,18.2117449 C54.386645,18.4637953 54.4451676,18.7486386 54.4451676,19.0660728 C54.4451676,19.3836079 54.386645,19.6683503 54.2696,19.9204007 C54.152555,20.1724512 53.9927279,20.3856548 53.7903207,20.5603142 C53.5879135,20.7349737 53.3518054,20.8689701 53.0819964,20.9621016 C52.8120865,21.055435 52.5243171,21.1020512 52.2186883,21.1020512 C51.9171964,21.1020512 51.631445,21.055435 51.3614342,20.9621016 C51.0916252,20.8689701 50.8554162,20.7349737 50.653009,20.5603142 C50.4506018,20.3856548 50.2899676,20.1724512 50.1709045,19.9204007 C50.0517405,19.6683503 49.992209,19.3836079 49.992209,19.0660728 Z M50.093453,16.3811604 L50.093453,15.6370162 L53.7010638,15.6370162 L53.7010638,13.4760216 L54.3440043,13.4760216 L54.3440043,16.3811604 L50.093453,16.3811604 Z M50.5995315,11.1841686 C50.5995315,11.4103885 50.6451387,11.6059344 50.7363532,11.7706047 C50.8277694,11.935275 50.9497586,12.0691705 51.1024216,12.1723921 C51.2553874,12.2756137 51.4290378,12.3519957 51.623373,12.401538 C51.8179099,12.4512822 52.0162811,12.4760029 52.2186883,12.4760029 C52.4210955,12.4760029 52.6196685,12.4512822 52.8140036,12.401538 C53.0085405,12.3519957 53.182191,12.2756137 53.3348541,12.1723921 C53.4878198,12.0691705 53.609809,11.935275 53.7010234,11.7706047 C53.7924396,11.6059344 53.8380468,11.4103885 53.8380468,11.1841686 C53.8380468,10.9579488 53.7924396,10.7625038 53.7010234,10.5977326 C53.609809,10.4331632 53.4878198,10.2991668 53.3348541,10.1959452 C53.182191,10.0928245 53.0085405,10.0164425 52.8140036,9.96679928 C52.6196685,9.91715604 52.4210955,9.89233441 52.2186883,9.89233441 C52.0162811,9.89233441 51.8179099,9.91715604 51.623373,9.96679928 C51.4290378,10.0164425 51.2553874,10.0928245 51.1024216,10.1959452 C50.9497586,10.2991668 50.8277694,10.4331632 50.7363532,10.5977326 C50.6451387,10.7625038 50.5995315,10.9579488 50.5995315,11.1841686 Z M49.992209,11.1841686 C49.992209,10.8667344 50.0517405,10.5818912 50.1709045,10.3298407 C50.2899676,10.0778912 50.4506018,9.86458667 50.653009,9.68992721 C50.8554162,9.51536865 51.0916252,9.38137225 51.3614342,9.28803892 C51.631445,9.19490739 51.9171964,9.14819027 52.2186883,9.14819027 C52.5243171,9.14819027 52.8120865,9.19490739 53.0819964,9.28803892 C53.3518054,9.38137225 53.5879135,9.51536865 53.7903207,9.68992721 C53.9927279,9.86458667 54.152555,10.0778912 54.2696,10.3298407 C54.386645,10.5818912 54.4451676,10.8667344 54.4451676,11.1841686 C54.4451676,11.5017038 54.386645,11.7864461 54.2696,12.0384966 C54.152555,12.290547 53.9927279,12.5037506 53.7903207,12.6784101 C53.5879135,12.8530695 53.3518054,12.9870659 53.0819964,13.0801975 C52.8120865,13.1735308 52.5243171,13.220147 52.2186883,13.220147 C51.9171964,13.220147 51.631445,13.1735308 51.3614342,13.0801975 C51.0916252,12.9870659 50.8554162,12.8530695 50.653009,12.6784101 C50.4506018,12.5037506 50.2899676,12.290547 50.1709045,12.0384966 C50.0517405,11.7864461 49.992209,11.5017038 49.992209,11.1841686 Z M54.3440043,4.79056288 L54.3440043,5.26681514 L53.8439395,5.37992505 C54.0701593,5.57849802 54.2270602,5.77676829 54.3142386,5.97524036 C54.4014169,6.17371243 54.4452079,6.40195027 54.4452079,6.65985297 C54.4452079,6.97748901 54.3866854,7.26213045 54.2696404,7.5141809 C54.1525953,7.76623135 53.9927683,7.97943495 53.7903611,8.15409441 C53.5879539,8.32875387 53.3518458,8.46275027 53.0819359,8.5558818 C52.8120259,8.64921514 52.5243575,8.69583135 52.2187286,8.69583135 C51.9171359,8.69583135 51.6313845,8.64921514 51.3613737,8.5558818 C51.0916656,8.46275027 50.8554566,8.32875387 50.6530494,8.15409441 C50.4506422,7.97943495 50.289907,7.76623135 50.1709449,7.5141809 C50.0517809,7.26213045 49.9922494,6.97748901 49.9922494,6.65985297 C49.9922494,6.42969802 50.023125,6.21033946 50.0845737,6.00208 C50.1460223,5.79361874 50.2373377,5.60826378 50.3583178,5.44540973 C50.4794998,5.28275748 50.6312548,5.14775207 50.8137845,5.04069622 C50.9964151,4.93343856 51.2066926,4.86603676 51.4448187,4.83828901 L51.4448187,5.56447279 C51.3059791,5.58435027 51.183889,5.62703135 51.0787503,5.69241514 C50.9736115,5.75800072 50.8853232,5.84033586 50.8137845,5.93962234 C50.7424476,6.03880793 50.6887683,6.15000072 50.6530494,6.27289802 C50.6172295,6.39599712 50.5995719,6.52494847 50.5995719,6.65985297 C50.5995719,6.88617369 50.6451791,7.08161874 50.7363935,7.24628901 C50.8277088,7.41106018 50.949698,7.54495568 51.102462,7.6480764 C51.2554277,7.75139892 51.4289773,7.8277809 51.6234133,7.87732324 C51.8179503,7.92696649 52.0163214,7.95168721 52.2187286,7.95168721 C52.421035,7.95168721 52.6196079,7.92696649 52.814044,7.87732324 C53.0085809,7.8277809 53.1821305,7.75139892 53.3348944,7.6480764 C53.4878602,7.54495568 53.6098494,7.41106018 53.7010638,7.24628901 C53.7923791,7.08161874 53.8379863,6.88617369 53.8379863,6.65985297 C53.8419214,6.46945297 53.8170998,6.30074667 53.7635214,6.15383495 C53.7099431,6.00712505 53.632653,5.88301694 53.5313485,5.78171243 C53.4301449,5.68050883 53.3062386,5.60412685 53.1593268,5.55256649 C53.012516,5.50100613 52.849662,5.47325838 52.6711683,5.46932324 L52.6711683,6.60042234 L52.1055178,6.60042234 L52.1055178,4.79056288 L54.3440043,4.79056288 Z M52.677071,2.90349405 L50.0935034,4.4989391 L50.0935034,3.63573189 L51.9984115,2.51058595 L50.0935034,1.40329946 L50.0935034,0.569858018 L52.677071,2.15934991 L54.3440548,2.15934991 L54.3440548,2.90349405 L52.677071,2.90349405 Z" id="Combined-Shape" fill="#377786"></path>
                            <path d="M58.6046189,50.295766 L58.603933,50.705205 C58.5707672,50.5588884 58.5609954,50.4125222 58.5746179,50.2662451 C58.5581752,50.2497298 58.5419807,50.2328964 58.526044,50.2157348 C58.2587575,49.9279654 58.0574602,49.5969095 57.9562566,49.2043041 C57.8850205,48.9280375 57.8584836,48.651569 57.8328548,48.3702573 C57.7839178,47.8331618 57.9023755,47.3280519 58.1045809,46.8411041 C58.2004368,46.6104447 58.3513845,46.4041023 58.5130277,46.2111798 C58.5588368,46.1564915 58.598289,46.1017023 58.6338061,46.0391438 C58.7013088,45.9200807 58.8399467,45.8762897 58.9425629,45.7939546 C59.3310314,45.4826753 59.771262,45.2601888 60.2530638,45.1261924 C60.5590962,45.041133 60.8702746,44.9817023 61.1849845,44.9389204 C61.5509521,44.8891762 61.9189377,44.8944231 62.2857124,44.9085492 C63.2388223,44.9450753 64.1689268,45.0949132 65.0308223,45.5330249 C65.3370566,45.688715 65.6275503,45.8713456 65.8909016,46.1176447 C65.4255467,46.5769456 64.9662458,47.0301924 64.5002854,47.4900987 C64.0658061,47.111115 63.5284079,46.9292915 62.9700223,46.81376 C62.7505629,46.7682537 62.5215178,46.7458537 62.2919683,46.7372771 C62.0660512,46.7289023 61.8388223,46.7000447 61.6138133,46.7170969 C61.1593557,46.7517059 60.7173088,46.832124 60.3466998,47.1336159 C60.09808,47.3357204 59.9625701,47.5992735 59.929071,47.9075258 C59.9077809,48.1041816 59.9084872,48.3056807 59.9727611,48.5030429 C60.1173521,48.9476123 60.468689,49.1290321 60.8797593,49.238005 C61.2037521,49.3238717 61.5381377,49.3321456 61.8693953,49.3655438 C62.2949953,49.4083258 62.7217052,49.4337528 63.1470025,49.4831942 C63.5594854,49.5310213 63.9641989,49.6062933 64.356098,49.738978 C65.1011503,49.9914321 65.717453,50.4092627 66.0518386,51.1523978 C66.3158962,51.7390357 66.3615034,52.3573564 66.2838097,52.991115 C66.1874494,53.7774357 65.8370205,54.422596 65.2305052,54.9296231 C64.7023899,55.3709636 64.0863899,55.6402681 63.4215539,55.7725492 C61.9955214,56.0562825 60.5774602,56.0169312 59.1846241,55.5670141 C58.6530782,55.3952807 58.174707,55.1206285 57.7373016,54.7738321 C57.5846386,54.6528519 57.4303611,54.5338897 57.2701305,54.4087726 C57.7590962,53.9222285 58.2298998,53.4535438 58.7047395,52.9811258 C58.8179503,52.9720447 58.849835,53.0828339 58.9188512,53.1439798 C59.1962277,53.3895726 59.5048836,53.5849168 59.8473413,53.728196 C60.3681917,53.9460411 60.911644,54.0429059 61.4739647,54.0818537 C62.019435,54.1195906 62.5521917,54.0756987 63.0698133,53.9128447 C63.497835,53.7783438 63.8847899,53.5485924 64.0664115,53.1195618 C64.3241124,52.5108267 64.166707,51.6760735 63.3550602,51.4714465 C63.0663827,51.398596 62.7818422,51.3512735 62.4874133,51.3189852 C62.2053953,51.2881095 61.921662,51.2769095 61.6401485,51.2366501 C61.36368,51.196996 61.0805521,51.2053708 60.8038818,51.1670285 C60.337316,51.1022501 59.8756944,51.0142645 59.4375827,50.8247726 C59.1293762,50.6914794 58.8425192,50.5251027 58.6046189,50.295765 Z M7.74059243,53.1046486 C7.99294559,52.8799423 8.22229333,52.6363676 8.37374559,52.3292252 C8.43418523,52.2549622 8.48382847,52.1756541 8.48867171,52.0761658 C8.55536721,52.0425658 8.54578162,51.9784937 8.55102847,51.9202739 C8.62438342,51.7604468 8.66171676,51.5894198 8.70500324,51.4203099 C8.81932396,50.8180324 8.79742847,50.2089946 8.8007582,49.5842162 L5.57616721,49.5842162 L5.57616721,47.6303712 L11.0893924,47.6303712 C11.1207726,47.6614486 11.1023077,47.7108901 11.1023077,47.7548829 C11.1034177,48.5802523 11.1030141,49.4057225 11.1024086,50.230991 C11.1022068,50.5051387 11.0463077,50.778782 11.0554897,51.0497009 C11.0660843,51.3664288 10.9477276,51.6592432 10.9394537,51.9708252 C10.9358213,52.1091604 10.8571186,52.2454775 10.8125204,52.3828036 L10.7184807,52.6630054 C10.6741852,52.8484613 10.5774213,53.0130306 10.4982141,53.1830486 C10.4257672,53.3386378 10.3189132,53.4781838 10.2272951,53.6247928 C10.146978,53.7315459 10.0666609,53.8382991 9.98644468,53.9449514 C9.82752577,54.1271784 9.67001946,54.3111207 9.4845636,54.4675171 C9.43774559,54.5069694 9.39092757,54.5446054 9.35631856,54.5955604 C9.30062126,54.6398559 9.24492396,54.6840505 9.18922667,54.7283459 C9.1815582,54.7299604 9.17671495,54.7346018 9.17479784,54.7421694 C9.08983928,54.8076541 9.00488072,54.8729369 8.91992216,54.9384216 C8.6438573,55.1295279 8.35699604,55.3051964 8.05126631,55.4418162 C7.85794018,55.5282883 7.65553297,55.6002306 7.45484108,55.6716685 C7.14396541,55.7823568 6.8187618,55.8043532 6.50586811,55.8927423 C6.29871856,55.9512649 6.06513297,55.9082811 5.84870054,55.9437982 C5.55084108,55.9926342 5.25479784,55.9510631 4.96379964,55.9293694 C4.53749333,55.8977874 4.11461766,55.8123243 3.70284108,55.6773189 C3.23042306,55.5223351 2.78595459,55.3163964 2.37972757,55.0313514 C1.77119423,54.6043387 1.27234018,54.0779387 0.883165405,53.4387315 C0.583893333,52.9470414 0.425882523,52.4075243 0.301572613,51.8603387 C0.241637477,51.596382 0.221053694,51.3146667 0.193911351,51.0393081 C0.172015856,50.8169225 0.177161802,50.5927207 0.140232072,50.3695279 C0.103705946,50.1480505 0.134783423,49.9157766 0.130949189,49.6884468 C0.130242883,49.6426378 0.162833874,49.584418 0.100880721,49.5502126 L0.100880721,49.331964 C0.135792432,49.3255063 0.133068108,49.2978595 0.133068108,49.2727351 C0.13105009,48.5753081 0.128931171,47.8778811 0.126913153,47.1804541 C0.143561802,46.3400505 0.154358198,45.4988396 0.316102342,44.6697369 C0.711532973,42.6440505 1.94807351,41.3806703 3.88244468,40.7625514 C4.49541766,40.5666018 5.13341405,40.5310847 5.77352937,40.5374414 C5.97179964,40.5336072 6.16643748,40.5915243 6.36571676,40.5729586 C6.43856721,40.6406631 6.54178883,40.6214919 6.61595099,40.6185658 C6.89554739,40.6076685 7.13105009,40.757809 7.39480505,40.7984721 C7.77257802,40.856591 8.08496721,41.0852324 8.4315618,41.2252829 C8.58624288,41.2877405 8.71206631,41.4288 8.88178162,41.4982198 C8.99620324,41.6419027 9.18317261,41.7142486 9.30041946,41.8659027 C9.44934919,41.9720505 9.55892757,42.1200721 9.69615279,42.2386306 C9.7300555,42.341045 9.81854559,42.4058234 9.8876627,42.4752432 C10.1097456,42.6986378 10.2265888,42.9863063 10.3916627,43.2439063 C10.6671222,43.6739459 10.7866897,44.1651315 10.9537816,44.639164 C11.0010032,44.7730595 10.974769,44.9097802 11.0324843,45.0340901 C11.0352086,45.0961441 11.0381348,45.1580973 11.0408591,45.2201514 C10.2928807,45.2211604 9.54480144,45.2221694 8.79672216,45.2231784 C8.78733838,45.2186378 8.77745009,45.2167207 8.7670573,45.2173261 C8.7342645,45.1343856 8.70147171,45.051445 8.66877982,44.9685045 C8.62761225,44.7993946 8.57110775,44.6354306 8.50330234,44.4754018 C8.35649153,44.1704793 8.21048793,43.8651532 7.9605564,43.6262198 C7.89628252,43.5013045 7.78741045,43.4211892 7.67641946,43.3432937 C7.40428973,43.0933622 7.09523027,42.9184 6.73824288,42.8067027 C6.5045564,42.7336505 6.27066811,42.6782559 6.03183568,42.633355 C5.93840144,42.6156973 5.84627892,42.6341622 5.75365189,42.6306306 C5.37164108,42.6162018 4.9931618,42.6402162 4.62033297,42.7296144 C4.51246991,42.8236541 4.35526631,42.7894486 4.24397261,42.8745081 C4.10230775,42.9136577 3.99484829,43.0088072 3.87528072,43.0875099 C3.6830645,43.2139387 3.48489514,43.3331027 3.32960865,43.5035243 C3.1335582,43.7187459 2.93730595,43.9471856 2.85002667,44.2242595 C2.77879063,44.4502775 2.6860627,44.6704432 2.63914378,44.9096793 C2.60009514,45.1090595 2.56417441,45.3108613 2.52280505,45.5107459 C2.49213117,45.6584649 2.48819604,45.8085045 2.47861045,45.9540036 C2.46337441,46.1855712 2.44036901,46.4177441 2.43703928,46.6505225 C2.43572757,46.7403243 2.44662486,46.8224577 2.50898162,46.9041874 C2.43693838,46.954436 2.43764468,47.0297081 2.43603027,47.1073009 C2.42069333,47.8529586 2.41817081,48.5985153 2.43663568,49.3440721 C2.44601946,49.7263856 2.44622126,50.1093045 2.4734645,50.4904072 C2.49717622,50.8220685 2.5516627,51.1516108 2.59686631,51.4814559 C2.60191135,51.5175784 2.63510775,51.5499676 2.64671135,51.5875027 C2.73469694,51.9733477 2.83075459,52.355964 3.09097802,52.6728937 C3.11953297,52.7502847 3.17684468,52.8054775 3.23607351,52.8590559 C3.31134559,52.9763027 3.42960144,53.0506667 3.52253117,53.1462198 C3.66520505,53.2929297 3.8504591,53.3658811 4.00120505,53.4923099 C4.03541045,53.5209658 4.07799063,53.5465946 4.12067171,53.5567856 C4.39239784,53.6216649 4.62870775,53.7734198 4.92232937,53.8081297 C5.18457081,53.8389045 5.44731676,53.8991423 5.71076901,53.8784577 C6.30931315,53.831236 6.89363027,53.7222631 7.39551135,53.3561946 C7.52849874,53.2970667 7.63545369,53.2022198 7.74059243,53.1046486 Z M40.470524,50.4373838 C40.4600303,49.6780036 40.441969,48.9468757 40.2153456,48.2415784 C40.0026465,47.5802739 39.6034825,47.0971604 38.9041384,46.9154378 C38.6516843,46.8497514 38.3937816,46.8350198 38.1331546,46.8374414 C37.179742,46.8465225 36.5133924,47.3426523 36.227742,48.2528793 C36.0854717,48.706227 36.0244267,49.1710775 36.0010177,49.6427892 C35.9576303,50.5149766 35.9504663,51.386155 36.1384447,52.2450234 C36.2567005,52.7852468 36.462942,53.2824865 36.9260771,53.6300901 C37.2342285,53.861355 37.588996,53.9650811 37.9658609,53.9943423 C39.0218897,54.0764757 39.8738969,53.7161586 40.2263438,52.5480288 C40.4373276,51.848382 40.4560951,51.1299676 40.470524,50.4373838 Z M38.9721456,55.9448577 C38.8371402,55.9508108 38.7021348,56.008627 38.5670285,55.9448577 C38.1688735,55.9428396 37.779396,55.8870414 37.403742,55.7519351 C37.1309059,55.6537586 36.8554465,55.5415568 36.6302357,55.3683099 C36.4901852,55.2606486 36.3055366,55.1864865 36.2157348,55.0093045 C36.1798141,54.9382703 36.1118068,54.8836829 36.076996,54.8432216 C35.9371474,54.8393874 35.9383582,54.9081009 35.93856,54.9786306 C35.9392663,55.2526775 35.9388627,55.5267243 35.9388627,55.8075315 L33.8089456,55.8075315 L33.8089456,40.677845 L35.9755906,40.677845 L35.9755906,46.0425441 C35.9846717,46.0523315 35.9938537,46.062018 36.0030357,46.0716036 C36.5541564,45.3903207 37.2792303,45.0361586 38.2787546,44.9152793 C38.658142,44.8970162 39.1944303,44.8500973 39.720124,44.9944865 C39.8449384,45.025564 39.969551,45.0568432 40.0942645,45.0879207 C40.3579186,45.1626883 40.6152159,45.2663135 40.8458753,45.4046486 C41.0719942,45.5402595 41.279951,45.7133045 41.4689384,45.9083459 C41.6523762,46.0978378 41.8095798,46.3088216 41.9383294,46.5290883 C42.0830213,46.7764973 42.1854357,47.052764 42.2798789,47.3290306 C42.3671582,47.5848144 42.4077204,47.8480649 42.4646285,48.1091964 C42.4751222,48.157427 42.5026681,48.2020252 42.5259762,48.2571171 C42.5178032,48.2818378 42.4923762,48.3176577 42.4982285,48.3472216 C42.6902429,49.3150631 42.6066969,50.2992505 42.6302068,51.3164324 C42.5819762,51.8505009 42.5461564,52.4350198 42.416196,53.0054126 C42.381587,53.1315387 42.3470789,53.2577658 42.312369,53.3838919 C42.2444627,53.7640865 42.0292411,54.0839423 41.8849528,54.4327568 C41.8668915,54.4765477 41.7915186,54.4649441 41.805342,54.529218 C41.7331978,54.623964 41.6609528,54.7187099 41.5886068,54.813355 C41.4848807,54.9174847 41.3810537,55.0217153 41.2772267,55.125845 C41.1739041,55.201218 41.0703798,55.276591 40.9669564,55.351964 C40.7316555,55.5228901 40.4608375,55.6169297 40.1938537,55.724591 C39.7992303,55.8838126 39.3846285,55.901773 38.9721456,55.9448577 Z M30.5558703,50.4362941 C30.5441658,49.6858941 30.5278198,48.9549679 30.3021045,48.2491661 C30.0907171,47.5876598 29.6961946,47.1022256 28.9965477,46.9180814 C28.7388468,46.8501751 28.4762018,46.8349391 28.2105297,46.8376634 C27.2671063,46.8475517 26.5967207,47.3452959 26.3145009,48.245231 C26.1726342,48.6981751 26.1099748,49.1629247 26.0865658,49.63504 C26.0428757,50.5124742 26.0351063,51.3888995 26.2250018,52.2526112 C26.3424505,52.7870832 26.5478847,53.2797823 27.0049658,53.625267 C27.312209,53.8576418 27.6660685,53.9626796 28.043236,53.9933535 C29.1026955,54.079422 29.9568216,53.7160778 30.3091676,52.5555157 C30.521564,51.8561715 30.540836,51.137858 30.5558703,50.4362941 Z M29.0572901,55.9448778 C28.9222847,55.9507301 28.7871784,56.0086472 28.6520721,55.9448778 C28.254018,55.9427589 27.8645405,55.8870616 27.4888865,55.7519553 C27.2160505,55.6537787 26.940591,55.5415769 26.7153802,55.3683301 C26.5752288,55.2606688 26.3915892,55.1859013 26.3003748,55.0095265 C26.2643532,54.9401067 26.190191,54.8902616 26.1442811,54.8427373 C26.0222919,54.8394076 26.0235027,54.9080202 26.0237045,54.9786508 C26.0243099,55.2525968 26.0239063,55.5267445 26.0239063,55.8074508 L23.8940901,55.8074508 L23.8940901,40.6778652 L26.0607351,40.6778652 L26.0607351,46.079595 C26.3760505,45.7662977 26.6645261,45.4742905 27.0367495,45.2810652 C27.407964,45.0883445 27.8123748,45.0128706 28.1904505,44.9237751 C28.7432865,44.8969355 29.2795748,44.8502184 29.8053694,44.9944058 C29.929982,45.0255841 30.0546955,45.0568634 30.179409,45.0879409 C30.4429622,45.1626076 30.7003604,45.2663337 30.9309189,45.4046688 C31.1571387,45.5402796 31.3651964,45.7132238 31.5540829,45.9083661 C31.7375207,46.097858 31.8947243,46.3088418 32.0234739,46.5290076 C32.1681658,46.7765175 32.2705802,47.0527841 32.3650234,47.3290508 C32.4523027,47.5847337 32.4928649,47.848085 32.549773,48.1092166 C32.5602667,48.1574472 32.5878126,48.2019445 32.6111207,48.2570364 C32.6029477,48.2817571 32.5775207,48.3176778 32.583373,48.3472418 C32.7753874,49.3150832 32.6918414,50.2992706 32.7153514,51.3164526 C32.6670198,51.8505211 32.6314018,52.43504 32.5013405,53.0054328 C32.4667315,53.1315589 32.4321225,53.2577859 32.3975135,53.3839121 C32.3296072,53.7640058 32.1143856,54.0838616 31.9700973,54.432676 C31.9519351,54.4765679 31.8765622,54.4649643 31.8905874,54.5291373 C31.8182414,54.6238832 31.7459964,54.7186292 31.6737514,54.8133751 C31.5699243,54.9175049 31.4661982,55.0216346 31.3624721,55.1258652 C31.2589477,55.2012382 31.1555243,55.2766112 31.0521009,55.3519841 C30.8166991,55.5229103 30.545982,55.6169499 30.2788973,55.7246112 C29.8843748,55.8837319 29.469773,55.9017932 29.0572901,55.9448778 Z M49.9693953,49.5318285 L54.8002277,49.5318285 C54.7742962,49.2389132 54.7626926,48.9542717 54.7016476,48.6751798 C54.2728187,46.7123546 52.4366241,46.3656591 51.235298,46.9771186 C50.3151827,47.4452987 49.9046169,48.5122249 49.9693953,49.5318285 Z M47.805071,50.0784086 C47.7963935,49.6738969 47.8381665,49.2713023 47.9152548,48.877587 C47.9899214,48.4955762 48.0765953,48.1142717 48.2244151,47.7475978 C48.3867647,47.3448014 48.571716,46.9566357 48.8240692,46.6045924 C49.3338205,45.8934429 50.0046097,45.3965059 50.8398674,45.1266969 C51.2052295,45.0086429 51.5810854,44.9436627 51.9625917,44.9129888 C52.6039178,44.8613276 53.2347503,44.9283258 53.851053,45.1112591 C54.4111539,45.2776447 54.9114205,45.5517924 55.3514494,45.9420771 C56.1038674,46.6094357 56.5225052,47.462351 56.757907,48.4197996 C56.9692944,49.2792735 56.9597088,50.1552951 56.9424548,51.0320231 C56.8848404,51.0610825 56.8272259,51.0464519 56.7720332,51.0464519 C54.5702746,51.0474609 52.3683142,51.0472591 50.1664548,51.0474609 C50.1095467,51.0474609 50.0524368,51.0504879 49.9955286,51.0521023 C49.9752476,51.0485708 49.9572872,51.0481672 49.9619286,51.0774285 C49.9444728,51.7288447 50.0633341,52.3476699 50.3981232,52.9156411 C50.759853,53.5293204 51.3118818,53.876924 51.9957881,54.0024447 C52.831853,54.1557132 53.6482422,54.0923474 54.4083286,53.6656375 C54.6080115,53.5534357 54.792862,53.4210537 54.9619719,53.2655654 C55.0712476,53.165169 55.187889,53.0729456 55.3126025,52.9674032 C55.7736187,53.4008735 56.2317088,53.8315186 56.6833413,54.2561095 C56.278325,54.699569 55.8063106,55.0372843 55.3230962,55.3591582 C55.2188656,55.428578 55.0895106,55.4598573 54.9752908,55.5199942 C54.6530133,55.6894068 54.2999611,55.7692195 53.9462025,55.8402537 C53.363298,55.956996 52.7731286,55.9478141 52.1825557,55.9329816 C51.8450422,55.9245059 51.5083359,55.8861636 51.1852512,55.8055438 C50.6537052,55.67296 50.1651431,55.4318068 49.700898,55.134351 C49.3462314,54.9072231 49.0750097,54.6055294 48.8146854,54.2863798 C48.790671,54.2496519 48.7709953,54.2090897 48.7271034,54.1903222 C48.7172151,54.1695366 48.7072259,54.148751 48.6972368,54.1279654 C48.6270097,54.0058753 48.5567827,53.8838861 48.4865557,53.761796 C48.3403503,53.4673672 48.208271,53.1672879 48.1093881,52.8529816 C48.0223106,52.5758068 47.9703467,52.2908627 47.9142458,52.0068267 C47.8884151,51.8760591 47.8811503,51.7414573 47.8404872,51.6188627 C47.7615827,51.4001095 47.8618782,51.1732843 47.789835,50.9540267 C47.8265629,50.9416159 47.8173809,50.9150789 47.8098133,50.8891474 C47.8078962,50.8277996 47.80608,50.7664519 47.804062,50.705205 C47.8044656,50.4962393 47.8047683,50.2872735 47.805071,50.0784086 Z M47.966351,53.9146205 L47.966351,55.7842133 C47.9311366,55.8288115 47.891987,55.8143827 47.8578825,55.8143827 C47.3352159,55.8152908 46.8118429,55.8327467 46.2905888,55.8067142 C46.0615438,55.7953124 45.8260411,55.7572728 45.6002249,55.6856332 C45.4816663,55.6479971 45.3643186,55.6095539 45.2495942,55.5620295 C45.1557564,55.5128908 45.0617168,55.4636512 44.967778,55.4143106 C44.5955546,55.2229016 44.3373492,54.9174746 44.1230357,54.5683575 C44.0978105,54.5249701 44.0726861,54.4815827 44.0474609,54.4381953 C44.0501852,54.4066133 44.0436267,54.3816908 44.0051834,54.3799755 C44.0040735,54.3181232 43.9902501,54.2611142 43.9428267,54.2170205 C43.8334501,53.8439899 43.7171114,53.4751971 43.685933,53.0810782 C43.6688807,52.865453 43.6650465,52.6504332 43.6648447,52.4362205 C43.6609095,48.5510314 43.6619186,44.6659431 43.6619186,40.7807539 L43.6619186,40.6777341 L45.8273528,40.6777341 C45.8542933,40.7334314 45.8388555,40.7961917 45.8388555,40.8565305 C45.8400663,44.7676512 45.8412771,48.678671 45.8372411,52.5897917 C45.8370393,52.7673773 45.9133204,52.9286169 45.9080735,53.1033773 C45.924924,53.21568 45.9538825,53.323644 46.0227978,53.4168764 C46.1744519,53.7065629 46.4229708,53.8369268 46.7408086,53.8531719 C46.7706753,53.8718386 46.8026609,53.8797088 46.8375726,53.8704259 C47.2009168,53.890707 47.5645636,53.8804151 47.9280086,53.8763791 C47.9407222,53.8890926 47.9535366,53.901907 47.966351,53.9146205 Z M17.5429132,47.1467632 C17.2676555,46.952529 16.9548627,46.8813939 16.6249168,46.8705975 C16.4797204,46.8658551 16.3325059,46.8553614 16.1891258,46.8720101 C15.9213348,46.9032894 15.6688807,46.9685723 15.4264159,47.1128605 C15.2096807,47.2418119 15.0551005,47.4305975 14.8610681,47.5784173 C14.7794393,47.6405723 14.7067906,47.7407668 14.6757132,47.8381362 C14.5910573,48.1042119 14.4237636,48.3280101 14.3711942,48.6207236 C14.32256,48.8917434 14.3070213,49.1595344 14.3057095,49.4251056 C14.2950141,51.4922623 14.2997564,53.5596209 14.2997564,55.6268786 L14.2997564,55.805675 L12.1302861,55.805675 L12.1302861,45.0370263 L14.2575798,45.0370263 L14.2575798,46.1474407 C14.88256,45.4033975 15.6803834,45.0613434 16.5899041,44.9369326 C17.5153672,44.8102011 18.383115,44.9664966 19.1890105,45.4652497 C19.3385456,45.6251777 19.5553816,45.7275921 19.7059258,45.9585542 C19.1634825,46.4972641 18.6119582,47.0449542 18.0550861,47.598093 C17.9592303,47.5281686 17.9224014,47.4164714 17.8256375,47.3671308 C17.815951,47.2891344 17.7286717,47.3088101 17.6938609,47.2624966 C17.6920447,47.2545254 17.6872014,47.2497831 17.6792303,47.2480677 C17.633724,47.2142659 17.5883186,47.180565 17.5429132,47.1467632 Z M20.5562378,55.8051604 L20.5562378,45.0345946 L22.7172324,45.0345946 L22.7172324,55.8051604 L20.5562378,55.8051604 Z M20.484356,42.8947387 C20.484356,42.1447423 20.484356,41.4030198 20.4846587,40.6610955 C20.4846587,40.6466667 20.4899056,40.6322378 20.4923272,40.6197261 C20.5053434,40.6138739 20.5142227,40.6061045 20.523102,40.6061045 C21.270475,40.6056 22.017747,40.6056 22.77632,40.6056 L22.77632,42.8947387 L20.484356,42.8947387 Z M56.9968475,53.9234241 C56.9821475,53.909673 56.9673308,53.8958127 56.9525141,53.8820615 C56.9606808,53.8650362 56.9689641,53.848011 56.9887975,53.8067575 C57.0124808,53.8619804 57.0906475,53.8836985 56.9968475,53.9234241 Z M58.610079,50.8919818 C58.618829,50.9219651 58.6294457,50.9526484 58.5872124,50.9669984 C58.531679,50.9226651 58.574029,50.9083151 58.610079,50.8919818 Z" id="Combined-Shape" fill="#4A4A4C"></path>
                        </g>
                    </g>
                </g>
            </g>
        </g>
    </g>
</svg>