<svg height="38" width="121" xmlns="http://www.w3.org/2000/svg"><g fill="none" fill-rule="evenodd"><path d="M15.266 13.531v4.065h9.715c-.298 2.28-1.058 3.948-2.214 5.121-1.42 1.421-3.635 2.974-7.5 2.974-5.982 0-10.657-4.824-10.657-10.805 0-5.98 4.675-10.805 10.656-10.805 3.222 0 5.584 1.272 7.32 2.908l2.857-2.859C23.031 1.784 19.793 0 15.266 0 7.071 0 .182 6.675.182 14.87c0 8.194 6.89 14.87 15.084 14.87 4.428 0 7.765-1.455 10.376-4.164 2.676-2.677 3.519-6.46 3.519-9.5 0-.942-.066-1.818-.215-2.545z" fill="#4285f4"/><g fill-rule="nonzero"><path d="M41.304 10.227c-5.303 0-9.632 4.031-9.632 9.6 0 5.517 4.329 9.598 9.632 9.598 5.304 0 9.633-4.064 9.633-9.599 0-5.568-4.33-9.599-9.633-9.599zm0 15.415c-2.907 0-5.419-2.396-5.419-5.816 0-3.453 2.512-5.816 5.42-5.816 2.907 0 5.418 2.363 5.418 5.816 0 3.42-2.51 5.816-5.419 5.816z" fill="#ea4335"/><path d="M88.523 12.375h-.148c-.942-1.124-2.76-2.148-5.056-2.148-4.791 0-8.971 4.18-8.971 9.6 0 5.385 4.18 9.598 8.971 9.598 2.297 0 4.114-1.024 5.056-2.18h.148v1.338c0 3.667-1.966 5.634-5.121 5.634-2.578 0-4.18-1.85-4.841-3.42l-3.668 1.52c1.057 2.544 3.85 5.666 8.509 5.666 4.94 0 9.12-2.907 9.12-9.995V10.723h-3.999zm-4.84 13.267c-2.908 0-5.122-2.479-5.122-5.816 0-3.387 2.214-5.816 5.122-5.816 2.874 0 5.121 2.479 5.121 5.85.017 3.353-2.247 5.782-5.121 5.782z" fill="#4285f4"/><path d="M62.783 10.227c-5.304 0-9.633 4.031-9.633 9.6 0 5.517 4.33 9.598 9.633 9.598s9.632-4.064 9.632-9.599c0-5.568-4.329-9.599-9.632-9.599zm0 15.415c-2.908 0-5.42-2.396-5.42-5.816 0-3.453 2.512-5.816 5.42-5.816 2.907 0 5.419 2.363 5.419 5.816 0 3.42-2.512 5.816-5.42 5.816z" fill="#fbbc05"/></g><path d="M95.826.397h4.147v29.028h-4.147z" fill="#34a853"/><path d="M112.777 25.642c-2.147 0-3.667-.975-4.659-2.908l12.838-5.304-.43-1.09c-.793-2.148-3.238-6.113-8.211-6.113-4.94 0-9.054 3.883-9.054 9.6 0 5.385 4.064 9.598 9.516 9.598 4.395 0 6.94-2.693 7.997-4.246L117.503 23c-1.09 1.585-2.578 2.643-4.726 2.643zm-.297-11.813c1.702 0 3.156.875 3.635 2.114l-8.674 3.586c0-4.032 2.858-5.7 5.039-5.7z" fill="#ea4335" fill-rule="nonzero"/></g></svg>