<?xml version="1.0" encoding="UTF-8"?>
<svg width="79px" height="54px" viewBox="0 0 79 54" version="1.1" xmlns="http://www.w3.org/2000/svg" xmlns:xlink="http://www.w3.org/1999/xlink">
    <!-- Generator: Sketch 52.5 (67469) - http://www.bohemiancoding.com/sketch -->
    <title>logo-ihp</title>
    <desc>Created with Sketch.</desc>
    <g id="V2" stroke="none" stroke-width="1" fill="none" fill-rule="evenodd">
        <g id="employers" transform="translate(-317.000000, -4033.000000)">
            <g id="guardian" transform="translate(0.000000, 3952.000000)">
                <g id="Group-14" transform="translate(168.000000, 81.000000)">
                    <g id="Group-26">
                        <g id="logo-ihp" transform="translate(149.000000, 0.000000)">
                            <path d="M35.6540192,13.3655192 C35.6540192,15.1698462 34.1913462,16.632 32.3870192,16.632 C30.5826923,16.632 29.1200192,15.1698462 29.1200192,13.3655192 C29.1200192,11.5606731 30.5826923,10.0985192 32.3870192,10.0985192 C34.1913462,10.0985192 35.6540192,11.5606731 35.6540192,13.3655192" id="Fill-1" fill="#722777"></path>
                            <path d="M48.2433404,51.9559442 C26.7944365,51.9559442 9.407475,47.6613865 9.407475,42.3631558 C9.407475,37.3229827 25.1448404,33.1909442 45.1435327,32.8010019 C44.0811865,32.7807519 43.0079365,32.7708865 41.9248212,32.7708865 C18.7702442,32.7708865 5.19230769e-05,37.4590212 5.19230769e-05,43.2422135 C5.19230769e-05,49.0254058 18.7702442,53.7140596 41.9248212,53.7140596 C57.5609365,53.7140596 71.1964558,51.5758673 78.4038981,48.4059635 C71.2831673,50.571675 60.4182635,51.9559442 48.2433404,51.9559442" id="Fill-3" fill="#722777"></path>
                            <path d="M30.2999712,38.8245462 C30.8352981,37.5742385 31.3161058,36.4636038 31.7870481,35.3498538 C33.1645673,32.0922 34.5327404,28.8309115 35.9144135,25.5753346 C37.8225865,21.0813923 39.7432212,16.5926423 41.6519135,12.0987 C43.2900865,8.24445 44.9251442,4.38916154 46.5425481,0.525565385 C46.6993558,0.152238462 46.8675865,-0.00924230769 47.2912788,0.000623076923 C48.5888365,0.0291807692 49.8869135,0.0110076923 51.2919519,0.0110076923 C48.7617404,5.99981538 46.2689135,11.8987962 43.7428558,17.8772192 C44.0346635,17.9125269 44.2205481,17.9561423 44.4053942,17.9535462 C47.2892019,17.9161615 49.8038365,20.3264308 48.5971442,24.0586615 C47.9190288,26.1573923 46.9418365,28.1605846 46.0835481,30.2006423 C44.9562981,32.8803923 43.797375,35.5471615 42.6924519,38.2357385 C42.5008558,38.7020077 42.278625,38.8505077 41.7931442,38.8370077 C40.5360865,38.8042962 39.2774712,38.8261038 37.8906058,38.8261038 C38.1471058,38.2056231 38.3625865,37.6718538 38.5874135,37.1422385 C40.5423173,32.5262769 42.5102019,27.9165462 44.4458942,23.2927962 C44.8877596,22.2382385 44.620875,21.9656423 43.4749327,22.1167385 C42.1716635,22.2891231 41.4670673,23.1967385 40.9571827,24.2528538 C40.3642212,25.4818731 39.8880865,26.7669692 39.355875,28.0261038 C37.8854135,31.5033923 36.4159904,34.9812 34.9304712,38.4512192 C34.8624519,38.6101038 34.6397019,38.8053346 34.4860096,38.80845 C33.1417212,38.8364885 31.7963942,38.8245462 30.2999712,38.8245462" id="Fill-6" fill="#595959"></path>
                            <path d="M33.2226692,18.1390154 C32.7641885,19.2418615 32.3565923,20.2393038 31.9354962,21.2315538 C30.4536115,24.7280538 28.9675731,28.2229962 27.4804962,31.7174192 C27.2847462,32.1769385 27.07965,32.6323038 26.8714385,33.0861115 C26.2841885,34.3665346 26.3599962,35.6111308 27.0547269,36.8302846 C27.2998038,37.2596885 27.5261885,37.6999962 27.8117654,38.2285731 C26.4752654,38.6595346 25.2073038,39.0853038 23.9232462,39.4539577 C23.7924,39.4913423 23.4907269,39.2249769 23.3899962,39.0349385 C22.0914,36.5758615 22.0337654,34.0352654 23.0680731,31.4905154 C24.3422654,28.3543615 25.6912269,25.2483231 27.0038423,22.1277462 C27.4924385,20.9672654 27.9602654,19.7989962 28.4597654,18.6437077 C28.5428423,18.4505538 28.7359962,18.1649769 28.8850154,18.1608231 C30.2884962,18.1239577 31.6930154,18.1390154 33.2226692,18.1390154" id="Fill-8" fill="#595959"></path>
                            <path d="M62.2377,28.5048346 C61.1551038,30.4405269 60.0605654,32.3767385 58.4369308,33.9126231 C57.8252769,34.4910462 57.0246231,34.9027962 56.2514885,35.2647 C55.7478346,35.4999115 55.1263154,35.5035462 54.6818538,35.0123538 C54.2306423,34.5133731 54.2934692,33.9749308 54.5546423,33.3835269 C55.8059885,30.5469692 56.9841231,27.6771808 58.2827192,24.86295 C59.0241808,23.2580077 60.4686808,22.3727192 62.0980269,21.8410269 C62.8888154,21.5829692 63.4994308,22.0466423 63.6624692,22.8727385 C63.7169885,23.14845 63.74295,23.4298731 63.7632,23.5721423 C63.6427385,25.4341038 63.0747,27.0073731 62.2377,28.5048346 M67.7259692,22.5549692 C67.2576231,19.1482962 63.7481423,17.1020077 60.4707577,18.2495077 C59.7391615,18.5054885 59.0283346,18.8196231 58.2811615,19.1176615 C58.0142769,18.6996808 57.7505077,18.2868923 57.4929692,17.8829308 C56.2151423,18.4681038 54.99495,19.0267962 53.6953154,19.6223538 C54.8568346,21.1359115 54.7015846,22.6743923 54.0307385,24.2398731 C53.5182577,25.4372192 52.9912385,26.6278154 52.4849885,27.8267192 C49.7917385,34.2054692 47.1031615,40.5862962 44.4125077,46.9660846 C43.8340846,48.3378923 43.2541038,49.7102192 42.6284308,51.1926231 C43.9758346,51.1926231 45.2282192,51.1708154 46.4785269,51.2035269 C46.9442769,51.2154692 47.1561231,51.0591808 47.3378538,50.6287385 C48.9978346,46.6888154 50.6848154,42.7603154 52.3660846,38.8292192 C52.4060654,38.7357577 52.4740846,38.6547577 52.5052385,38.6054308 C53.2461808,38.7715846 53.9320846,39.0010846 54.6335654,39.0706615 C57.6367962,39.3666231 59.9883923,38.0176615 61.9786038,35.9542385 C64.3156615,33.5309885 66.0452192,30.7188346 67.0717385,27.4912962 C67.5831808,25.8811615 67.9570269,24.2310462 67.7259692,22.5549692" id="Fill-10" fill="#595959"></path>
                        </g>
                    </g>
                </g>
            </g>
        </g>
    </g>
</svg>