<?xml version="1.0" encoding="UTF-8"?>
<svg width="116px" height="30px" viewBox="0 0 116 30" version="1.1" xmlns="http://www.w3.org/2000/svg" xmlns:xlink="http://www.w3.org/1999/xlink">
    <!-- Generator: Sketch 52.5 (67469) - http://www.bohemiancoding.com/sketch -->
    <title>logo-cossb</title>
    <desc>Created with Sketch.</desc>
    <g id="V2" stroke="none" stroke-width="1" fill="none" fill-rule="evenodd">
        <g id="employers" transform="translate(-313.000000, -4305.000000)">
            <g id="guardian" transform="translate(0.000000, 3952.000000)">
                <g id="Group-14" transform="translate(168.000000, 81.000000)">
                    <g id="Group-2" transform="translate(1.000000, 268.000000)">
                        <g id="logo-cossb" transform="translate(144.000000, 4.000000)">
                            <path d="M36.0346552,24.8277931 L36.0346552,23.7930517 C40.8910345,23.7930517 44.8277586,19.8563276 44.8277586,14.9999483 C44.8277586,10.143569 40.8910345,6.20684483 36.0346552,6.20684483 L36.0346552,5.17236207 L24.7081034,5.17236207 C25.0205172,4.81184483 25.3505172,4.46684483 25.6960345,4.13787931 L36.0346552,4.13787931 L36.0346552,3.10339655 L26.9027586,3.10339655 C27.3905172,2.72839655 27.902069,2.38287931 28.4353448,2.06891379 L36.0346552,2.06891379 L36.0346552,1.03443103 L30.5617241,1.03443103 C32.2577586,0.369258621 34.1027586,-5.1724138e-05 36.0346552,-5.1724138e-05 C44.3187931,-5.17241379e-05 51.0346552,6.71581034 51.0346552,14.9999483 C51.0346552,23.2840862 44.3187931,29.9999483 36.0346552,29.9999483 L36.0346552,27.9312414 L28.4353448,27.9312414 C27.902069,27.6172759 27.3905172,27.2717586 26.9027586,26.8967586 L36.0346552,26.8967586 L36.0346552,25.8622759 L25.6960345,25.8622759 C25.3505172,25.5327931 25.0205172,25.1877931 24.7081034,24.8277931 L36.0346552,24.8277931 Z M20.5603448,21.5571207 L20.5603448,28.9309138 C18.8405172,29.6183276 16.9655172,30.0000517 15,30.0000517 C6.71534483,30.0000517 -7.99360578e-14,23.2841897 -7.99360578e-14,15.0000517 C-7.99360578e-14,6.71591379 6.71534483,5.17241378e-05 15,5.17241378e-05 C16.9655172,5.17241378e-05 18.8405172,0.381775862 20.5603448,1.06918966 L20.5603448,8.44298276 C19.0608621,7.16953448 17.1217241,6.39781034 15,6.39781034 C10.2491379,6.39781034 6.39775862,10.2491897 6.39775862,15.0000517 C6.39775862,19.7509138 10.2491379,23.6017759 15,23.6017759 C17.1217241,23.6017759 19.0608621,22.830569 20.5603448,21.5571207 Z M27.3865345,16.551931 C27.4491207,16.9036552 27.5261897,17.2502069 27.6296379,17.5864138 L21.2613621,17.5864138 C21.2018793,17.2450345 21.1501552,16.9005517 21.1144655,16.551931 L27.3865345,16.551931 Z M29.3367931,20.6898621 C29.6538621,21.0622759 29.9998966,21.4093448 30.3743793,21.7243448 L22.6266207,21.7243448 C22.4569655,21.3865862 22.2992069,21.0415862 22.1543793,20.6898621 L29.3367931,20.6898621 Z M28.0280172,18.6208966 C28.1899138,18.9793448 28.3771552,19.3238276 28.584569,19.6553793 L21.774569,19.6553793 C21.6638793,19.3155517 21.5640517,18.971069 21.4771552,18.6208966 L28.0280172,18.6208966 Z M27.2415517,14.9999483 C27.2415517,15.1742586 27.257069,15.3449483 27.2674138,15.5171897 L21.0475862,15.5171897 C21.0418966,15.3449483 21.0346552,15.1732241 21.0346552,14.9999483 C21.0346552,14.8266724 21.0418966,14.6549483 21.0475862,14.4827069 L27.2674138,14.4827069 C27.257069,14.6549483 27.2415517,14.8256379 27.2415517,14.9999483 Z M27.6294828,12.4137414 C27.5260345,12.7499483 27.4489655,13.0965 27.3863793,13.4482241 L21.1143103,13.4482241 C21.1505172,13.0996034 21.2017241,12.7551207 21.2612069,12.4137414 L27.6294828,12.4137414 Z M28.5846724,10.3447759 C28.3772586,10.6758103 28.1900172,11.0208103 28.0281207,11.3792586 L21.4772586,11.3792586 C21.5641552,11.0290862 21.6639828,10.6846034 21.7746724,10.3447759 L28.5846724,10.3447759 Z M30.3742759,8.27581034 C29.9997931,8.59081034 29.6537586,8.93787931 29.3366897,9.3102931 L22.1542759,9.3102931 C22.2991034,8.95856897 22.4568621,8.61356897 22.6265172,8.27581034 L30.3742759,8.27581034 Z M31.8987414,22.7588276 C33.1318448,23.4172759 34.5387414,23.7933103 36.0346034,23.7933103 L23.8856379,23.7933103 C23.6420172,23.4581379 23.4102931,23.1141724 23.1951207,22.7588276 L31.8987414,22.7588276 Z M30.5616724,28.9657241 L36.0346034,28.9657241 L36.0346034,30.0002069 C34.1027069,30.0002069 32.2577069,29.6308966 30.5616724,28.9657241 Z M23.8850172,6.20684483 L36.0345,6.20684483 C34.5391552,6.20684483 33.1317414,6.58287931 31.8986379,7.24132759 L23.1950172,7.24132759 C23.4101897,6.88598276 23.6419138,6.54201724 23.8850172,6.20684483 Z M63.8793103,11.7967241 C68.5924138,11.7967241 72.4137931,15.6181034 72.4137931,20.3312069 C72.4137931,25.0443103 68.5924138,28.8656897 63.8793103,28.8656897 L52.7586207,28.8656897 L52.7586207,22.9174138 L63.8793103,22.9174138 C65.307931,22.9174138 66.4655172,21.7598276 66.4655172,20.3312069 C66.4655172,18.9025862 65.307931,17.745 63.8793103,17.745 L59.7413793,17.745 C55.0282759,17.745 51.2068966,13.9241379 51.2068966,9.21051724 C51.2068966,4.49689655 55.0282759,0.676034483 59.7413793,0.676034483 L69.0517241,0.676034483 L69.0517241,6.62431034 L59.7413793,6.62431034 C58.3127586,6.62431034 57.1551724,7.78241379 57.1551724,9.21051724 C57.1551724,10.6386207 58.3127586,11.7967241 59.7413793,11.7967241 L63.8793103,11.7967241 Z" id="Combined-Shape" fill="#A4752C"></path>
                            <path d="M105.984466,1.03443103 C110.412052,1.03443103 114.001707,4.62408621 114.001707,9.05167241 C114.001707,10.9654655 113.328776,12.7209828 112.209466,14.099431 C113.94119,15.6615 115.03619,17.9156379 115.03619,20.4309828 C115.03619,25.1446034 111.21481,28.9654655 106.501707,28.9654655 L95.2046379,28.9654655 L95.2046379,1.03443103 L105.984466,1.03443103 Z M105.984466,2.06891379 L96.2391207,2.06891379 L96.2391207,27.9309828 L106.501707,27.9309828 C110.637052,27.9309828 114.001707,24.5668448 114.001707,20.4309828 C114.001707,18.3196034 113.096017,16.2925345 111.516362,14.8675345 L110.787569,14.2096034 L111.40619,13.4477069 C112.427224,12.1897759 112.967224,10.6696034 112.967224,9.05167241 C112.967224,5.20132759 109.834293,2.06891379 105.984466,2.06891379 Z M90.6036207,0.676034483 L90.6036207,6.62431034 L81.2932759,6.62431034 C79.8646552,6.62431034 78.707069,7.78241379 78.707069,9.21051724 C78.707069,10.6386207 79.8646552,11.7967241 81.2932759,11.7967241 L85.4312069,11.7967241 C90.1443103,11.7967241 93.9656897,15.6181034 93.9656897,20.3312069 C93.9656897,25.0443103 90.1443103,28.8656897 85.4312069,28.8656897 L74.3105172,28.8656897 L74.3105172,22.9174138 L85.4312069,22.9174138 C86.8593103,22.9174138 88.0174138,21.7598276 88.0174138,20.3312069 C88.0174138,18.9025862 86.8593103,17.745 85.4312069,17.745 L81.2932759,17.745 C76.5796552,17.745 72.7587931,13.9241379 72.7587931,9.21051724 C72.7587931,4.49689655 76.5796552,0.676034483 81.2932759,0.676034483 L90.6036207,0.676034483 Z M89.5691379,1.71051724 L81.2932759,1.71051724 C77.1574138,1.71051724 73.7932759,5.07517241 73.7932759,9.21051724 C73.7932759,13.3458621 77.1574138,16.7105172 81.2932759,16.7105172 L85.4312069,16.7105172 C87.4272414,16.7105172 89.0518966,18.3351724 89.0518966,20.3312069 C89.0518966,22.3272414 87.4272414,23.9518966 85.4312069,23.9518966 L75.345,23.9518966 L75.345,27.8312069 L85.4312069,27.8312069 C89.5665517,27.8312069 92.9312069,24.4665517 92.9312069,20.3312069 C92.9312069,16.1958621 89.5665517,12.8312069 85.4312069,12.8312069 L81.2932759,12.8312069 C79.2967241,12.8312069 77.6725862,11.207069 77.6725862,9.21051724 C77.6725862,7.21396552 79.2967241,5.58982759 81.2932759,5.58982759 L89.5691379,5.58982759 L89.5691379,1.71051724 Z M105.208603,5.43098276 C107.207741,5.43098276 108.829293,7.05201724 108.829293,9.05167241 C108.829293,11.0513276 107.207741,12.6723621 105.208603,12.6723621 L99.8598103,12.6723621 L99.8598103,5.43098276 L105.208603,5.43098276 Z M105.208603,6.46546552 L100.894293,6.46546552 L100.894293,11.6378793 L105.208603,11.6378793 C106.634638,11.6378793 107.79481,10.4777069 107.79481,9.05167241 C107.79481,7.62563793 106.634638,6.46546552 105.208603,6.46546552 Z M105.549569,16.2933103 L105.549569,16.2974483 C107.796466,16.341931 109.605259,18.174 109.605259,20.4312414 C109.605259,22.6884828 107.796466,24.5200345 105.549569,24.5645172 L105.549569,24.5691724 L99.8599138,24.5691724 L99.8599138,16.2933103 L105.549569,16.2933103 Z M105.327672,17.3277931 L100.894397,17.3277931 L100.894397,23.5346897 L105.362845,23.5346897 L105.529397,23.5305517 C107.206293,23.4974483 108.570776,22.1065862 108.570776,20.4312414 C108.570776,18.7553793 107.206293,17.3645172 105.529397,17.331931 L105.327672,17.3277931 Z" id="Combined-Shape" fill="#808284"></path>
                        </g>
                    </g>
                </g>
            </g>
        </g>
    </g>
</svg>