<?xml version="1.0" encoding="UTF-8"?>
<svg width="318px" height="131px" viewBox="0 0 318 131" version="1.1" xmlns="http://www.w3.org/2000/svg" xmlns:xlink="http://www.w3.org/1999/xlink">
    <!-- Generator: Sketch 52.5 (67469) - http://www.bohemiancoding.com/sketch -->
    <title>guardian-logo</title>
    <desc>Created with Sketch.</desc>
    <g id="V2" stroke="none" stroke-width="1" fill="none" fill-rule="evenodd">
        <g id="employers" transform="translate(-220.000000, -2980.000000)">
            <g id="guardian" transform="translate(0.000000, 2796.000000)">
                <g id="guardian-logo" transform="translate(220.000000, 184.000000)">
                    <polygon id="Fill-1" fill="#E87722" points="0 131 318 131 318 0 0 0"></polygon>
                    <path d="M67.4357142,51.8845502 L67.4357142,53.6791277 C67.4357142,63.1731032 67.4433771,72.6670787 67.4331598,82.1610542 C67.4229425,89.987547 61.5454421,97.5751017 53.9003492,99.4128914 C42.7686034,102.092048 34.4415059,95.1603021 32.0455496,87.5727473 C34.2013994,87.5727473 36.2933911,87.5269932 38.3777198,87.6134176 C38.7174449,87.628669 39.1005936,88.1599249 39.3509174,88.5284996 C42.4442042,93.0657811 47.5656247,95.0077884 52.5337856,93.5080707 C57.946399,91.8685488 61.3819653,86.1518284 61.1725107,81.7823119 C60.9707191,77.6008957 61.1648478,73.4016862 61.1188699,69.2126442 C61.0575661,63.4628791 57.4048822,58.605319 52.1991691,57.2454055 C47.4200282,55.9973353 42.3394769,57.8274993 39.5348287,61.805564 C36.4849654,66.1344101 36.513063,71.599483 39.4403187,75.9359549 C43.5502267,82.0237919 53.5325265,83.5641799 59.1239426,75.5750059 C59.1239426,78.6303629 59.1878007,81.3323966 59.0626388,84.0268047 C59.0422042,84.4462172 58.2146031,84.9012163 57.6858579,85.2138693 C48.9653944,90.3840825 36.6458879,86.1187837 32.5206539,76.5155068 C27.9969454,65.9869803 33.9664016,53.9307752 45.1262449,51.36092 C50.6742375,50.084889 55.8799506,51.0533508 60.3959961,54.754349 C60.5467013,54.8789018 60.7050694,54.9882033 61.0422402,55.2423927 C61.103544,54.0044901 61.1546305,52.9826486 61.2082713,51.8845502 L67.4357142,51.8845502 Z M194.255366,46.4728571 L194.255366,38.0007231 L200.332104,38.0007231 L200.332104,86.2636717 L194.089335,86.2636717 L194.089335,84.4665524 C194.086781,79.3776798 194.12765,74.2888073 194.076564,69.1999347 C194.017814,63.1832708 190.495401,58.412135 185.197732,57.0445958 C178.5335,55.3262752 171.807963,59.4670212 170.380096,66.1699966 C168.750437,73.8236406 174.709676,81.0451626 182.584658,80.8367272 C185.790335,80.7503028 188.617972,79.6191598 190.720181,77.0620141 C191.080341,76.6197244 191.46349,76.1926862 192.102071,75.4428273 C192.102071,78.4092181 192.153157,81.0222855 192.04843,83.6302691 C192.033104,84.0395141 191.376643,84.5199322 190.916864,84.8046244 C182.390529,90.0333011 170.242163,86.2458785 165.746552,76.9730478 C160.614914,66.378432 166.60225,53.7299655 178.09671,51.1499428 C183.925678,49.843409 189.312749,50.9796358 194.255366,55.2398508 L194.255366,46.4728571 Z M247.839983,55.308482 L247.839983,51.8438799 L253.92183,51.8438799 L253.92183,86.4288949 L247.673952,86.4288949 C247.673952,85.6231143 247.676507,84.8961325 247.673952,84.1691508 C247.650963,78.8159212 247.794006,73.4576078 247.564116,68.1145458 C247.180968,59.2229993 237.426003,53.9790712 229.683846,58.4528053 C225.553503,60.8396441 223.479392,64.6550276 223.704172,69.3117781 C223.941724,74.2633884 226.411756,78.0863975 231.152582,80.0792427 C235.438739,81.8814458 239.505223,81.2434303 243.155353,78.3837991 C244.021269,77.7051133 244.672621,76.7595286 245.694351,75.6360113 C245.694351,77.8042472 245.507885,79.7284613 245.745437,81.6018374 C246.026413,83.8564977 245.050661,85.0333948 243.081277,85.775628 C231.906108,89.9850051 219.773067,84.4818038 217.727053,71.9985605 C216.059079,61.8081059 223.162655,53.0843244 231.507633,51.3304173 C237.17057,50.1408107 242.424816,50.9847196 246.997056,54.7518071 C247.157979,54.8839856 247.346999,54.9831195 247.839983,55.308482 Z M138.387183,55.2322251 L138.387183,51.9201368 L144.604409,51.9201368 L144.604409,86.4619395 L138.476584,86.4619395 C138.476584,84.283536 138.507236,82.1763056 138.47403,80.0741589 C138.399955,75.7376871 138.583866,71.3707126 138.126642,67.0723692 C137.569799,61.8131897 133.334729,57.7792033 128.246515,56.9581714 C123.232376,56.1473071 118.202912,58.6739501 115.76864,63.226483 C113.31138,67.8273118 114.105775,73.4016862 117.651178,77.2170696 C122.989716,82.9617509 132.118871,81.8814458 135.712805,76.3985796 C135.822641,76.2308146 135.993781,76.101178 136.484211,75.5902572 C136.484211,78.5617318 136.535298,81.0883748 136.440788,83.6073921 C136.422908,84.0445979 135.871173,84.5783958 135.43183,84.8681717 C131.878764,87.1990889 127.860812,87.412608 123.822425,87.0109887 C114.366316,86.0755715 108.861747,78.3075423 108.251264,71.3325841 C107.438989,62.0572115 112.458236,54.2459701 120.882398,51.7320366 C127.194133,49.8484928 133.048645,50.8576249 138.387183,55.2322251 Z M287.902007,66.8766433 C288.08081,73.3508483 287.960757,79.8352208 287.958203,86.3170515 C287.958203,86.5204031 287.90967,86.7262965 287.871355,87.0338657 L281.472773,87.0338657 L281.472773,85.3511316 C281.46511,78.6557818 281.485544,71.960432 281.442121,65.2676241 C281.414023,60.4049802 278.714103,57.5173882 274.279795,57.4919692 C269.76375,57.4665503 266.696006,60.506656 266.627039,65.2650822 C266.535084,71.8511306 266.563181,78.4397208 266.537638,85.0257692 C266.535084,85.656159 266.537638,86.2865488 266.537638,87.0592847 L260.511987,87.0592847 L260.511987,51.9913098 L263.426471,51.9913098 L266.407368,51.9913098 C266.494215,52.4946049 266.563181,52.8962242 266.639811,53.3359719 C266.813505,53.2978435 266.971873,53.3029273 267.086818,53.2317543 C274.244035,48.7529364 283.087106,51.2439928 286.581422,59.0654019 C287.618477,61.3886933 287.827932,64.2483245 287.902007,66.8766433 Z M95.7606174,53.0741568 C95.7682804,52.3802196 95.7606174,51.6837406 95.7606174,50.8830438 L101.735182,50.8830438 L101.735182,86.1213256 L95.9113226,86.1213256 C95.8295842,85.7705442 95.7325199,85.3384222 95.6022493,84.7664959 C93.0964571,86.4416043 90.4220794,87.1838375 87.5280299,87.1736699 C80.3682586,87.1457091 74.4958668,81.8026471 74.166359,74.441321 C73.8215252,66.7775094 73.9441327,59.0959046 73.8700573,51.4219255 C73.867503,51.2694118 73.9441327,51.11944 74.0233168,50.8271222 L80.4755402,50.8271222 L80.4755402,52.5810293 C80.4755402,59.1772452 80.4270081,65.7734611 80.4908662,72.3671351 C80.5419527,77.2704494 82.0311238,79.3725961 85.9494574,80.4656106 C90.7541416,81.805189 95.3212736,78.6151115 95.5026307,73.4982781 C95.7427372,66.6961688 95.6916507,59.88135 95.7606174,53.0741568 Z M154.579045,53.0487379 C156.09376,52.4132643 157.521627,51.7294947 159.000581,51.2261996 C159.825628,50.9440493 160.737521,50.9643845 161.751588,50.8271222 L161.751588,57.2504893 C158.121893,57.3725002 155.779578,59.446686 154.872793,63.2722371 C154.52285,64.7643291 154.527959,66.3835158 154.517742,67.9442389 C154.476872,73.7397581 154.502416,79.5327354 154.502416,85.3257127 L154.502416,87.1736699 L148.890565,87.1736699 L148.890565,51.8057515 L154.372145,51.8057515 C154.448775,52.2658344 154.52285,52.708124 154.579045,53.0487379 Z M206.763893,85.0333948 L213.195682,85.0333948 L213.195682,50.8271222 L206.763893,50.8271222 L206.763893,85.0333948 Z M208.730723,38.0007231 C211.187983,37.9575109 213.172693,39.856306 213.193127,42.2711057 C213.216116,44.5816877 211.272275,46.523695 208.909525,46.5516558 C206.488026,46.5821586 204.641249,44.7774135 204.620815,42.3651558 C204.602934,39.9147696 206.365418,38.0439353 208.730723,38.0007231 Z" id="Fill-2" fill="#FEFEFE"></path>
                </g>
            </g>
        </g>
    </g>
</svg>