<svg width="32" height="32" xmlns="http://www.w3.org/2000/svg"><g fill="#2333FF" fill-rule="evenodd"><path d="M24 4H8a2 2 0 0 0-2 2v2a1 1 0 0 0 1 1h18a1 1 0 0 0 1-1V6a2 2 0 0 0-2-2z"/><path d="M24.5 10.5h-17a.5.5 0 0 0-.5.5v13.5a3.5 3.5 0 0 0 3.5 3.5h11a3.5 3.5 0 0 0 3.5-3.5V11a.5.5 0 0 0-.5-.5zM21 19.611a.556.556 0 0 1-.556.556h-2.277a.5.5 0 0 0-.5.5v2.277a.556.556 0 0 1-.556.556h-2.222a.556.556 0 0 1-.556-.556v-2.277a.5.5 0 0 0-.5-.5h-2.277a.556.556 0 0 1-.556-.556v-2.222c0-.307.249-.556.556-.556h2.277a.5.5 0 0 0 .5-.5v-2.278c0-.307.25-.555.556-.555h2.222c.307 0 .555.248.556.555v2.278a.5.5 0 0 0 .5.5h2.277c.307 0 .556.249.556.556v2.222z" fill-rule="nonzero"/></g></svg>