<svg width="32" height="32" xmlns="http://www.w3.org/2000/svg"><path d="M12.902 20.057v-8.788l8.105 4.409-8.105 4.379zM30.7 9.746s-.293-2.156-1.192-3.105c-1.141-1.246-2.42-1.252-3.006-1.324C22.304 5 16.007 5 16.007 5h-.014s-6.297 0-10.495.317c-.587.072-1.865.078-3.006 1.324-.9.95-1.192 3.105-1.192 3.105S1 12.277 1 14.808v2.373c0 2.532.3 5.063.3 5.063s.292 2.155 1.192 3.104c1.141 1.246 2.64 1.207 3.308 1.337C8.2 26.925 16 27 16 27s6.304-.01 10.502-.326c.586-.074 1.865-.08 3.006-1.326.899-.95 1.192-3.104 1.192-3.104s.3-2.531.3-5.063v-2.373c0-2.53-.3-5.062-.3-5.062z" fill="#2333FF"/></svg>