<svg width="32" height="32" xmlns="http://www.w3.org/2000/svg"><path d="M20.098 21.783l2.56 5.506a.5.5 0 0 1-.454.711H7.294a.5.5 0 0 1-.216-.049l-1.6-.757a2 2 0 0 1 1.711-3.617l1.442.683a.251.251 0 0 0 .334-.332L5.697 16.9a2 2 0 0 1 3.627-1.687l2.32 4.987a.5.5 0 0 0 .663.243l1.814-.843a4.5 4.5 0 0 1 5.977 2.183zm7.775-16.21a3.241 3.241 0 0 1-1.11 4.441l-8.61 5.159c-.67.4-1.535.182-1.938-.485l-.026-.045a.5.5 0 0 0-.7-.165l-2.486 1.577a1.25 1.25 0 0 1-1.339-2.111l2.558-1.624a.5.5 0 0 0 .161-.68l-.05-.083a1.413 1.413 0 0 1 .49-1.938l8.61-5.159a3.242 3.242 0 0 1 4.44 1.113zM21.39 10.9a.5.5 0 0 0 .171-.685l-.77-1.287a.5.5 0 0 0-.687-.172l-3.055 1.831a.5.5 0 0 0-.173.686l.771 1.287a.5.5 0 0 0 .687.172L21.39 10.9z" fill="#2333FF" fill-rule="evenodd"/></svg>