<svg height="32" width="32" xmlns="http://www.w3.org/2000/svg"><path d="M25.6 12.8a1.067 1.067 0 0 1 0-2.133h4.267a1.067 1.067 0 1 1 0 2.133zm-4.267-4.267a1.067 1.067 0 0 1 0-2.133h8.534a1.067 1.067 0 0 1 0 2.133zm4.267 8.534a1.067 1.067 0 0 1 0-2.134h4.267a1.067 1.067 0 0 1 0 2.134zm0 4.266a1.067 1.067 0 1 1 0-2.133h4.267a1.067 1.067 0 0 1 0 2.133zm0 4.267a1.067 1.067 0 0 1 0-2.133h4.267a1.067 1.067 0 1 1 0 2.133zm-16 1.067c-4.713 0-8.533-3.556-8.533-9.245C1.067 13.63 3.91 9.6 9.6 5.333c5.689 4.267 8.533 8.297 8.533 12.09 0 5.688-3.82 9.244-8.533 9.244zm-5.333-8.534A5.333 5.333 0 0 0 9.6 23.467a1.067 1.067 0 0 0 0-2.134 3.2 3.2 0 0 1-3.2-3.2 1.067 1.067 0 0 0-2.133 0z" fill="#2333ff"/></svg>