<?xml version="1.0" encoding="UTF-8"?>
<svg width="32px" height="32px" viewBox="0 0 32 32" version="1.1" xmlns="http://www.w3.org/2000/svg" xmlns:xlink="http://www.w3.org/1999/xlink">
    <!-- Generator: Sketch 52.5 (67469) - http://www.bohemiancoding.com/sketch -->
    <title>icon-facebook</title>
    <desc>Created with Sketch.</desc>
    <g id="icon-facebook" stroke="none" stroke-width="1" fill="none" fill-rule="evenodd">
        <path d="M16.8191775,28 L5.324616,28 C4.5928365,28 4,27.406796 4,26.6753015 L4,5.3246055 C4,4.592925 4.5929295,4 5.324616,4 L26.6754775,4 C27.4069775,4 28,4.592925 28,5.3246055 L28,26.6753015 C28,27.406889 27.4068845,28 26.6754775,28 L20.5596525,28 L20.5596525,18.7058775 L23.6792605,18.7058775 L24.1463775,15.083793 L20.5596525,15.083793 L20.5596525,12.7713205 C20.5596525,11.7226435 20.850856,11.008005 22.354645,11.008005 L24.2726555,11.0071665 L24.2726555,7.7675455 C23.940943,7.723404 22.802392,7.624785 21.477776,7.624785 C18.712417,7.624785 16.8191775,9.312763 16.8191775,12.4126045 L16.8191775,15.083793 L13.691561,15.083793 L13.691561,18.7058775 L16.8191775,18.7058775 L16.8191775,28 Z" id="social-icon-facebook" fill="#2333FF" fill-rule="nonzero"></path>
    </g>
</svg>