<svg width="32" height="32" xmlns="http://www.w3.org/2000/svg"><g fill="#2333FF" fill-rule="evenodd"><path d="M23.153 22.667h-3.486a.332.332 0 0 1-.334-.334v-8.502a3.167 3.167 0 0 0-6.333 0V25.2a.335.335 0 0 1-.607.193l-1.364-1.926a2.823 2.823 0 0 0-3.549-.879 2.767 2.767 0 0 0-1.368 3.23 58.915 58.915 0 0 0 3.01 5.831.667.667 0 0 0 .587.351h18.963a.667.667 0 0 0 .667-.667v-2.225a6.415 6.415 0 0 0-6.186-6.441z"/><path d="M7.333 14.667A1.333 1.333 0 0 1 6 13.333V4c0-.736.597-1.333 1.333-1.333h18c.737 0 1.334.597 1.334 1.333v9.333c0 .737-.597 1.334-1.334 1.334h-3.666a.332.332 0 0 0-.334.333v2a.332.332 0 0 0 .334.333h3.666a4 4 0 0 0 4-4V4a4 4 0 0 0-4-4h-18a4 4 0 0 0-4 4v9.333a4 4 0 0 0 4 4h3.334c.184 0 .333-.149.333-.333v-2a.333.333 0 0 0-.333-.333H7.333z"/></g></svg>