<svg height="32" width="32" xmlns="http://www.w3.org/2000/svg"><path d="M8 4h16a4 4 0 0 1 4 4v16a4 4 0 0 1-4 4H8a4 4 0 0 1-4-4V8a4 4 0 0 1 4-4zM7 18a1 1 0 0 0 0 2c1.802 0 2.591-.947 3.893-3.553C11.84 14.553 12.3 14 12.997 14c.698 0 1.159.553 2.107 2.447C16.406 19.053 17.196 20 18.999 20c1.802 0 2.592-.947 3.895-3.553C23.84 14.553 24.302 14 25 14a1 1 0 0 0 0-2c-1.802 0-2.592.947-3.895 3.553C20.157 17.447 19.697 18 18.999 18c-.699 0-1.16-.553-2.107-2.447C15.59 12.947 14.8 12 12.997 12c-1.802 0-2.59.947-3.893 3.553C8.157 17.447 7.697 18 7 18z" fill="#2333ff" fill-rule="evenodd"/></svg>