<svg width="32" height="32" xmlns="http://www.w3.org/2000/svg"><g fill="#2333FF" fill-rule="evenodd"><path d="M24.333 11.333H7a2 2 0 0 0-2 2V24a2 2 0 0 0 2 2h17.333a2 2 0 0 0 2-2V13.333a2 2 0 0 0-2-2zm-1.044 4.624a1.001 1.001 0 0 1-1.249.666l-2.155-.659a14.39 14.39 0 0 0-2.853-.561.333.333 0 0 0-.365.332v1.68c0 .17.128.313.297.33 1.005.11 1.99.35 2.933.714l1.746.676a1 1 0 0 1-.723 1.864l-1.745-.676a9.575 9.575 0 0 0-2.124-.55.332.332 0 0 0-.382.33v1.564c0 .184.15.333.334.333h1.333a1 1 0 0 1-.003 2H13a1 1 0 0 1 0-2h1.333c.184 0 .334-.15.334-.333V20.1a.332.332 0 0 0-.38-.329 9.575 9.575 0 0 0-2.124.55l-1.746.675a1 1 0 1 1-.722-1.866l1.745-.676a11.656 11.656 0 0 1 2.933-.714.332.332 0 0 0 .298-.33v-1.678a.333.333 0 0 0-.366-.332 14.39 14.39 0 0 0-2.853.562l-2.155.658a1 1 0 0 1-.586-1.912l2.156-.658a16.505 16.505 0 0 1 9.61 0l2.155.658a1 1 0 0 1 .657 1.248z" fill-rule="nonzero"/><path d="M18.444 28h-5.555a.667.667 0 0 0-.666.695l.11 2.666c.015.358.31.64.667.639h5.333a.667.667 0 0 0 .667-.639l.11-2.666a.667.667 0 0 0-.666-.695z"/><circle cx="15.667" cy="4.667" r="4.667"/></g></svg>