<svg width="32" height="32" xmlns="http://www.w3.org/2000/svg"><g fill="#2333FF" fill-rule="evenodd"><path d="M31.088 28.874L1.835 18.487a1.391 1.391 0 0 0-1.346.211c-.376.3-.555.772-.467 1.234.088.462.428.843.89.995l13.921 4.946c.102.037.18.118.209.219.029.1.006.208-.062.29l-3.824 4.561a.63.63 0 0 0-.084.688c.112.225.349.369.608.369h8.634c.26 0 .497-.144.609-.37a.63.63 0 0 0-.084-.687l-2.759-3.291a.315.315 0 0 1-.012-.393.345.345 0 0 1 .39-.116l11.707 4.17c.455.17.97.089 1.346-.211.376-.3.555-.771.467-1.234a1.314 1.314 0 0 0-.89-.994zM32 15.16a.68.68 0 0 0-.68-.68H28.6a.68.68 0 0 1-.68-.68v-2.72a.68.68 0 0 0-.68-.68h-4.08a.68.68 0 0 0-.68.68v2.72a.68.68 0 0 1-.68.68h-2.72a.68.68 0 0 0-.68.68v4.08c0 .376.304.68.68.68h2.72a.68.68 0 0 1 .68.68v2.72c0 .376.304.68.68.68h4.08a.68.68 0 0 0 .68-.68V20.6a.68.68 0 0 1 .68-.68h2.72a.68.68 0 0 0 .68-.68v-4.08z"/><path d="M8.8 17.6A8.8 8.8 0 1 0 0 8.8a8.81 8.81 0 0 0 8.8 8.8zM7.514 3.79a.337.337 0 0 0 .27-.33v-.414a1.015 1.015 0 0 1 2.031 0v.339c0 .187.152.338.339.338h.677a1.015 1.015 0 1 1 0 2.03H8.078a.8.8 0 0 0-.299 1.544l2.796 1.119a2.823 2.823 0 0 1-.489 5.39.337.337 0 0 0-.27.33v.418a1.015 1.015 0 0 1-2.031 0v-.339a.338.338 0 0 0-.339-.338H6.77a1.015 1.015 0 0 1 0-2.03h2.753A.801.801 0 0 0 9.82 10.3L7.025 9.184a2.823 2.823 0 0 1 .489-5.39V3.79z" fill-rule="nonzero"/></g></svg>